<?xml version="1.0" encoding="UTF-8" standalone="no"?>
<!-- Created with Inkscape (http://www.inkscape.org/) -->

<svg
   xmlns:dc="http://purl.org/dc/elements/1.1/"
   xmlns:cc="http://creativecommons.org/ns#"
   xmlns:rdf="http://www.w3.org/1999/02/22-rdf-syntax-ns#"
   xmlns:svg="http://www.w3.org/2000/svg"
   xmlns="http://www.w3.org/2000/svg"
   xmlns:sodipodi="http://sodipodi.sourceforge.net/DTD/sodipodi-0.dtd"
   xmlns:inkscape="http://www.inkscape.org/namespaces/inkscape"
   width="600"
   height="651.46307"
   id="svg2"
   version="1.1"
   inkscape:version="0.48.4 r9939"
   sodipodi:docname="butterfly.svg"
   inkscape:export-filename="C:\Users\Margaret\Pictures\wall_peel\vectostock\free\vectorstock_85252_butterfly\butterfly2.png"
   inkscape:export-xdpi="90"
   inkscape:export-ydpi="90">
  <defs
     id="defs4">
    <clipPath
       clipPathUnits="userSpaceOnUse"
       id="clipPath3304">
      <path
         d="m 0,595.275 841.89,0 L 841.89,0 0,0 0,595.275 z"
         id="path3306"
         inkscape:connector-curvature="0" />
    </clipPath>
  </defs>
  <sodipodi:namedview
     id="base"
     pagecolor="#ffffff"
     bordercolor="#666666"
     borderopacity="1.0"
     inkscape:pageopacity="0.0"
     inkscape:pageshadow="2"
     inkscape:zoom="0.7"
     inkscape:cx="243.50064"
     inkscape:cy="265.83851"
     inkscape:document-units="px"
     inkscape:current-layer="g3300"
     showgrid="false"
     inkscape:window-width="1341"
     inkscape:window-height="936"
     inkscape:window-x="37"
     inkscape:window-y="60"
     inkscape:window-maximized="0"
     showborder="true"
     fit-margin-top="0"
     fit-margin-left="0"
     fit-margin-right="0"
     fit-margin-bottom="0" />
  <metadata
     id="metadata7">
    <rdf:RDF>
      <cc:Work
         rdf:about="">
        <dc:format>image/svg+xml</dc:format>
        <dc:type
           rdf:resource="http://purl.org/dc/dcmitype/StillImage" />
        <dc:title></dc:title>
      </cc:Work>
    </rdf:RDF>
  </metadata>
  <g
     inkscape:label="Layer 1"
     inkscape:groupmode="layer"
     id="layer1"
     transform="translate(-122.33866,-262.43103)">
    <g
       id="g3300"
       transform="matrix(1.25,0,0,-1.25,-331.58273,1133.8758)">
      <g
         transform="matrix(1.8078055,0,0,1.7057537,592.55851,249.98773)"
         id="g3308"
         style="fill:#000000">
        <path
           id="path3310"
           style="fill:#000000;fill-opacity:1;fill-rule:nonzero;stroke:none"
           d="m 0,0 c 0,0 -70.434,103.343 -62.93,171.464 7.504,68.123 64.082,105.072 77.365,85.438 C 26.806,238.617 -47.63,228.328 -49.076,159.341 -50.31,100.179 -22.801,36.081 0,0"
           inkscape:connector-curvature="0" />
      </g>
      <g
         transform="matrix(1.8078055,0,0,1.7057537,582.58737,277.28643)"
         id="g3312"
         style="fill:#000000">
        <path
           id="path3314"
           style="fill:#000000;fill-opacity:1;fill-rule:nonzero;stroke:none"
           d="m 0,0 c 0,0 -46.182,96.409 -36.657,151.543 9.524,55.135 49.936,70.143 66.969,54.268 17.028,-15.874 0.288,-47.05 0.288,-47.05 0,0 17.897,14.432 31.173,-1.733 13.28,-16.164 -3.752,-26.844 -3.752,-26.844 0,0 15.588,5.771 24.248,-6.353 8.658,-12.121 -3.752,-33.772 -17.898,-43.874 0,0 26.559,28.866 13.279,41.568 -13.279,12.701 -24.824,5.195 -24.824,5.195 0,0 17.029,16.454 4.329,29.732 -12.699,13.278 -30.307,-2.021 -30.307,-2.021 0,0 16.165,28.863 -2.024,47.05 C 6.642,219.666 -32.328,179.543 -30.596,129.319 -28.864,79.093 0,0 0,0"
           inkscape:connector-curvature="0" />
      </g>
      <g
         transform="matrix(1.8078055,0,0,1.7057537,535.62854,489.00884)"
         id="g3316"
         style="fill:#000000">
        <path
           id="path3318"
           style="fill:#000000;fill-opacity:1;fill-rule:nonzero;stroke:none"
           d="M 0,0 C 0,0 -4.933,43.968 18.761,51.668 41.853,59.174 53.109,32.906 41.853,8.37 c 0,0 8.373,21.075 24.536,10.682 16.165,-10.392 -2.31,-31.753 -2.31,-31.753 0,0 16.746,11.546 25.691,-3.753 8.947,-15.297 -16.164,-29.442 -16.164,-29.442 0,0 23.379,17.032 10.391,30.021 -12.99,12.987 -25.978,-2.888 -25.978,-2.888 0,0 18.183,19.917 5.195,32.907 C 50.226,27.132 39.544,3.752 39.544,3.752 c 0,0 7.796,39.546 -14.434,40.99 C -1.671,46.48 0,0 0,0"
           inkscape:connector-curvature="0" />
      </g>
      <g
         transform="matrix(1.8078055,0,0,1.7057537,572.15181,460.44991)"
         id="g3320"
         style="fill:#999999"
         inkscape:export-filename="C:\Users\Margaret\Pictures\wall_peel\vectostock\free\vectorstock_85252_butterfly\g3364.png"
         inkscape:export-xdpi="90"
         inkscape:export-ydpi="90">
        <path
           id="path3322"
           style="fill:#999999;fill-opacity:1;fill-rule:nonzero;stroke:none"
           d="M 0,0 C 0,0 -21.646,47.626 -1.44,50.514 20.071,53.59 4.907,13.565 0,0"
           inkscape:connector-curvature="0" />
      </g>
      <g
         transform="matrix(1.8078055,0,0,1.7057537,602.94272,452.08028)"
         id="g3324"
         style="fill:#999999"
         inkscape:export-filename="C:\Users\Margaret\Pictures\wall_peel\vectostock\free\vectorstock_85252_butterfly\g3364.png"
         inkscape:export-xdpi="90"
         inkscape:export-ydpi="90">
        <path
           id="path3326"
           style="fill:#999999;fill-opacity:1;fill-rule:nonzero;stroke:none"
           d="M 0,0 C 0,0 7.318,39.308 22.801,30.309 35.214,23.092 6.927,4.041 0,0"
           inkscape:connector-curvature="0" />
      </g>
      <g
         transform="matrix(1.8078055,0,0,1.7057537,638.14902,428.28213)"
         id="g3328"
         style="fill:#999999"
         inkscape:export-filename="C:\Users\Margaret\Pictures\wall_peel\vectostock\free\vectorstock_85252_butterfly\g3364.png"
         inkscape:export-xdpi="90"
         inkscape:export-ydpi="90">
        <path
           id="path3330"
           style="fill:#999999;fill-opacity:1;fill-rule:nonzero;stroke:none"
           d="M 0,0 C 0,0 20.858,24.064 27.194,12.629 33.531,1.198 0,0 0,0"
           inkscape:connector-curvature="0" />
      </g>
      <path
         inkscape:connector-curvature="0"
         d="m 525.18774,453.55526 c 0,0 28.17648,7.88227 43.31322,-23.14198 0,0 9.05709,18.53475 28.70613,18.22086 30.77969,-0.49296 62.09271,-27.08395 38.61112,-100.44327 -15.87796,-49.61698 -32.35429,-111.27485 2.61048,-147.21849 0,0 -19.30738,13.29635 -24.00406,43.32615 -4.69848,30.03489 16.37331,112.45009 19.30194,142.29396 4.70212,47.7594 -56.3511,75.82586 -62.0963,-4.42815 0,0 3.659,59.57175 -41.74584,62.03829 l -4.69669,9.35263 z"
         style="fill:#000000;fill-opacity:1;fill-rule:nonzero;stroke:none"
         id="path3334" />
      <g
         transform="matrix(1.8078055,0,0,1.7057537,616.50831,419.58688)"
         id="g3336"
         style="fill:#999999"
         inkscape:export-filename="C:\Users\Margaret\Pictures\wall_peel\vectostock\free\vectorstock_85252_butterfly\g3364.png"
         inkscape:export-xdpi="90"
         inkscape:export-ydpi="90">
        <path
           id="path3338"
           style="fill:#999999;fill-opacity:1;fill-rule:nonzero;stroke:none"
           d="m 0,0 c 3.35,-3.35 3.35,-8.775 0,-12.125 -3.347,-3.345 -8.772,-3.345 -12.122,0.002 -3.347,3.348 -3.347,8.773 0,12.122 C -8.772,3.347 -3.347,3.347 0,0"
           inkscape:connector-curvature="0" />
      </g>
      <g
         transform="matrix(1.8078055,0,0,1.7057537,676.57195,365.55406)"
         id="g3340"
         style="fill:#000000">
        <path
           id="path3342"
           style="fill:#000000;fill-opacity:1;fill-rule:nonzero;stroke:none"
           d="M 0,0 C 0,0 12.699,30.018 29.15,27.998 45.604,25.979 49.935,4.906 49.935,4.906 c 0,0 13.858,6.926 22.514,-1.733 8.661,-8.658 4.044,-23.091 4.044,-23.091 0,0 12.413,0.866 15.299,-8.948 2.884,-9.815 -13.279,-21.938 -13.279,-21.938 0,0 11.545,13.279 4.33,20.496 -7.216,7.215 -16.743,2.885 -16.743,2.885 0,0 8.661,14.432 -1.732,23.67 -10.39,9.235 -20.492,-8.949 -20.492,-8.949 0,0 2.886,23.094 -15.012,25.403 C 10.968,15.008 0,0 0,0"
           inkscape:connector-curvature="0" />
      </g>
      <g
         transform="matrix(1.8078055,0,0,1.7057537,652.56554,212.9159)"
         id="g3344"
         style="fill:#000000">
        <path
           id="path3346"
           style="fill:#000000;fill-opacity:1;fill-rule:nonzero;stroke:none"
           d="m 0,0 c 0,0 -5.198,36.374 2.309,58.309 7.506,21.937 26.267,31.464 37.523,23.67 11.26,-7.794 0.58,-21.361 0.58,-21.361 0,0 14.718,15.876 26.265,8.948 11.548,-6.926 -3.463,-24.823 -3.463,-24.823 0,0 11.545,7.502 19.052,-1.734 7.506,-9.236 -30.6,-50.8 -78.803,-45.316 0,0 35.266,3.078 49.937,14.141 18.763,14.145 15.874,27.426 0.867,25.692 0,0 11.258,8.371 0.865,18.763 -10.393,10.39 -20.206,-1.733 -20.206,-1.733 0,0 6.349,12.703 -5.773,18.474 C 17.031,78.803 -4.907,47.628 0,0"
           inkscape:connector-curvature="0" />
      </g>
      <g
         transform="matrix(1.8078055,0,0,1.7057537,673.43666,240.48855)"
         id="g3348"
         style="fill:#999999"
         inkscape:export-filename="C:\Users\Margaret\Pictures\wall_peel\vectostock\free\vectorstock_85252_butterfly\g3364.png"
         inkscape:export-xdpi="90"
         inkscape:export-ydpi="90">
        <path
           id="path3350"
           style="fill:#999999;fill-opacity:1;fill-rule:nonzero;stroke:none"
           d="M 0,0 C 0,0 -5.772,43.299 5.197,43.299 16.165,43.299 0,0 0,0"
           inkscape:connector-curvature="0" />
      </g>
      <g
         transform="matrix(1.8078055,0,0,1.7057537,692.74692,246.89179)"
         id="g3352"
         style="fill:#999999"
         inkscape:export-filename="C:\Users\Margaret\Pictures\wall_peel\vectostock\free\vectorstock_85252_butterfly\g3364.png"
         inkscape:export-xdpi="90"
         inkscape:export-ydpi="90">
        <path
           id="path3354"
           style="fill:#999999;fill-opacity:1;fill-rule:nonzero;stroke:none"
           d="M 0,0 C 0,0 13.276,33.482 21.358,25.401 29.442,17.318 0,0 0,0"
           inkscape:connector-curvature="0" />
      </g>
      <g
         transform="matrix(1.8078055,0,0,1.7057537,702.51159,232.28047)"
         id="g3356"
         style="fill:#999999"
         inkscape:export-filename="C:\Users\Margaret\Pictures\wall_peel\vectostock\free\vectorstock_85252_butterfly\g3364.png"
         inkscape:export-xdpi="90"
         inkscape:export-ydpi="90">
        <path
           id="path3358"
           style="fill:#999999;fill-opacity:1;fill-rule:nonzero;stroke:none"
           d="M 0,0 C 0,0 19.915,18.759 23.67,12.699 27.425,6.638 0,0 0,0"
           inkscape:connector-curvature="0" />
      </g>
      <g
         transform="matrix(1.8078055,0,0,1.7057537,557.53046,224.95443)"
         id="g3360"
         style="fill:#000000">
        <path
           id="path3362"
           style="fill:#000000;fill-opacity:1;fill-rule:nonzero;stroke:none"
           d="m 0,0 c -2.485,-5.526 -1.601,-13.499 23.217,-24.935 17.06,-7.86 54.765,-1.001 54.765,-1.001 0,0 -28.81,4.156 -43.779,15.883 C 19.23,1.671 4.846,10.801 0,0"
           inkscape:connector-curvature="0" />
      </g>
      <g
         transform="matrix(1.8078055,0,0,1.7057537,549.9039,244.79541)"
         id="g3364"
         style="fill:#999999"
         inkscape:export-xdpi="90"
         inkscape:export-ydpi="90">
        <path
           id="path3366"
           style="fill:#999999;fill-opacity:1;fill-rule:nonzero;stroke:none"
           d="m 0,0 c 3.138,-2.609 3.569,-7.272 0.964,-10.411 -2.609,-3.141 -7.272,-3.572 -10.415,-0.964 -3.143,2.606 -3.571,7.272 -0.964,10.413 C -7.807,2.177 -3.144,2.608 0,0"
           inkscape:connector-curvature="0" />
      </g>
      <g
         transform="matrix(1.8078055,0,0,1.7057537,510.10035,255.90277)"
         id="g3368"
         style="fill:#000000">
        <path
           id="path3370"
           style="fill:#000000;fill-opacity:1;fill-rule:nonzero;stroke:none"
           d="m 0,0 c 0,0 -62.74,35.179 -55.133,58.02 3.237,9.713 12.321,-4.271 3.263,-5.178 0,0 -0.453,-18.117 51.87,-52.842"
           inkscape:connector-curvature="0" />
      </g>
      <g
         transform="matrix(1.8078055,0,0,1.7057537,508.43898,242.13357)"
         id="g3372"
         style="fill:#000000">
        <path
           id="path3374"
           style="fill:#000000;fill-opacity:1;fill-rule:nonzero;stroke:none"
           d="m 0,0 c 0,0 -25.452,2.808 -47.104,24.456 -20.378,20.381 -23.849,35.285 -19.232,38.172 4.615,2.887 10.103,-5.485 2.021,-6.062 0,0 7.93,-38.224 64.315,-56.566"
           inkscape:connector-curvature="0" />
      </g>
      <g
         transform="matrix(1.8078055,0,0,1.7057537,557.58525,254.4302)"
         id="g3376"
         style="fill:#000000">
        <path
           id="path3378"
           style="fill:#000000;fill-opacity:1;fill-rule:nonzero;stroke:none"
           d="m 0,0 c 0,0 -82.948,60.514 -101.605,126.431 -17.32,61.194 7.792,88.039 16.452,89.77 8.661,1.732 14.144,-8.372 7.217,-18.186 -6.926,-9.815 -22.226,-62.061 5.773,-107.38 C -44.164,45.317 0,0 0,0"
           inkscape:connector-curvature="0" />
      </g>
      <g
         transform="matrix(1.8078055,0,0,1.7057537,559.15117,257.87342)"
         id="g3380"
         style="fill:#000000">
        <path
           id="path3382"
           style="fill:#000000;fill-opacity:1;fill-rule:nonzero;stroke:none"
           d="m 0,0 c 0,0 -59.75,73.031 -71.298,103.05 -11.547,30.021 -14.433,88.328 28.576,91.505 l -1.154,-4.043 c 0,0 -26.845,0.288 -30.308,-35.506 -3.463,-35.79 13.857,-65.232 22.227,-78.798 C -43.585,62.638 0,0 0,0"
           inkscape:connector-curvature="0" />
      </g>
      <g
         transform="matrix(1.8078055,0,0,1.7057537,455.08412,472.72179)"
         id="g3384"
         style="fill:#999999"
         inkscape:export-filename="C:\Users\Margaret\Pictures\wall_peel\vectostock\free\vectorstock_85252_butterfly\g3364.png"
         inkscape:export-xdpi="90"
         inkscape:export-ydpi="90">
        <path
           id="path3386"
           style="fill:#999999;fill-opacity:1;fill-rule:nonzero;stroke:none"
           d="M 0,0 C 0,0 -21.645,47.629 -1.44,50.516 20.071,53.591 4.909,13.566 0,0"
           inkscape:connector-curvature="0" />
      </g>
    </g>
  </g>
</svg>
