<?xml version="1.0" encoding="UTF-8" standalone="no"?>
<!-- Created with Inkscape (http://www.inkscape.org/) -->

<svg
   xmlns:dc="http://purl.org/dc/elements/1.1/"
   xmlns:cc="http://creativecommons.org/ns#"
   xmlns:rdf="http://www.w3.org/1999/02/22-rdf-syntax-ns#"
   xmlns:svg="http://www.w3.org/2000/svg"
   xmlns="http://www.w3.org/2000/svg"
   xmlns:sodipodi="http://sodipodi.sourceforge.net/DTD/sodipodi-0.dtd"
   xmlns:inkscape="http://www.inkscape.org/namespaces/inkscape"
   width="744.09448"
   height="800"
   id="svg2"
   version="1.1"
   inkscape:version="0.48.4 r9939"
   sodipodi:docname="butterfly.svg"
   inkscape:export-filename="C:\Users\Margaret\Pictures\wall_peel\vectostock\free\vectorstock_85252_butterfly\butterfly.png"
   inkscape:export-xdpi="90"
   inkscape:export-ydpi="90">
  <defs
     id="defs4">
    <clipPath
       clipPathUnits="userSpaceOnUse"
       id="clipPath3304">
      <path
         d="m 0,595.275 841.89,0 L 841.89,0 0,0 0,595.275 z"
         id="path3306"
         inkscape:connector-curvature="0" />
    </clipPath>
  </defs>
  <sodipodi:namedview
     id="base"
     pagecolor="#ffffff"
     bordercolor="#666666"
     borderopacity="1.0"
     inkscape:pageopacity="0.0"
     inkscape:pageshadow="2"
     inkscape:zoom="0.7"
     inkscape:cx="205.76024"
     inkscape:cy="347.1637"
     inkscape:document-units="px"
     inkscape:current-layer="g3300"
     showgrid="false"
     inkscape:window-width="1182"
     inkscape:window-height="751"
     inkscape:window-x="348"
     inkscape:window-y="64"
     inkscape:window-maximized="0"
     showborder="false" />
  <metadata
     id="metadata7">
    <rdf:RDF>
      <cc:Work
         rdf:about="">
        <dc:format>image/svg+xml</dc:format>
        <dc:type
           rdf:resource="http://purl.org/dc/dcmitype/StillImage" />
        <dc:title></dc:title>
      </cc:Work>
    </rdf:RDF>
  </metadata>
  <g
     inkscape:label="Layer 1"
     inkscape:groupmode="layer"
     id="layer1"
     transform="translate(0,-252.36218)">
    <g
       id="g3300"
       transform="matrix(1.25,0,0,-1.25,-331.58273,1133.8758)">
      <g
         transform="matrix(2.1879865,0,0,2.0847421,543.66291,157.85832)"
         id="g3308">
        <path
           id="path3310"
           style="fill:#00a0c6;fill-opacity:1;fill-rule:nonzero;stroke:none"
           d="m 0,0 c 0,0 -70.434,103.343 -62.93,171.464 7.504,68.123 64.082,105.072 77.365,85.438 C 26.806,238.617 -47.63,228.328 -49.076,159.341 -50.31,100.179 -22.801,36.081 0,0"
           inkscape:connector-curvature="0" />
      </g>
      <g
         transform="matrix(2.1879865,0,0,2.0847421,531.59486,191.22233)"
         id="g3312">
        <path
           id="path3314"
           style="fill:#00a0c6;fill-opacity:1;fill-rule:nonzero;stroke:none"
           d="m 0,0 c 0,0 -46.182,96.409 -36.657,151.543 9.524,55.135 49.936,70.143 66.969,54.268 17.028,-15.874 0.288,-47.05 0.288,-47.05 0,0 17.897,14.432 31.173,-1.733 13.28,-16.164 -3.752,-26.844 -3.752,-26.844 0,0 15.588,5.771 24.248,-6.353 8.658,-12.121 -3.752,-33.772 -17.898,-43.874 0,0 26.559,28.866 13.279,41.568 -13.279,12.701 -24.824,5.195 -24.824,5.195 0,0 17.029,16.454 4.329,29.732 -12.699,13.278 -30.307,-2.021 -30.307,-2.021 0,0 16.165,28.863 -2.024,47.05 C 6.642,219.666 -32.328,179.543 -30.596,129.319 -28.864,79.093 0,0 0,0"
           inkscape:connector-curvature="0" />
      </g>
      <g
         transform="matrix(2.1879865,0,0,2.0847421,474.76059,449.98572)"
         id="g3316">
        <path
           id="path3318"
           style="fill:#00a0c6;fill-opacity:1;fill-rule:nonzero;stroke:none"
           d="M 0,0 C 0,0 -4.933,43.968 18.761,51.668 41.853,59.174 53.109,32.906 41.853,8.37 c 0,0 8.373,21.075 24.536,10.682 16.165,-10.392 -2.31,-31.753 -2.31,-31.753 0,0 16.746,11.546 25.691,-3.753 8.947,-15.297 -16.164,-29.442 -16.164,-29.442 0,0 23.379,17.032 10.391,30.021 -12.99,12.987 -25.978,-2.888 -25.978,-2.888 0,0 18.183,19.917 5.195,32.907 C 50.226,27.132 39.544,3.752 39.544,3.752 c 0,0 7.796,39.546 -14.434,40.99 C -1.671,46.48 0,0 0,0"
           inkscape:connector-curvature="0" />
      </g>
      <g
         transform="matrix(2.1879865,0,0,2.0847421,518.9647,415.08151)"
         id="g3320"
         style="fill:#ff00ff">
        <path
           id="path3322"
           style="fill:#ff00ff;fill-opacity:1;fill-rule:nonzero;stroke:none"
           d="M 0,0 C 0,0 -21.646,47.626 -1.44,50.514 20.071,53.59 4.907,13.565 0,0"
           inkscape:connector-curvature="0" />
      </g>
      <g
         transform="matrix(2.1879865,0,0,2.0847421,556.23092,404.8523)"
         id="g3324">
        <path
           id="path3326"
           style="fill:#ff00ff;fill-opacity:1;fill-rule:nonzero;stroke:none"
           d="M 0,0 C 0,0 7.318,39.308 22.801,30.309 35.214,23.092 6.927,4.041 0,0"
           inkscape:connector-curvature="0" />
      </g>
      <g
         transform="matrix(2.1879865,0,0,2.0847421,598.84109,375.76662)"
         id="g3328"
         style="fill:#ff00ff">
        <path
           id="path3330"
           style="fill:#ff00ff;fill-opacity:1;fill-rule:nonzero;stroke:none"
           d="M 0,0 C 0,0 20.858,24.064 27.194,12.629 33.531,1.198 0,0 0,0"
           inkscape:connector-curvature="0" />
      </g>
      <path
         inkscape:connector-curvature="0"
         d="m 462.12409,406.65498 c 0,0 34.10196,9.63359 52.42197,-28.2837 0,0 10.96181,22.65281 34.74304,22.26922 37.25265,-0.60249 75.15077,-33.10154 46.73101,-122.76004 -19.21708,-60.64098 -39.15839,-135.99815 3.15945,-179.927836 0,0 -23.36769,16.250566 -29.05208,52.952446 -5.68658,36.70814 19.81659,137.43454 23.36113,173.90919 5.69095,58.37069 -68.20173,92.67304 -75.15515,-5.41199 0,0 4.42849,72.80753 -50.52498,75.82207 l -5.68439,11.43064 z"
         style="fill:#00a0c6;fill-opacity:1;fill-rule:nonzero;stroke:none"
         id="path3334" />
      <g
         transform="matrix(2.1879865,0,0,2.0847421,572.64936,365.13943)"
         id="g3336"
         style="fill:#ff00ff">
        <path
           id="path3338"
           style="fill:#ff00ff;fill-opacity:1;fill-rule:nonzero;stroke:none"
           d="m 0,0 c 3.35,-3.35 3.35,-8.775 0,-12.125 -3.347,-3.345 -8.772,-3.345 -12.122,0.002 -3.347,3.348 -3.347,8.773 0,12.122 C -8.772,3.347 -3.347,3.347 0,0"
           inkscape:connector-curvature="0" />
      </g>
      <g
         transform="matrix(2.1879865,0,0,2.0847421,645.34434,299.10147)"
         id="g3340">
        <path
           id="path3342"
           style="fill:#00a0c6;fill-opacity:1;fill-rule:nonzero;stroke:none"
           d="M 0,0 C 0,0 12.699,30.018 29.15,27.998 45.604,25.979 49.935,4.906 49.935,4.906 c 0,0 13.858,6.926 22.514,-1.733 8.661,-8.658 4.044,-23.091 4.044,-23.091 0,0 12.413,0.866 15.299,-8.948 2.884,-9.815 -13.279,-21.938 -13.279,-21.938 0,0 11.545,13.279 4.33,20.496 -7.216,7.215 -16.743,2.885 -16.743,2.885 0,0 8.661,14.432 -1.732,23.67 -10.39,9.235 -20.492,-8.949 -20.492,-8.949 0,0 2.886,23.094 -15.012,25.403 C 10.968,15.008 0,0 0,0"
           inkscape:connector-curvature="0" />
      </g>
      <g
         transform="matrix(2.1879865,0,0,2.0847421,616.28941,112.54979)"
         id="g3344">
        <path
           id="path3346"
           style="fill:#00a0c6;fill-opacity:1;fill-rule:nonzero;stroke:none"
           d="m 0,0 c 0,0 -5.198,36.374 2.309,58.309 7.506,21.937 26.267,31.464 37.523,23.67 11.26,-7.794 0.58,-21.361 0.58,-21.361 0,0 14.718,15.876 26.265,8.948 11.548,-6.926 -3.463,-24.823 -3.463,-24.823 0,0 11.545,7.502 19.052,-1.734 7.506,-9.236 -30.6,-50.8 -78.803,-45.316 0,0 35.266,3.078 49.937,14.141 18.763,14.145 15.874,27.426 0.867,25.692 0,0 11.258,8.371 0.865,18.763 -10.393,10.39 -20.206,-1.733 -20.206,-1.733 0,0 6.349,12.703 -5.773,18.474 C 17.031,78.803 -4.907,47.628 0,0"
           inkscape:connector-curvature="0" />
      </g>
      <g
         transform="matrix(2.1879865,0,0,2.0847421,641.54971,146.2486)"
         id="g3348"
         style="fill:#ff00ff">
        <path
           id="path3350"
           style="fill:#ff00ff;fill-opacity:1;fill-rule:nonzero;stroke:none"
           d="M 0,0 C 0,0 -5.772,43.299 5.197,43.299 16.165,43.299 0,0 0,0"
           inkscape:connector-curvature="0" />
      </g>
      <g
         transform="matrix(2.1879865,0,0,2.0847421,664.9209,154.07451)"
         id="g3352"
         style="fill:#ff00ff">
        <path
           id="path3354"
           style="fill:#ff00ff;fill-opacity:1;fill-rule:nonzero;stroke:none"
           d="M 0,0 C 0,0 13.276,33.482 21.358,25.401 29.442,17.318 0,0 0,0"
           inkscape:connector-curvature="0" />
      </g>
      <g
         transform="matrix(2.1879865,0,0,2.0847421,676.7391,136.21683)"
         id="g3356"
         style="fill:#ff00ff">
        <path
           id="path3358"
           style="fill:#ff00ff;fill-opacity:1;fill-rule:nonzero;stroke:none"
           d="M 0,0 C 0,0 19.915,18.759 23.67,12.699 27.425,6.638 0,0 0,0"
           inkscape:connector-curvature="0" />
      </g>
      <g
         transform="matrix(2.1879865,0,0,2.0847421,501.26848,127.26307)"
         id="g3360"
         style="fill:#ff00ff">
        <path
           id="path3362"
           style="fill:#ff00ff;fill-opacity:1;fill-rule:nonzero;stroke:none"
           d="m 0,0 c -2.485,-5.526 -1.601,-13.499 23.217,-24.935 17.06,-7.86 54.765,-1.001 54.765,-1.001 0,0 -28.81,4.156 -43.779,15.883 C 19.23,1.671 4.846,10.801 0,0"
           inkscape:connector-curvature="0" />
      </g>
      <g
         transform="matrix(2.1879865,0,0,2.0847421,492.03803,151.51237)"
         id="g3364"
         style="fill:#ff00ff">
        <path
           id="path3366"
           style="fill:#ff00ff;fill-opacity:1;fill-rule:nonzero;stroke:none"
           d="m 0,0 c 3.138,-2.609 3.569,-7.272 0.964,-10.411 -2.609,-3.141 -7.272,-3.572 -10.415,-0.964 -3.143,2.606 -3.571,7.272 -0.964,10.413 C -7.807,2.177 -3.144,2.608 0,0"
           inkscape:connector-curvature="0" />
      </g>
      <g
         transform="matrix(2.1879865,0,0,2.0847421,443.86382,165.08758)"
         id="g3368">
        <path
           id="path3370"
           style="fill:#00a0c6;fill-opacity:1;fill-rule:nonzero;stroke:none"
           d="m 0,0 c 0,0 -62.74,35.179 -55.133,58.02 3.237,9.713 12.321,-4.271 3.263,-5.178 0,0 -0.453,-18.117 51.87,-52.842"
           inkscape:connector-curvature="0" />
      </g>
      <g
         transform="matrix(2.1879865,0,0,2.0847421,441.85305,148.25912)"
         id="g3372">
        <path
           id="path3374"
           style="fill:#00a0c6;fill-opacity:1;fill-rule:nonzero;stroke:none"
           d="m 0,0 c 0,0 -25.452,2.808 -47.104,24.456 -20.378,20.381 -23.849,35.285 -19.232,38.172 4.615,2.887 10.103,-5.485 2.021,-6.062 0,0 7.93,-38.224 64.315,-56.566"
           inkscape:connector-curvature="0" />
      </g>
      <g
         transform="matrix(2.1879865,0,0,2.0847421,501.33478,163.28783)"
         id="g3376">
        <path
           id="path3378"
           style="fill:#00a0c6;fill-opacity:1;fill-rule:nonzero;stroke:none"
           d="m 0,0 c 0,0 -82.948,60.514 -101.605,126.431 -17.32,61.194 7.792,88.039 16.452,89.77 8.661,1.732 14.144,-8.372 7.217,-18.186 -6.926,-9.815 -22.226,-62.061 5.773,-107.38 C -44.164,45.317 0,0 0,0"
           inkscape:connector-curvature="0" />
      </g>
      <g
         transform="matrix(2.1879865,0,0,2.0847421,503.23001,167.49608)"
         id="g3380">
        <path
           id="path3382"
           style="fill:#00a0c6;fill-opacity:1;fill-rule:nonzero;stroke:none"
           d="m 0,0 c 0,0 -59.75,73.031 -71.298,103.05 -11.547,30.021 -14.433,88.328 28.576,91.505 l -1.154,-4.043 c 0,0 -26.845,0.288 -30.308,-35.506 -3.463,-35.79 13.857,-65.232 22.227,-78.798 C -43.585,62.638 0,0 0,0"
           inkscape:connector-curvature="0" />
      </g>
      <g
         transform="matrix(2.1879865,0,0,2.0847421,377.2777,430.07998)"
         id="g3384"
         style="fill:#ff00ff">
        <path
           id="path3386"
           style="fill:#ff00ff;fill-opacity:1;fill-rule:nonzero;stroke:none"
           d="M 0,0 C 0,0 -21.645,47.629 -1.44,50.516 20.071,53.591 4.909,13.566 0,0"
           inkscape:connector-curvature="0" />
      </g>
    </g>
  </g>
</svg>
