<?xml version="1.0" encoding="UTF-8" standalone="no"?>
<!-- Created with Inkscape (http://www.inkscape.org/) -->

<svg
   xmlns:dc="http://purl.org/dc/elements/1.1/"
   xmlns:cc="http://creativecommons.org/ns#"
   xmlns:rdf="http://www.w3.org/1999/02/22-rdf-syntax-ns#"
   xmlns:svg="http://www.w3.org/2000/svg"
   xmlns="http://www.w3.org/2000/svg"
   version="1.1"
   width="648"
   height="432"
   id="svg4500">
  <defs
     id="defs4502" />
  <metadata
     id="metadata4505">
    <rdf:RDF>
      <cc:Work
         rdf:about="">
        <dc:format>image/svg+xml</dc:format>
        <dc:type
           rdf:resource="http://purl.org/dc/dcmitype/StillImage" />
        <dc:title></dc:title>
      </cc:Work>
    </rdf:RDF>
  </metadata>
  <g
     transform="translate(0,-620.36)"
     id="layer1"
     style="display:none">
    <g
       id="g3119">
      <path
         d="M 118.8,54 A 59.400002,54 0 1 1 0,54 59.400002,54 0 1 1 118.8,54 z"
         transform="matrix(0.90909089,0,0,1,-2.5316263e-7,188.36)"
         id="path2991"
         style="fill:#393939;fill-opacity:1" />
      <path
         d="M 118.8,54 A 59.400002,54 0 1 1 0,54 59.400002,54 0 1 1 118.8,54 z"
         transform="matrix(0.90909089,0,0,1,-2.5316263e-7,425.96)"
         id="path2993"
         style="fill:#393939;fill-opacity:1" />
      <path
         d="M 118.8,54 A 59.400002,54 0 1 1 0,54 59.400002,54 0 1 1 118.8,54 z"
         transform="matrix(0.90909089,0,0,1,-5.0632524e-7,307.16)"
         id="path2995"
         style="fill:#393939;fill-opacity:1" />
      <path
         d="M 118.8,54 A 59.400002,54 0 1 1 0,54 59.400002,54 0 1 1 118.8,54 z"
         transform="matrix(0.90909089,0,0,1,-5.0632524e-7,544.76)"
         id="path2997"
         style="fill:#393939;fill-opacity:1" />
      <path
         d="M 118.8,54 A 59.400002,54 0 1 1 0,54 59.400002,54 0 1 1 118.8,54 z"
         transform="matrix(0.90909089,0,0,1,-2.5316263e-7,663.56)"
         id="path2999"
         style="fill:#393939;fill-opacity:1" />
      <path
         d="M 118.8,54 A 59.400002,54 0 1 1 0,54 59.400002,54 0 1 1 118.8,54 z"
         transform="matrix(0.90909089,0,0,1,-2.5316262e-7,782.36)"
         id="path3001"
         style="fill:#393939;fill-opacity:1" />
      <path
         d="M 118.8,54 A 59.400002,54 0 1 1 0,54 59.400002,54 0 1 1 118.8,54 z"
         transform="matrix(0.90909089,0,0,1,324,188.36)"
         id="path3003"
         style="fill:#393939;fill-opacity:1" />
      <path
         d="M 118.8,54 A 59.400002,54 0 1 1 0,54 59.400002,54 0 1 1 118.8,54 z"
         transform="matrix(0.90909089,0,0,1,324,425.96)"
         id="path3005"
         style="fill:#393939;fill-opacity:1" />
      <path
         d="M 118.8,54 A 59.400002,54 0 1 1 0,54 59.400002,54 0 1 1 118.8,54 z"
         transform="matrix(0.90909089,0,0,1,324,307.16)"
         id="path3007"
         style="fill:#393939;fill-opacity:1" />
      <path
         d="M 118.8,54 A 59.400002,54 0 1 1 0,54 59.400002,54 0 1 1 118.8,54 z"
         transform="matrix(0.90909089,0,0,1,324,544.76)"
         id="path3009"
         style="fill:#393939;fill-opacity:1" />
      <path
         d="M 118.8,54 A 59.400002,54 0 1 1 0,54 59.400002,54 0 1 1 118.8,54 z"
         transform="matrix(0.90909089,0,0,1,324,663.56)"
         id="path3011"
         style="fill:#393939;fill-opacity:1" />
      <path
         d="M 118.8,54 A 59.400002,54 0 1 1 0,54 59.400002,54 0 1 1 118.8,54 z"
         transform="matrix(0.90909089,0,0,1,324,782.36)"
         id="path3013"
         style="fill:#393939;fill-opacity:1" />
      <path
         d="M 118.8,54 A 59.400002,54 0 1 1 0,54 59.400002,54 0 1 1 118.8,54 z"
         transform="matrix(0.90909089,0,0,1,162,188.36)"
         id="path3015"
         style="fill:#393939;fill-opacity:1" />
      <path
         d="M 118.8,54 A 59.400002,54 0 1 1 0,54 59.400002,54 0 1 1 118.8,54 z"
         transform="matrix(0.90909089,0,0,1,162,425.96)"
         id="path3017"
         style="fill:#393939;fill-opacity:1" />
      <path
         d="M 118.8,54 A 59.400002,54 0 1 1 0,54 59.400002,54 0 1 1 118.8,54 z"
         transform="matrix(0.90909089,0,0,1,162,307.16)"
         id="path3019"
         style="fill:#393939;fill-opacity:1" />
      <path
         d="M 118.8,54 A 59.400002,54 0 1 1 0,54 59.400002,54 0 1 1 118.8,54 z"
         transform="matrix(0.90909089,0,0,1,162,544.76)"
         id="path3021"
         style="fill:#393939;fill-opacity:1" />
      <path
         d="M 118.8,54 A 59.400002,54 0 1 1 0,54 59.400002,54 0 1 1 118.8,54 z"
         transform="matrix(0.90909089,0,0,1,162,663.56)"
         id="path3023"
         style="fill:#393939;fill-opacity:1" />
      <path
         d="M 118.8,54 A 59.400002,54 0 1 1 0,54 59.400002,54 0 1 1 118.8,54 z"
         transform="matrix(0.90909089,0,0,1,162,782.36)"
         id="path3025"
         style="fill:#393939;fill-opacity:1" />
      <path
         d="M 118.8,54 A 59.400002,54 0 1 1 0,54 59.400002,54 0 1 1 118.8,54 z"
         transform="matrix(0.90909089,0,0,1,-2.5316262e-7,901.16)"
         id="path3001-1"
         style="fill:#393939;fill-opacity:1" />
      <path
         d="M 118.8,54 A 59.400002,54 0 1 1 0,54 59.400002,54 0 1 1 118.8,54 z"
         transform="matrix(0.90909089,0,0,1,162,901.16)"
         id="path3045"
         style="fill:#393939;fill-opacity:1" />
      <path
         d="M 118.8,54 A 59.400002,54 0 1 1 0,54 59.400002,54 0 1 1 118.8,54 z"
         transform="matrix(0.90909089,0,0,1,324,901.16)"
         id="path3047"
         style="fill:#393939;fill-opacity:1" />
      <path
         d="M 118.8,54 A 59.400002,54 0 1 1 0,54 59.400002,54 0 1 1 118.8,54 z"
         transform="matrix(0.90909089,0,0,1,486,188.36)"
         id="path3049"
         style="fill:#393939;fill-opacity:1" />
      <path
         d="M 118.8,54 A 59.400002,54 0 1 1 0,54 59.400002,54 0 1 1 118.8,54 z"
         transform="matrix(0.90909089,0,0,1,486,425.96)"
         id="path3051"
         style="fill:#393939;fill-opacity:1" />
      <path
         d="M 118.8,54 A 59.400002,54 0 1 1 0,54 59.400002,54 0 1 1 118.8,54 z"
         transform="matrix(0.90909089,0,0,1,486,307.16)"
         id="path3053"
         style="fill:#393939;fill-opacity:1" />
      <path
         d="M 118.8,54 A 59.400002,54 0 1 1 0,54 59.400002,54 0 1 1 118.8,54 z"
         transform="matrix(0.90909089,0,0,1,486,544.76)"
         id="path3055"
         style="fill:#393939;fill-opacity:1" />
      <path
         d="M 118.8,54 A 59.400002,54 0 1 1 0,54 59.400002,54 0 1 1 118.8,54 z"
         transform="matrix(0.90909089,0,0,1,486,663.56)"
         id="path3057"
         style="fill:#393939;fill-opacity:1" />
      <path
         d="M 118.8,54 A 59.400002,54 0 1 1 0,54 59.400002,54 0 1 1 118.8,54 z"
         transform="matrix(0.90909089,0,0,1,486,782.36)"
         id="path3059"
         style="fill:#393939;fill-opacity:1" />
      <path
         d="M 118.8,54 A 59.400002,54 0 1 1 0,54 59.400002,54 0 1 1 118.8,54 z"
         transform="matrix(0.90909089,0,0,1,810,188.36)"
         id="path3061"
         style="fill:#393939;fill-opacity:1" />
      <path
         d="M 118.8,54 A 59.400002,54 0 1 1 0,54 59.400002,54 0 1 1 118.8,54 z"
         transform="matrix(0.90909089,0,0,1,810,425.96)"
         id="path3063"
         style="fill:#393939;fill-opacity:1" />
      <path
         d="M 118.8,54 A 59.400002,54 0 1 1 0,54 59.400002,54 0 1 1 118.8,54 z"
         transform="matrix(0.90909089,0,0,1,810,307.16)"
         id="path3065"
         style="fill:#393939;fill-opacity:1" />
      <path
         d="M 118.8,54 A 59.400002,54 0 1 1 0,54 59.400002,54 0 1 1 118.8,54 z"
         transform="matrix(0.90909089,0,0,1,810,544.76)"
         id="path3067"
         style="fill:#393939;fill-opacity:1" />
      <path
         d="M 118.8,54 A 59.400002,54 0 1 1 0,54 59.400002,54 0 1 1 118.8,54 z"
         transform="matrix(0.90909089,0,0,1,810,663.56)"
         id="path3069"
         style="fill:#393939;fill-opacity:1" />
      <path
         d="M 118.8,54 A 59.400002,54 0 1 1 0,54 59.400002,54 0 1 1 118.8,54 z"
         transform="matrix(0.90909089,0,0,1,810,782.36)"
         id="path3071"
         style="fill:#393939;fill-opacity:1" />
      <path
         d="M 118.8,54 A 59.400002,54 0 1 1 0,54 59.400002,54 0 1 1 118.8,54 z"
         transform="matrix(0.90909089,0,0,1,648,188.36)"
         id="path3073"
         style="fill:#393939;fill-opacity:1" />
      <path
         d="M 118.8,54 A 59.400002,54 0 1 1 0,54 59.400002,54 0 1 1 118.8,54 z"
         transform="matrix(0.90909089,0,0,1,648,425.96)"
         id="path3075"
         style="fill:#393939;fill-opacity:1" />
      <path
         d="M 118.8,54 A 59.400002,54 0 1 1 0,54 59.400002,54 0 1 1 118.8,54 z"
         transform="matrix(0.90909089,0,0,1,648,307.16)"
         id="path3077"
         style="fill:#393939;fill-opacity:1" />
      <path
         d="M 118.8,54 A 59.400002,54 0 1 1 0,54 59.400002,54 0 1 1 118.8,54 z"
         transform="matrix(0.90909089,0,0,1,648,544.76)"
         id="path3079"
         style="fill:#393939;fill-opacity:1" />
      <path
         d="M 118.8,54 A 59.400002,54 0 1 1 0,54 59.400002,54 0 1 1 118.8,54 z"
         transform="matrix(0.90909089,0,0,1,648,663.56)"
         id="path3081"
         style="fill:#393939;fill-opacity:1" />
      <path
         d="M 118.8,54 A 59.400002,54 0 1 1 0,54 59.400002,54 0 1 1 118.8,54 z"
         transform="matrix(0.90909089,0,0,1,648,782.36)"
         id="path3083"
         style="fill:#393939;fill-opacity:1" />
      <path
         d="M 118.8,54 A 59.400002,54 0 1 1 0,54 59.400002,54 0 1 1 118.8,54 z"
         transform="matrix(0.90909089,0,0,1,486,901.16)"
         id="path3085"
         style="fill:#393939;fill-opacity:1" />
      <path
         d="M 118.8,54 A 59.400002,54 0 1 1 0,54 59.400002,54 0 1 1 118.8,54 z"
         transform="matrix(0.90909089,0,0,1,648,901.16)"
         id="path3087"
         style="fill:#393939;fill-opacity:1" />
      <path
         d="M 118.8,54 A 59.400002,54 0 1 1 0,54 59.400002,54 0 1 1 118.8,54 z"
         transform="matrix(0.90909089,0,0,1,810,901.16)"
         id="path3089"
         style="fill:#393939;fill-opacity:1" />
      <path
         d="M 118.8,54 A 59.400002,54 0 1 1 0,54 59.400002,54 0 1 1 118.8,54 z"
         transform="matrix(0.90909089,0,0,1,1134,188.36)"
         id="path3091"
         style="fill:#393939;fill-opacity:1" />
      <path
         d="M 118.8,54 A 59.400002,54 0 1 1 0,54 59.400002,54 0 1 1 118.8,54 z"
         transform="matrix(0.90909089,0,0,1,1134,425.96)"
         id="path3093"
         style="fill:#393939;fill-opacity:1" />
      <path
         d="M 118.8,54 A 59.400002,54 0 1 1 0,54 59.400002,54 0 1 1 118.8,54 z"
         transform="matrix(0.90909089,0,0,1,1134,307.16)"
         id="path3095"
         style="fill:#393939;fill-opacity:1" />
      <path
         d="M 118.8,54 A 59.400002,54 0 1 1 0,54 59.400002,54 0 1 1 118.8,54 z"
         transform="matrix(0.90909089,0,0,1,1134,544.76)"
         id="path3097"
         style="fill:#393939;fill-opacity:1" />
      <path
         d="M 118.8,54 A 59.400002,54 0 1 1 0,54 59.400002,54 0 1 1 118.8,54 z"
         transform="matrix(0.90909089,0,0,1,1134,663.56)"
         id="path3099"
         style="fill:#393939;fill-opacity:1" />
      <path
         d="M 118.8,54 A 59.400002,54 0 1 1 0,54 59.400002,54 0 1 1 118.8,54 z"
         transform="matrix(0.90909089,0,0,1,1134,782.36)"
         id="path3101"
         style="fill:#393939;fill-opacity:1" />
      <path
         d="M 118.8,54 A 59.400002,54 0 1 1 0,54 59.400002,54 0 1 1 118.8,54 z"
         transform="matrix(0.90909089,0,0,1,972,188.36)"
         id="path3103"
         style="fill:#393939;fill-opacity:1" />
      <path
         d="M 118.8,54 A 59.400002,54 0 1 1 0,54 59.400002,54 0 1 1 118.8,54 z"
         transform="matrix(0.90909089,0,0,1,972,425.96)"
         id="path3105"
         style="fill:#393939;fill-opacity:1" />
      <path
         d="M 118.8,54 A 59.400002,54 0 1 1 0,54 59.400002,54 0 1 1 118.8,54 z"
         transform="matrix(0.90909089,0,0,1,972,307.16)"
         id="path3107"
         style="fill:#393939;fill-opacity:1" />
      <path
         d="M 118.8,54 A 59.400002,54 0 1 1 0,54 59.400002,54 0 1 1 118.8,54 z"
         transform="matrix(0.90909089,0,0,1,972,544.76)"
         id="path3109"
         style="fill:#393939;fill-opacity:1" />
      <path
         d="M 118.8,54 A 59.400002,54 0 1 1 0,54 59.400002,54 0 1 1 118.8,54 z"
         transform="matrix(0.90909089,0,0,1,972,663.56)"
         id="path3111"
         style="fill:#393939;fill-opacity:1" />
      <path
         d="M 118.8,54 A 59.400002,54 0 1 1 0,54 59.400002,54 0 1 1 118.8,54 z"
         transform="matrix(0.90909089,0,0,1,972,782.36)"
         id="path3113"
         style="fill:#393939;fill-opacity:1" />
      <path
         d="M 118.8,54 A 59.400002,54 0 1 1 0,54 59.400002,54 0 1 1 118.8,54 z"
         transform="matrix(0.90909089,0,0,1,972,901.16)"
         id="path3115"
         style="fill:#393939;fill-opacity:1" />
      <path
         d="M 118.8,54 A 59.400002,54 0 1 1 0,54 59.400002,54 0 1 1 118.8,54 z"
         transform="matrix(0.90909089,0,0,1,1134,901.16)"
         id="path3117"
         style="fill:#393939;fill-opacity:1" />
    </g>
  </g>
  <g
     transform="translate(0,-432)"
     id="layer2" />
  <path
     d="M 118.8,54 A 59.400002,54 0 1 1 0,54 59.400002,54 0 1 1 118.8,54 z"
     transform="matrix(0.38181004,0,0,0.41999105,0,0.2605043)"
     id="path4075"
     style="opacity:0.97000002;fill:#393939;fill-opacity:1;display:inline" />
  <path
     d="M 118.8,54 A 59.400002,54 0 1 1 0,54 59.400002,54 0 1 1 118.8,54 z"
     transform="matrix(0.38181004,0,0,0.41999105,0,90.978574)"
     id="path4077"
     style="opacity:0.97000002;fill:#393939;fill-opacity:1;display:inline" />
  <path
     d="M 118.8,54 A 59.400002,54 0 1 1 0,54 59.400002,54 0 1 1 118.8,54 z"
     transform="matrix(0.38181004,0,0,0.41999105,45.359035,45.619539)"
     id="path4079"
     style="opacity:0.97000002;fill:#393939;fill-opacity:1;display:inline" />
  <path
     d="M 118.8,54 A 59.400002,54 0 1 1 0,54 59.400002,54 0 1 1 118.8,54 z"
     transform="matrix(0.38181004,0,0,0.41999105,181.43612,90.978574)"
     id="path4087"
     style="opacity:0.97000002;fill:#393939;fill-opacity:1;display:inline" />
  <path
     d="M 118.8,54 A 59.400002,54 0 1 1 0,54 59.400002,54 0 1 1 118.8,54 z"
     transform="matrix(0.38181004,0,0,0.41999105,90.71807,90.978574)"
     id="path4089"
     style="opacity:0.97000002;fill:#393939;fill-opacity:1;display:inline" />
  <path
     d="M 118.8,54 A 59.400002,54 0 1 1 0,54 59.400002,54 0 1 1 118.8,54 z"
     transform="matrix(0.38181004,0,0,0.41999105,272.1542,90.978574)"
     id="path4091"
     style="opacity:0.97000002;fill:#393939;fill-opacity:1;display:inline" />
  <path
     d="M 118.8,54 A 59.400002,54 0 1 1 0,54 59.400002,54 0 1 1 118.8,54 z"
     transform="matrix(0.38181004,0,0,0.41999105,90.71807,0.2605043)"
     id="path4099"
     style="opacity:0.97000002;fill:#393939;fill-opacity:1;display:inline" />
  <path
     d="M 118.8,54 A 59.400002,54 0 1 1 0,54 59.400002,54 0 1 1 118.8,54 z"
     transform="matrix(0.38181004,0,0,0.41999105,136.0771,45.619539)"
     id="path4103"
     style="opacity:0.97000002;fill:#393939;fill-opacity:1;display:inline" />
  <path
     d="M 118.8,54 A 59.400002,54 0 1 1 0,54 59.400002,54 0 1 1 118.8,54 z"
     transform="matrix(0.38181004,0,0,0.41999105,181.43612,0.2605043)"
     id="path4117"
     style="opacity:0.97000002;fill:#393939;fill-opacity:1;display:inline" />
  <path
     d="M 118.8,54 A 59.400002,54 0 1 1 0,54 59.400002,54 0 1 1 118.8,54 z"
     transform="matrix(0.38181004,0,0,0.41999105,226.79517,45.619539)"
     id="path4121"
     style="opacity:0.97000002;fill:#393939;fill-opacity:1;display:inline" />
  <path
     d="M 118.8,54 A 59.400002,54 0 1 1 0,54 59.400002,54 0 1 1 118.8,54 z"
     transform="matrix(0.38181004,0,0,0.41999105,362.87226,0.2605043)"
     id="path4129"
     style="opacity:0.97000002;fill:#393939;fill-opacity:1;display:inline" />
  <path
     d="M 118.8,54 A 59.400002,54 0 1 1 0,54 59.400002,54 0 1 1 118.8,54 z"
     transform="matrix(0.38181004,0,0,0.41999105,362.87226,90.978574)"
     id="path4131"
     style="opacity:0.97000002;fill:#393939;fill-opacity:1;display:inline" />
  <path
     d="M 118.8,54 A 59.400002,54 0 1 1 0,54 59.400002,54 0 1 1 118.8,54 z"
     transform="matrix(0.38181004,0,0,0.41999105,317.51323,45.619539)"
     id="path4133"
     style="opacity:0.97000002;fill:#393939;fill-opacity:1;display:inline" />
  <path
     d="M 118.8,54 A 59.400002,54 0 1 1 0,54 59.400002,54 0 1 1 118.8,54 z"
     transform="matrix(0.38181004,0,0,0.41999105,272.1542,0.2605043)"
     id="path4141"
     style="opacity:0.97000002;fill:#393939;fill-opacity:1;display:inline" />
  <path
     d="M 118.8,54 A 59.400002,54 0 1 1 0,54 59.400002,54 0 1 1 118.8,54 z"
     transform="matrix(0.38181004,0,0,0.41999105,453.59033,90.978574)"
     id="path4161"
     style="opacity:0.97000002;fill:#393939;fill-opacity:1;display:inline" />
  <path
     d="M 118.8,54 A 59.400002,54 0 1 1 0,54 59.400002,54 0 1 1 118.8,54 z"
     transform="matrix(0.38181004,0,0,0.41999105,498.94936,45.619539)"
     id="path4163"
     style="opacity:0.97000002;fill:#393939;fill-opacity:1;display:inline" />
  <path
     d="M 118.8,54 A 59.400002,54 0 1 1 0,54 59.400002,54 0 1 1 118.8,54 z"
     transform="matrix(0.38181004,0,0,0.41999105,453.59033,0.2605043)"
     id="path4171"
     style="opacity:0.97000002;fill:#393939;fill-opacity:1;display:inline" />
  <path
     d="M 118.8,54 A 59.400002,54 0 1 1 0,54 59.400002,54 0 1 1 118.8,54 z"
     transform="matrix(0.38181004,0,0,0.41999105,408.23129,45.619539)"
     id="path4175"
     style="opacity:0.97000002;fill:#393939;fill-opacity:1;display:inline" />
  <path
     d="M 118.8,54 A 59.400002,54 0 1 1 0,54 59.400002,54 0 1 1 118.8,54 z"
     transform="matrix(0.38181004,0,0,0.41999105,0,182.53663)"
     id="path4269"
     style="opacity:0.97000002;fill:#393939;fill-opacity:1;display:inline" />
  <path
     d="M 118.8,54 A 59.400002,54 0 1 1 0,54 59.400002,54 0 1 1 118.8,54 z"
     transform="matrix(0.38181004,0,0,0.41999105,45.359035,137.1776)"
     id="path4271"
     style="opacity:0.97000002;fill:#393939;fill-opacity:1;display:inline" />
  <path
     d="M 118.8,54 A 59.400002,54 0 1 1 0,54 59.400002,54 0 1 1 118.8,54 z"
     transform="matrix(0.38181004,0,0,0.41999105,181.43612,182.53663)"
     id="path4273"
     style="opacity:0.97000002;fill:#393939;fill-opacity:1;display:inline" />
  <path
     d="M 118.8,54 A 59.400002,54 0 1 1 0,54 59.400002,54 0 1 1 118.8,54 z"
     transform="matrix(0.38181004,0,0,0.41999105,90.71807,182.53663)"
     id="path4275"
     style="opacity:0.97000002;fill:#393939;fill-opacity:1;display:inline" />
  <path
     d="M 118.8,54 A 59.400002,54 0 1 1 0,54 59.400002,54 0 1 1 118.8,54 z"
     transform="matrix(0.38181004,0,0,0.41999105,272.1542,182.53663)"
     id="path4277"
     style="opacity:0.97000002;fill:#393939;fill-opacity:1;display:inline" />
  <path
     d="M 118.8,54 A 59.400002,54 0 1 1 0,54 59.400002,54 0 1 1 118.8,54 z"
     transform="matrix(0.38181004,0,0,0.41999105,136.0771,137.1776)"
     id="path4279"
     style="opacity:0.97000002;fill:#393939;fill-opacity:1;display:inline" />
  <path
     d="M 118.8,54 A 59.400002,54 0 1 1 0,54 59.400002,54 0 1 1 118.8,54 z"
     transform="matrix(0.38181004,0,0,0.41999105,226.79517,137.1776)"
     id="path4281"
     style="opacity:0.97000002;fill:#393939;fill-opacity:1;display:inline" />
  <path
     d="M 118.8,54 A 59.400002,54 0 1 1 0,54 59.400002,54 0 1 1 118.8,54 z"
     transform="matrix(0.38181004,0,0,0.41999105,362.87226,182.53663)"
     id="path4283"
     style="opacity:0.97000002;fill:#393939;fill-opacity:1;display:inline" />
  <path
     d="M 118.8,54 A 59.400002,54 0 1 1 0,54 59.400002,54 0 1 1 118.8,54 z"
     transform="matrix(0.38181004,0,0,0.41999105,317.51323,137.1776)"
     id="path4285"
     style="opacity:0.97000002;fill:#393939;fill-opacity:1;display:inline" />
  <path
     d="M 118.8,54 A 59.400002,54 0 1 1 0,54 59.400002,54 0 1 1 118.8,54 z"
     transform="matrix(0.38181004,0,0,0.41999105,453.59033,182.53663)"
     id="path4287"
     style="opacity:0.97000002;fill:#393939;fill-opacity:1;display:inline" />
  <path
     d="M 118.8,54 A 59.400002,54 0 1 1 0,54 59.400002,54 0 1 1 118.8,54 z"
     transform="matrix(0.38181004,0,0,0.41999105,498.94936,137.1776)"
     id="path4289"
     style="opacity:0.97000002;fill:#393939;fill-opacity:1;display:inline" />
  <path
     d="M 118.8,54 A 59.400002,54 0 1 1 0,54 59.400002,54 0 1 1 118.8,54 z"
     transform="matrix(0.38181004,0,0,0.41999105,408.23129,137.1776)"
     id="path4291"
     style="opacity:0.97000002;fill:#393939;fill-opacity:1;display:inline" />
  <path
     d="M 118.8,54 A 59.400002,54 0 1 1 0,54 59.400002,54 0 1 1 118.8,54 z"
     transform="matrix(0.38181004,0,0,0.41999105,45.359035,227.05568)"
     id="path4293"
     style="opacity:0.97000002;fill:#393939;fill-opacity:1;display:inline" />
  <path
     d="M 118.8,54 A 59.400002,54 0 1 1 0,54 59.400002,54 0 1 1 118.8,54 z"
     transform="matrix(0.38181004,0,0,0.41999105,181.43612,272.41471)"
     id="path4295"
     style="opacity:0.97000002;fill:#393939;fill-opacity:1;display:inline" />
  <path
     d="M 118.8,54 A 59.400002,54 0 1 1 0,54 59.400002,54 0 1 1 118.8,54 z"
     transform="matrix(0.38181004,0,0,0.41999105,90.71807,272.41471)"
     id="path4297"
     style="opacity:0.97000002;fill:#393939;fill-opacity:1;display:inline" />
  <path
     d="M 118.8,54 A 59.400002,54 0 1 1 0,54 59.400002,54 0 1 1 118.8,54 z"
     transform="matrix(0.38181004,0,0,0.41999105,272.1542,272.41471)"
     id="path4299"
     style="opacity:0.97000002;fill:#393939;fill-opacity:1;display:inline" />
  <path
     d="M 118.8,54 A 59.400002,54 0 1 1 0,54 59.400002,54 0 1 1 118.8,54 z"
     transform="matrix(0.38181004,0,0,0.41999105,136.0771,227.05568)"
     id="path4301"
     style="opacity:0.97000002;fill:#393939;fill-opacity:1;display:inline" />
  <path
     d="M 118.8,54 A 59.400002,54 0 1 1 0,54 59.400002,54 0 1 1 118.8,54 z"
     transform="matrix(0.38181004,0,0,0.41999105,226.79517,227.05568)"
     id="path4303"
     style="opacity:0.97000002;fill:#393939;fill-opacity:1;display:inline" />
  <path
     d="M 118.8,54 A 59.400002,54 0 1 1 0,54 59.400002,54 0 1 1 118.8,54 z"
     transform="matrix(0.38181004,0,0,0.41999105,362.87226,272.41471)"
     id="path4305"
     style="opacity:0.97000002;fill:#393939;fill-opacity:1;display:inline" />
  <path
     d="M 118.8,54 A 59.400002,54 0 1 1 0,54 59.400002,54 0 1 1 118.8,54 z"
     transform="matrix(0.38181004,0,0,0.41999105,317.51323,227.05568)"
     id="path4307"
     style="opacity:0.97000002;fill:#393939;fill-opacity:1;display:inline" />
  <path
     d="M 118.8,54 A 59.400002,54 0 1 1 0,54 59.400002,54 0 1 1 118.8,54 z"
     transform="matrix(0.38181004,0,0,0.41999105,453.59033,272.41471)"
     id="path4309"
     style="opacity:0.97000002;fill:#393939;fill-opacity:1;display:inline" />
  <path
     d="M 118.8,54 A 59.400002,54 0 1 1 0,54 59.400002,54 0 1 1 118.8,54 z"
     transform="matrix(0.38181004,0,0,0.41999105,498.94936,227.05568)"
     id="path4311"
     style="opacity:0.97000002;fill:#393939;fill-opacity:1;display:inline" />
  <path
     d="M 118.8,54 A 59.400002,54 0 1 1 0,54 59.400002,54 0 1 1 118.8,54 z"
     transform="matrix(0.38181004,0,0,0.41999105,408.23129,227.05568)"
     id="path4313"
     style="opacity:0.97000002;fill:#393939;fill-opacity:1;display:inline" />
  <path
     d="M 118.8,54 A 59.400002,54 0 1 1 0,54 59.400002,54 0 1 1 118.8,54 z"
     transform="matrix(0.38181004,0,0,0.41999105,45.359035,318.61373)"
     id="path4315"
     style="opacity:0.97000002;fill:#393939;fill-opacity:1;display:inline" />
  <path
     d="M 118.8,54 A 59.400002,54 0 1 1 0,54 59.400002,54 0 1 1 118.8,54 z"
     transform="matrix(0.38181004,0,0,0.41999105,136.0771,318.61373)"
     id="path4317"
     style="opacity:0.97000002;fill:#393939;fill-opacity:1;display:inline" />
  <path
     d="M 118.8,54 A 59.400002,54 0 1 1 0,54 59.400002,54 0 1 1 118.8,54 z"
     transform="matrix(0.38181004,0,0,0.41999105,226.79517,318.61373)"
     id="path4319"
     style="opacity:0.97000002;fill:#393939;fill-opacity:1;display:inline" />
  <path
     d="M 118.8,54 A 59.400002,54 0 1 1 0,54 59.400002,54 0 1 1 118.8,54 z"
     transform="matrix(0.38181004,0,0,0.41999105,317.51323,318.61373)"
     id="path4321"
     style="opacity:0.97000002;fill:#393939;fill-opacity:1;display:inline" />
  <path
     d="M 118.8,54 A 59.400002,54 0 1 1 0,54 59.400002,54 0 1 1 118.8,54 z"
     transform="matrix(0.38181004,0,0,0.41999105,498.94936,318.61373)"
     id="path4323"
     style="opacity:0.97000002;fill:#393939;fill-opacity:1;display:inline" />
  <path
     d="M 118.8,54 A 59.400002,54 0 1 1 0,54 59.400002,54 0 1 1 118.8,54 z"
     transform="matrix(0.38181004,0,0,0.41999105,408.23129,318.61373)"
     id="path4325"
     style="opacity:0.97000002;fill:#393939;fill-opacity:1;display:inline" />
  <path
     d="M 118.8,54 A 59.400002,54 0 1 1 0,54 59.400002,54 0 1 1 118.8,54 z"
     transform="matrix(0.38181004,0,0,0.41999105,0,272.41471)"
     id="path4327"
     style="opacity:0.97000002;fill:#393939;fill-opacity:1;display:inline" />
  <path
     d="M 118.8,54 A 59.400002,54 0 1 1 0,54 59.400002,54 0 1 1 118.8,54 z"
     transform="matrix(0.38181004,0,0,0.41999105,544.30842,90.646817)"
     id="path4872"
     style="opacity:0.97000002;fill:#393939;fill-opacity:1;display:inline" />
  <path
     d="M 118.8,54 A 59.400002,54 0 1 1 0,54 59.400002,54 0 1 1 118.8,54 z"
     transform="matrix(0.38181004,0,0,0.41999105,589.66745,45.287782)"
     id="path4874"
     style="opacity:0.97000002;fill:#393939;fill-opacity:1;display:inline" />
  <path
     d="M 118.8,54 A 59.400002,54 0 1 1 0,54 59.400002,54 0 1 1 118.8,54 z"
     transform="matrix(0.38181004,0,0,0.41999105,544.30842,-0.07125336)"
     id="path4876"
     style="opacity:0.97000002;fill:#393939;fill-opacity:1;display:inline" />
  <path
     d="M 118.8,54 A 59.400002,54 0 1 1 0,54 59.400002,54 0 1 1 118.8,54 z"
     transform="matrix(0.38181004,0,0,0.41999105,544.30842,182.20487)"
     id="path4878"
     style="opacity:0.97000002;fill:#393939;fill-opacity:1;display:inline" />
  <path
     d="M 118.8,54 A 59.400002,54 0 1 1 0,54 59.400002,54 0 1 1 118.8,54 z"
     transform="matrix(0.38181004,0,0,0.41999105,589.66745,136.84583)"
     id="path4880"
     style="opacity:0.97000002;fill:#393939;fill-opacity:1;display:inline" />
  <path
     d="M 118.8,54 A 59.400002,54 0 1 1 0,54 59.400002,54 0 1 1 118.8,54 z"
     transform="matrix(0.38181004,0,0,0.41999105,544.30842,272.08295)"
     id="path4882"
     style="opacity:0.97000002;fill:#393939;fill-opacity:1;display:inline" />
  <path
     d="M 118.8,54 A 59.400002,54 0 1 1 0,54 59.400002,54 0 1 1 118.8,54 z"
     transform="matrix(0.38181004,0,0,0.41999105,589.66745,226.72392)"
     id="path4884"
     style="opacity:0.97000002;fill:#393939;fill-opacity:1;display:inline" />
  <path
     d="M 118.8,54 A 59.400002,54 0 1 1 0,54 59.400002,54 0 1 1 118.8,54 z"
     transform="matrix(0.38181004,0,0,0.41999105,589.66745,318.28197)"
     id="path4886"
     style="opacity:0.97000002;fill:#393939;fill-opacity:1;display:inline" />
  <path
     d="M 118.8,54 A 59.400002,54 0 1 1 0,54 59.400002,54 0 1 1 118.8,54 z"
     transform="matrix(0.38181004,0,0,0.41999105,181.43612,367.84294)"
     id="path4888"
     style="opacity:0.97000002;fill:#393939;fill-opacity:1;display:inline" />
  <path
     d="M 118.8,54 A 59.400002,54 0 1 1 0,54 59.400002,54 0 1 1 118.8,54 z"
     transform="matrix(0.38181004,0,0,0.41999105,90.71807,367.84294)"
     id="path4890"
     style="opacity:0.97000002;fill:#393939;fill-opacity:1;display:inline" />
  <path
     d="M 118.8,54 A 59.400002,54 0 1 1 0,54 59.400002,54 0 1 1 118.8,54 z"
     transform="matrix(0.38181004,0,0,0.41999105,272.1542,367.84294)"
     id="path4892"
     style="opacity:0.97000002;fill:#393939;fill-opacity:1;display:inline" />
  <path
     d="M 118.8,54 A 59.400002,54 0 1 1 0,54 59.400002,54 0 1 1 118.8,54 z"
     transform="matrix(0.38181004,0,0,0.41999105,362.87226,367.84294)"
     id="path4894"
     style="opacity:0.97000002;fill:#393939;fill-opacity:1;display:inline" />
  <path
     d="M 118.8,54 A 59.400002,54 0 1 1 0,54 59.400002,54 0 1 1 118.8,54 z"
     transform="matrix(0.38181004,0,0,0.41999105,453.59033,367.84294)"
     id="path4896"
     style="opacity:0.97000002;fill:#393939;fill-opacity:1;display:inline" />
  <path
     d="M 118.8,54 A 59.400002,54 0 1 1 0,54 59.400002,54 0 1 1 118.8,54 z"
     transform="matrix(0.38181004,0,0,0.41999105,0,367.84294)"
     id="path4898"
     style="opacity:0.97000002;fill:#393939;fill-opacity:1;display:inline" />
  <path
     d="M 118.8,54 A 59.400002,54 0 1 1 0,54 59.400002,54 0 1 1 118.8,54 z"
     transform="matrix(0.38181004,0,0,0.41999105,544.30842,367.51118)"
     id="path4900"
     style="opacity:0.97000002;fill:#393939;fill-opacity:1;display:inline" />
</svg>
