<?xml version="1.0" encoding="UTF-8" standalone="no"?>
<!-- Created with Inkscape (http://www.inkscape.org/) -->

<svg
   xmlns:dc="http://purl.org/dc/elements/1.1/"
   xmlns:cc="http://creativecommons.org/ns#"
   xmlns:rdf="http://www.w3.org/1999/02/22-rdf-syntax-ns#"
   xmlns:svg="http://www.w3.org/2000/svg"
   xmlns="http://www.w3.org/2000/svg"
   version="1.1"
   width="483.79034"
   height="407.09982"
   id="svg2">
  <defs
     id="defs4" />
  <metadata
     id="metadata7">
    <rdf:RDF>
      <cc:Work
         rdf:about="">
        <dc:format>image/svg+xml</dc:format>
        <dc:type
           rdf:resource="http://purl.org/dc/dcmitype/StillImage" />
        <dc:title></dc:title>
      </cc:Work>
    </rdf:RDF>
  </metadata>
  <g
     transform="translate(-78.104835,-391.66942)"
     id="layer1">
    <g
       transform="translate(78.104835,353.32442)"
       id="g2986">
	<g
   id="_x32_4_27_">
		<path
   d="M 469.779,374.718 331.625,267.175 c -14.479,-11.915 -35.439,-11.643 -49.602,0.646 L 181.735,348.68 c -2.386,1.141 -4.597,1.461 -6.248,0.282 -6.584,-4.705 -32.618,-87.19 -37.636,-103.498 -0.503,-1.633 -0.667,-3.244 -0.577,-4.823 l 101.372,-49.355 c 11.499,-5.596 18.605,-17.457 18.12,-30.233 -0.482,-12.777 -8.472,-24.065 -20.357,-28.774 L 105.614,80.462 c -0.503,-0.199 -1.009,-0.384 -1.516,-0.556 -0.169,-0.059 -0.34,-0.107 -0.511,-0.162 -0.339,-0.109 -0.676,-0.218 -1.015,-0.315 -0.202,-0.058 -0.406,-0.107 -0.608,-0.161 -0.309,-0.082 -0.615,-0.165 -0.924,-0.237 -0.217,-0.05 -0.434,-0.093 -0.651,-0.139 -0.295,-0.063 -0.592,-0.126 -0.887,-0.18 -0.224,-0.041 -0.448,-0.075 -0.672,-0.11 -0.289,-0.047 -0.579,-0.094 -0.869,-0.132 -0.228,-0.031 -0.457,-0.055 -0.685,-0.081 -0.285,-0.031 -0.57,-0.062 -0.854,-0.086 -0.231,-0.02 -0.465,-0.034 -0.696,-0.048 -0.28,-0.018 -0.562,-0.033 -0.841,-0.043 -0.233,-0.008 -0.468,-0.013 -0.701,-0.016 -0.147,-0.002 -0.296,-0.01 -0.445,-0.01 -0.082,0 -0.164,0.008 -0.245,0.009 -0.709,0.005 -1.414,0.028 -2.116,0.08 -0.058,0.004 -0.113,0.012 -0.17,0.017 -0.659,0.052 -1.315,0.128 -1.969,0.221 -0.16,0.023 -0.322,0.045 -0.482,0.07 -0.691,0.108 -1.379,0.234 -2.059,0.388 -0.088,0.02 -0.173,0.043 -0.26,0.063 -0.616,0.144 -1.228,0.307 -1.834,0.486 -0.146,0.043 -0.295,0.085 -0.442,0.132 -0.664,0.207 -1.322,0.431 -1.97,0.68 -0.105,0.041 -0.208,0.086 -0.313,0.127 -0.574,0.227 -1.142,0.471 -1.702,0.73 -0.131,0.061 -0.263,0.119 -0.393,0.181 -0.626,0.3 -1.242,0.619 -1.848,0.958 -0.113,0.064 -0.227,0.132 -0.34,0.198 -0.531,0.307 -1.055,0.628 -1.568,0.965 -0.109,0.072 -0.222,0.14 -0.331,0.214 -0.576,0.387 -1.14,0.795 -1.692,1.221 -0.117,0.09 -0.23,0.184 -0.347,0.275 -0.483,0.385 -0.959,0.782 -1.422,1.196 -0.087,0.077 -0.177,0.151 -0.263,0.229 -0.517,0.471 -1.018,0.963 -1.505,1.47 -0.11,0.115 -0.219,0.232 -0.328,0.35 -0.436,0.467 -0.86,0.946 -1.269,1.441 -0.06,0.072 -0.122,0.141 -0.182,0.213 -0.448,0.551 -0.875,1.123 -1.288,1.708 -0.098,0.139 -0.195,0.279 -0.291,0.42 -0.382,0.559 -0.752,1.13 -1.102,1.718 -0.028,0.05 -0.062,0.097 -0.092,0.147 -0.367,0.628 -0.711,1.276 -1.039,1.936 -0.08,0.16 -0.158,0.321 -0.236,0.484 -0.321,0.673 -0.63,1.357 -0.909,2.062 -6.566,16.568 1.545,35.318 18.112,41.881 l 49.672,19.679 c -4.159,1.391 -9.677,3.234 -15.84,5.293 L 77.885,150.457 C 67.2,146.224 58.804,138.085 54.243,127.538 49.68,116.991 49.501,105.298 53.734,94.616 60.273,78.103 75.977,67.432 93.739,67.432 h 0.002 c 5.427,0 10.754,1.02 15.834,3.032 l 36.318,14.388 C 134.407,57.531 107.393,38.345 75.897,38.345 33.981,38.345 0,72.325 0,114.243 c 0,33.815 22.122,62.441 52.679,72.25 -20.039,6.755 -56.589,25.539 -21.753,129.59 32.08,95.83 62.902,121.388 91.854,128.189 3.842,1.288 52.445,1.17 52.445,1.17 9.252,0 15.158,-2.513 22.147,-8.576 l 110.491,-89.712 113.076,86.909 c 16.389,13.484 40.607,11.134 54.094,-5.254 13.488,-16.387 11.133,-40.605 -5.254,-54.091 z m -325.198,-209.406 -0.392,0.19 c -0.058,-0.139 -0.115,-0.278 -0.174,-0.415 l 0.566,0.225 z"
   id="path2989" />

	</g>

</g>
  </g>
</svg>
