<?xml version="1.0" encoding="UTF-8" standalone="no"?>
<!-- Created with Inkscape (http://www.inkscape.org/) -->

<svg
   xmlns:dc="http://purl.org/dc/elements/1.1/"
   xmlns:cc="http://creativecommons.org/ns#"
   xmlns:rdf="http://www.w3.org/1999/02/22-rdf-syntax-ns#"
   xmlns:svg="http://www.w3.org/2000/svg"
   xmlns="http://www.w3.org/2000/svg"
   version="1.1"
   width="97.0606"
   height="330.89316"
   id="svg3149">
  <defs
     id="defs3151" />
  <metadata
     id="metadata3154">
    <rdf:RDF>
      <cc:Work
         rdf:about="">
        <dc:format>image/svg+xml</dc:format>
        <dc:type
           rdf:resource="http://purl.org/dc/dcmitype/StillImage" />
        <dc:title></dc:title>
      </cc:Work>
    </rdf:RDF>
  </metadata>
  <g
     transform="translate(-326.4697,-366.9156)"
     id="layer1">
    <g
       transform="matrix(1.2186347,0,0,-1.2213911,418.05132,562.91101)"
       id="g3015">
      <path
         d="m 0,0 c -1.744,0 -3.157,3.129 -3.157,6.99 0,3.862 1.413,6.991 3.157,6.991 1.744,0 3.157,-3.129 3.157,-6.991 C 3.157,3.129 1.744,0 0,0 m -7.269,-85.477 c 1.833,0 3.32,-0.153 3.32,-0.341 0,-0.188 -1.487,-0.341 -3.32,-0.341 -1.835,0 -3.321,0.153 -3.321,0.341 0,0.188 1.486,0.341 3.321,0.341 m 3.067,146.381 c 0,0.314 1.308,0.569 2.923,0.569 1.615,0 2.924,-0.255 2.924,-0.569 0,-0.313 -1.309,-0.568 -2.924,-0.568 -1.615,0 -2.923,0.255 -2.923,0.568 m -4.009,40.529 c -1.116,-0.105 -2.218,1.921 -2.462,4.525 -0.244,2.604 0.463,4.799 1.579,4.904 1.115,0.104 2.218,-1.922 2.462,-4.526 0.244,-2.603 -0.463,-4.799 -1.579,-4.903 m -42.782,1.436 c 0,-0.18 -1.563,-0.326 -3.491,-0.326 -1.929,0 -3.492,0.146 -3.492,0.326 0,0.18 1.563,0.325 3.492,0.325 1.928,0 3.491,-0.145 3.491,-0.325 m -1.058,-20.87 c 1.483,0.18 3.028,-2.493 3.449,-5.97 0.422,-3.477 -0.439,-6.442 -1.922,-6.622 -1.483,-0.179 -3.029,2.493 -3.45,5.97 -0.422,3.477 0.439,6.442 1.923,6.622 m 3.871,-54.163 c 1.503,0 2.722,-0.212 2.722,-0.474 0,-0.261 -1.219,-0.472 -2.722,-0.472 -1.503,0 -2.722,0.211 -2.722,0.472 0,0.262 1.219,0.474 2.722,0.474 m 7.625,-54.467 c 1.28,0.201 2.613,-1.515 2.977,-3.835 0.365,-2.319 -0.377,-4.361 -1.657,-4.563 -1.28,-0.201 -2.613,1.515 -2.977,3.835 -0.365,2.319 0.377,4.362 1.657,4.563 m 4.521,-27.976 c 1.405,0 2.545,-0.16 2.545,-0.356 0,-0.196 -1.14,-0.355 -2.545,-0.355 -1.405,0 -2.545,0.159 -2.545,0.355 0,0.196 1.14,0.356 2.545,0.356 m 5.936,-39.981 c 0,-0.188 -1.486,-0.342 -3.32,-0.342 -1.834,0 -3.322,0.154 -3.322,0.342 0,0.188 1.488,0.341 3.322,0.341 1.834,0 3.32,-0.153 3.32,-0.341 m -24.493,232.591 c -1.471,0 -2.663,0.186 -2.663,0.415 0,0.228 1.192,0.414 2.663,0.414 1.47,0 2.663,-0.186 2.663,-0.414 0,-0.229 -1.193,-0.415 -2.663,-0.415 m 4.148,9.228 c 1.111,0 2.012,-0.159 2.012,-0.355 0,-0.196 -0.901,-0.355 -2.012,-0.355 -1.112,0 -2.012,0.159 -2.012,0.355 0,0.196 0.9,0.355 2.012,0.355 M -1.079,26.564 c -1.503,0 -2.721,0.213 -2.721,0.474 0,0.261 1.218,0.473 2.721,0.473 1.171,0 2.165,-0.128 2.55,-0.309 0.004,0.233 0.014,0.448 0.037,0.634 0.753,6.03 1.105,13.431 1.298,20.741 -0.27,-0.01 -0.55,-0.015 -0.836,-0.015 -2.243,0 -4.061,0.327 -4.061,0.73 0,0.404 1.818,0.731 4.061,0.731 0.299,0 0.591,-0.006 0.872,-0.018 0.143,6.016 0.189,11.905 0.275,16.848 0.029,1.762 -0.012,3.4 -0.106,4.953 -0.328,-0.012 -0.678,-0.019 -1.041,-0.019 -0.698,0 -1.345,0.026 -1.885,0.068 0.283,-0.483 0.455,-1.108 0.455,-1.79 0,-1.531 -0.86,-2.772 -1.92,-2.772 -1.06,0 -1.918,1.241 -1.918,2.772 0,1.531 0.858,2.772 1.918,2.772 0.342,0 0.662,-0.13 0.94,-0.356 0.617,0.073 1.469,0.119 2.41,0.119 0.345,0 0.678,-0.007 0.993,-0.018 -0.411,5.563 -1.544,9.953 -2.804,14.394 -0.48,-0.053 -1.058,-0.083 -1.682,-0.083 -1.66,0 -3.004,0.217 -3.004,0.486 0,0.269 1.344,0.488 3.004,0.488 0.524,0 1.017,-0.022 1.445,-0.06 -1.495,5.229 -3.116,10.632 -3.898,18.193 -1.01,9.771 -0.233,14.948 -0.827,24.584 -0.097,-0.001 -0.194,-0.001 -0.293,-0.001 -2.556,0 -4.628,0.254 -4.628,0.567 0,0.315 2.072,0.569 4.628,0.569 0.078,0 0.155,-0.001 0.232,-0.002 -0.335,6.517 0.449,12.548 0.995,18.794 -0.322,-0.011 -0.665,-0.018 -1.023,-0.018 -1.798,0 -3.255,0.159 -3.255,0.355 0,0.196 1.457,0.355 3.255,0.355 0.379,0 0.742,-0.008 1.08,-0.02 0.214,2.554 0.381,6.603 0.404,9.286 l -7.766,0 c 0.038,-1.479 0.07,-4.292 0.096,-5.56 0.108,0.003 0.217,0.004 0.328,0.004 1.537,0 2.782,-0.239 2.782,-0.533 0,-0.294 -1.245,-0.532 -2.782,-0.532 -0.104,0 -0.207,10e-4 -0.307,0.004 0.091,-4.765 0.096,-8.137 0.042,-11.26 0.13,0.005 0.262,0.01 0.397,0.01 1.48,0 2.681,-0.328 2.681,-0.732 0,-0.403 -1.201,-0.73 -2.681,-0.73 -0.146,0 -0.287,0.004 -0.426,0.009 -0.073,-3.091 -0.201,-6.115 -0.356,-10.24 -0.03,-0.788 0.087,-1.909 0.264,-3.2 0.518,0.069 1.178,0.11 1.899,0.11 1.659,0 3.004,-0.218 3.004,-0.487 0,-0.269 -1.345,-0.487 -3.004,-0.487 -0.672,0 -1.29,0.036 -1.79,0.096 0.432,-2.961 1.074,-6.594 1.027,-9.225 0.078,0.001 0.157,0.002 0.236,0.002 1.47,0 2.663,-0.186 2.663,-0.414 0,-0.229 -1.193,-0.415 -2.663,-0.415 -0.093,0 -0.185,0.001 -0.276,0.002 -0.049,-0.566 -0.142,-1.066 -0.291,-1.477 -2.138,-5.877 -2.256,-8.998 -1.069,-13.357 0.26,-0.956 0.636,-2.532 1.064,-4.466 1.654,-0.072 2.876,-0.326 2.876,-0.629 0,-0.286 -1.09,-0.528 -2.603,-0.616 0.117,-0.537 0.236,-1.093 0.357,-1.667 -0.439,0.509 -0.908,1.05 -1.406,1.634 -0.062,-0.001 -0.125,-0.002 -0.188,-0.002 -2.121,0 -3.841,0.291 -3.841,0.651 0,0.307 1.255,0.563 2.943,0.632 -0.347,0.412 -0.706,0.842 -1.082,1.297 -2.037,2.464 -7.265,5.775 -7.818,7.392 -0.048,0.136 -0.173,0.33 -0.357,0.564 -0.041,0 -0.081,-10e-4 -0.122,-10e-4 -1.66,0 -3.005,0.218 -3.005,0.487 0,0.229 0.968,0.419 2.273,0.472 -2.248,2.325 -6.957,6.233 -8.82,7.112 -1.551,0.964 -3.729,3.404 -5.782,5.977 -1.45,0.034 -2.564,0.236 -2.564,0.481 0,0.201 0.755,0.375 1.832,0.449 -1.468,1.884 -2.816,3.748 -3.76,5.079 0.131,0.158 0.469,0.785 0.935,1.841 0.114,-0.025 0.534,-0.418 0.72,-0.513 0.262,-0.134 0.594,-0.099 0.845,-0.235 0.671,-0.371 1.678,-0.257 2.433,-0.265 0.176,-0.002 1.747,0.369 1.741,0.546 0.496,0.085 1.476,0.244 1.855,0.567 -1.037,0.016 -1.785,1.084 -2.754,1.403 -0.566,0.678 -2.186,0.208 -2.832,0.068 -0.235,-0.049 -1.721,-1.134 -1.915,-1.362 0.644,1.396 2.588,1.676 3.312,3.01 0.487,0.46 0.595,1.432 0.75,2.043 0.298,1.168 -0.353,2.377 -0.164,3.579 -0.144,-0.388 -1.462,-0.824 -1.64,-1.206 -0.75,-0.174 -1.649,-1.502 -1.92,-2.169 -0.325,-0.801 -0.391,-1.72 -0.339,-2.569 0.038,-0.62 0.403,-1.037 -0.262,-2.785 -0.504,-1.042 -0.753,-1.658 -0.811,-1.889 -0.767,1.084 -1.257,1.799 -1.3,1.848 -1.697,1.158 -2.849,1.563 -4,2.073 0.083,0.869 0.143,1.786 0.186,2.729 -0.367,-0.068 -0.884,-0.112 -1.459,-0.112 -1.111,0 -2.013,0.16 -2.013,0.356 0,0.196 0.902,0.355 2.013,0.355 0.587,0 1.11,-0.045 1.478,-0.116 0.135,3.392 0.08,7.067 0.174,10.085 -0.382,-0.017 -0.799,-0.026 -1.238,-0.026 -1.797,0 -3.255,0.158 -3.255,0.355 0,0.195 1.458,0.355 3.255,0.355 0.447,0 0.873,-0.01 1.26,-0.028 0.008,0.172 0.014,0.345 0.023,0.511 0.284,5.812 2.411,9.341 1.778,15.117 l -8.206,0 c -0.108,-1.825 -0.276,-4.948 -0.476,-6.375 0.135,0.004 0.272,0.007 0.413,0.007 1.536,0 2.781,-0.238 2.781,-0.533 0,-0.294 -1.245,-0.532 -2.781,-0.532 -0.195,0 -0.386,0.004 -0.57,0.011 -0.779,-4.904 -1.9,-8.137 -2.08,-14.197 -0.057,0.071 -0.111,0.137 -0.169,0.21 -1.235,1.538 -3.79,2.589 -6.036,3.661 0.043,0.945 -0.497,1.383 0.032,2.226 0.199,0.317 0.736,0.702 0.95,1.06 0.421,0.711 0.585,1.606 0.593,2.535 0.02,2.18 -1.704,3.414 -2.361,5.403 -0.319,-1.509 -1.273,-2.494 -1.556,-3.976 -0.148,-0.778 -0.097,-1.441 0.062,-2.219 0.087,-0.424 0.065,-0.836 0.565,-1.794 0.352,-0.749 0.973,-0.983 1.105,-1.232 0.073,-0.139 0.191,-1.393 0.401,-1.902 -1.629,0.786 -3.066,1.593 -3.666,2.618 -1.179,2.018 -4.975,7.203 -6.472,7.649 -2.524,-0.744 6.144,-5.97 3.649,-6.727 1.944,-3.905 9.451,-6.441 12.881,-10.088 0.034,-5.158 0.354,-8.161 0.336,-11.836 0.485,0.045 1.089,0.072 1.744,0.072 1.602,0 2.9,-0.159 2.9,-0.355 0,-0.197 -1.298,-0.355 -2.9,-0.355 -0.658,0 -1.263,0.027 -1.75,0.072 -0.039,-2.699 -0.271,-5.821 -0.928,-10.419 -0.094,-0.659 -0.173,-1.331 -0.245,-2.009 0.254,0.029 0.541,0.046 0.852,0.046 0.98,0 1.775,-0.159 1.775,-0.355 0,-0.197 -0.795,-0.356 -1.775,-0.356 -0.334,0 -0.644,0.02 -0.911,0.053 -0.152,-1.57 -0.259,-3.178 -0.34,-4.81 -1.17,3.502 -3.072,10.633 -4.956,13.048 -1.477,1.893 -1.467,4.047 -2.119,5.916 -0.956,0.088 -1.648,0.328 -1.648,0.614 0,0.23 0.443,0.43 1.11,0.546 -0.133,0.22 -0.278,0.436 -0.452,0.642 -1.848,2.191 -3.516,3.59 -4.768,6.325 -0.817,1.784 -1.949,2.606 -2.929,4.182 -0.5,0.805 -0.296,4.008 -0.824,4.302 -0.913,-0.492 -0.279,-3.67 -0.09,-4.192 0.686,-1.906 2.55,-3.372 3.31,-5.28 0.464,-1.165 0.415,-1.65 1.277,-2.726 0.58,-0.724 1.391,-1.22 1.838,-2.071 0.752,-1.431 1.052,-2.813 1.453,-4.257 -0.596,0.239 -1.093,0.217 -1.462,0.933 -0.171,0.332 -0.23,0.991 -0.429,1.356 -0.398,0.725 -1.085,1.322 -1.88,1.801 -1.867,1.127 -3.805,0.271 -5.852,0.718 1.136,-1.043 1.498,-2.366 2.63,-3.363 0.594,-0.523 1.19,-0.817 1.941,-1.076 0.411,-0.141 0.753,-0.369 1.833,-0.426 0.823,-0.078 1.341,0.336 1.622,0.323 0.144,-0.006 1.11,-0.457 1.692,-0.593 0.11,-0.382 0.226,-0.767 0.366,-1.161 0.698,-1.965 1.179,-3.544 2.357,-5.196 0.111,-0.158 0.217,-0.32 0.322,-0.483 0.017,0 0.034,0.002 0.051,0.002 1.341,0 2.427,-0.292 2.427,-0.651 0,-0.297 -0.74,-0.543 -1.747,-0.622 0.594,-1.152 1.074,-2.37 1.552,-3.561 1.479,-3.691 0.559,-8.291 3.093,-11.517 -0.066,-1.428 -0.146,-2.845 -0.255,-4.239 0.44,0.12 1.052,0.195 1.728,0.195 1.341,0 2.427,-0.292 2.427,-0.652 0,-0.359 -1.086,-0.651 -2.427,-0.651 -0.718,0 -1.357,0.086 -1.801,0.219 -0.132,-1.471 -0.3,-2.913 -0.532,-4.304 -2.111,-12.667 3.972,-23.239 4.245,-31.267 0.312,0.051 0.691,0.081 1.107,0.081 1.046,0 1.894,-0.187 1.894,-0.415 0,-0.229 -0.848,-0.414 -1.894,-0.414 -0.406,0 -0.78,0.028 -1.088,0.076 0.061,-3.775 0.361,-7.688 -0.263,-11.383 -0.218,-1.294 -0.34,-2.575 -0.393,-3.855 0.384,0.08 0.862,0.13 1.389,0.13 1.242,0 2.249,-0.266 2.249,-0.593 0,-0.326 -1.007,-0.591 -2.249,-0.591 -0.539,0 -1.026,0.051 -1.414,0.134 -0.057,-3.839 0.487,-7.679 1.06,-11.775 0.619,-4.426 1.215,-9.235 3.01,-13.332 0.409,-0.932 0.728,-1.849 0.987,-2.761 0.431,0.096 0.997,0.155 1.624,0.155 1.34,0 2.426,-0.265 2.426,-0.593 0,-0.327 -1.086,-0.591 -2.426,-0.591 -0.515,0 -0.99,0.039 -1.383,0.105 0.881,-3.664 0.842,-7.258 1.29,-11.227 0.552,0.058 1.273,0.096 2.065,0.096 1.732,0 3.136,-0.174 3.136,-0.388 0,-0.215 -1.404,-0.389 -3.136,-0.389 -0.757,0 -1.451,0.033 -1.993,0.088 0.016,-0.125 0.029,-0.249 0.046,-0.375 0.412,-3.102 1.264,-6.005 2.06,-8.897 0.196,0.022 0.41,0.035 0.638,0.035 0.882,0 1.598,-0.186 1.598,-0.414 0,-0.23 -0.716,-0.414 -1.598,-0.414 -0.149,0 -0.289,0.006 -0.426,0.016 0.875,-3.234 1.623,-6.472 1.549,-9.971 -0.032,-1.521 -0.116,-3.166 -0.19,-4.852 0.119,0.007 0.241,0.011 0.369,0.011 0.883,0 1.598,-0.159 1.598,-0.355 0,-0.196 -0.715,-0.356 -1.598,-0.356 -0.138,0 -0.27,0.006 -0.397,0.012 -0.133,-3.291 -0.186,-6.692 0.321,-9.579 0.433,-2.471 1.434,-4.414 1.96,-6.709 0.268,0.038 0.571,0.06 0.897,0.06 1.046,0 1.894,-0.213 1.894,-0.475 0,-0.26 -0.848,-0.472 -1.894,-0.472 -0.259,0 -0.505,0.012 -0.731,0.036 0.079,-0.473 0.136,-0.962 0.159,-1.478 0.2,-4.514 0.32,-6.908 0.166,-11.38 -0.033,-0.971 -0.023,-1.969 0.017,-2.984 0.375,0.041 0.811,0.066 1.277,0.066 1.405,0 2.545,-0.218 2.545,-0.489 0,-0.269 -1.14,-0.488 -2.545,-0.488 -0.448,0 -0.869,0.022 -1.235,0.061 0.234,-4.164 0.951,-8.551 1.47,-12.412 0.418,-3.106 0.483,-4.711 0.457,-6.298 0.36,0.058 0.793,0.091 1.261,0.091 1.242,0 2.249,-0.237 2.249,-0.531 0,-0.295 -1.007,-0.533 -2.249,-0.533 -0.478,0 -0.918,0.036 -1.283,0.097 -0.043,-1.387 -0.116,-2.956 -0.059,-5.623 0.064,-2.991 0.425,-5.951 0.764,-8.892 0.603,0.044 1.443,0.071 2.372,0.071 1.834,0 3.321,-0.106 3.321,-0.237 0,-0.131 -1.487,-0.236 -3.321,-0.236 -0.91,0 -1.733,0.025 -2.333,0.067 0.689,-6.009 1.236,-12.038 -1.086,-18.033 l 12.534,0 c 0.462,12.625 -2.575,13.972 -2.627,26.215 -0.275,-0.006 -0.561,-0.01 -0.854,-0.01 -2.195,0 -3.973,0.208 -3.973,0.467 0,0.258 1.778,0.466 3.973,0.466 0.294,0 0.58,-0.004 0.856,-0.011 0.047,5.534 0.723,10.132 0.159,15.495 -0.318,-0.008 -0.648,-0.012 -0.986,-0.012 -2.55,0 -4.617,0.212 -4.617,0.474 0,0.261 2.067,0.473 4.617,0.473 0.299,0 0.591,-0.003 0.875,-0.008 -0.017,0.126 -0.03,0.251 -0.049,0.38 -0.726,5.133 -1.346,9.961 -1.412,15.113 -0.016,1.313 -0.051,2.534 -0.115,3.706 -0.682,-0.107 -1.729,-0.175 -2.904,-0.175 -2.057,0 -3.724,0.208 -3.724,0.466 0,0.257 1.667,0.466 3.724,0.466 1.154,0 2.186,-0.067 2.869,-0.169 -0.229,3.535 -0.775,6.663 -2.068,10.543 -0.266,-0.015 -0.548,-0.024 -0.84,-0.024 -1.569,0 -2.842,0.238 -2.842,0.533 0,0.294 1.273,0.534 2.842,0.534 0.179,0 0.356,-0.004 0.528,-0.01 -1.109,4.272 0.161,8.903 -0.803,13.174 -0.355,1.571 -0.786,3.224 -1.216,4.901 -0.55,-0.044 -1.23,-0.07 -1.967,-0.07 -1.83,0 -3.315,0.159 -3.315,0.355 0,0.195 1.485,0.356 3.315,0.356 0.672,0 1.297,-0.023 1.819,-0.06 -0.137,0.54 -0.272,1.081 -0.405,1.623 -0.246,-0.007 -0.502,-0.01 -0.767,-0.01 -1.831,0 -3.314,0.159 -3.314,0.355 0,0.195 1.483,0.354 3.314,0.354 0.205,0 0.404,-0.002 0.599,-0.006 -0.431,1.798 -0.809,3.587 -1.038,5.294 -0.469,3.493 -1.885,5.654 -2.659,8.671 -0.184,-0.004 -0.374,-0.006 -0.568,-0.006 -1.731,0 -3.136,0.133 -3.136,0.296 0,0.164 1.405,0.296 3.136,0.296 0.146,0 0.288,-0.001 0.428,-0.003 -0.093,0.425 -0.174,0.866 -0.235,1.331 -0.408,3.079 0.035,5.8 -0.043,8.963 -0.133,5.515 -2.01,10.903 -2.643,16.418 -0.096,0.832 -0.205,1.651 -0.323,2.461 -0.537,-0.062 -1.184,-0.099 -1.884,-0.099 -1.844,0 -3.34,0.255 -3.34,0.569 0,0.315 1.496,0.57 3.34,0.57 0.636,0 1.229,-0.031 1.735,-0.083 -0.334,2.152 -0.424,2.766 -0.798,4.861 1.997,2.715 7.305,4.262 8.403,12.936 0.309,2.432 1.028,5.066 1.383,7.49 0.318,2.168 0.428,5.051 0.357,7.756 0.703,0.505 0.788,1.143 1.741,1.198 0.373,0.022 0.998,-0.192 1.414,-0.157 0.824,0.068 1.648,0.454 2.409,0.987 1.787,1.249 1.791,3.368 3.03,5.057 -1.414,-0.615 -2.77,-0.409 -4.141,-1.04 -0.719,-0.33 -1.23,-0.756 -1.77,-1.337 -0.297,-0.318 -0.644,-0.539 -1.134,-1.502 -0.406,-0.72 -0.237,-1.363 -0.362,-1.614 -0.064,-0.124 -0.819,-0.785 -1.195,-1.259 -0.051,1.617 -0.166,3.157 -0.339,4.425 -0.598,4.344 -2.139,9.181 -3.762,13.271 0.024,-0.171 0.052,-0.344 0.08,-0.519 -0.163,0.979 -0.825,1.271 -0.501,2.236 0.12,0.355 0.551,0.856 0.674,1.254 0.244,0.79 0.193,1.697 -0.017,2.603 -0.492,2.124 -2.456,2.919 -3.562,4.698 0.043,-1.542 -0.653,-2.723 -0.58,-4.23 0.038,-0.79 0.243,-1.423 0.58,-2.141 0.184,-0.394 0.26,-0.798 0.971,-1.612 0.517,-0.645 1.176,-0.728 1.362,-0.939 0.133,-0.151 0.768,-2.073 1.081,-1.915 0.925,-5.619 3.748,-12.895 1.721,-27.931 -0.457,-3.386 -2.021,-6.168 -4.128,-8.905 -0.151,-0.197 -0.323,-0.396 -0.504,-0.597 1.696,-0.027 3.023,-0.271 3.023,-0.567 0,-0.315 -1.496,-0.569 -3.34,-0.569 -0.27,0 -0.532,0.006 -0.784,0.016 -0.935,-0.898 -1.993,-1.835 -2.89,-2.808 -0.605,3.67 -1.067,7.422 -1.01,11.56 -0.176,-0.009 -0.356,-0.013 -0.542,-0.013 -1.438,0 -2.604,0.278 -2.604,0.621 0,0.343 1.166,0.621 2.604,0.621 0.198,0 0.388,-0.006 0.573,-0.015 0.047,1.225 0.138,2.484 0.287,3.788 0.409,3.548 -0.742,6.8 -1.222,10.255 -0.476,-0.084 -1.093,-0.136 -1.769,-0.136 -1.503,0 -2.722,0.252 -2.722,0.563 0,0.31 1.219,0.562 2.722,0.562 0.629,0 1.205,-0.045 1.665,-0.118 -0.085,0.841 -0.122,1.696 -0.076,2.573 0.192,3.638 1.16,7.204 -0.292,10.659 -0.912,2.168 -2.319,2.643 -2.321,5.301 -10e-4,0.713 0.133,1.5 0.318,2.308 -0.255,-0.029 -0.534,-0.046 -0.832,-0.046 -1.112,0 -2.013,0.22 -2.013,0.492 0,0.272 0.901,0.492 2.013,0.492 0.383,0 0.738,-0.028 1.043,-0.073 0.282,1.094 0.601,2.192 0.754,3.164 0.305,1.928 0.323,5.104 0.257,8.354 -0.632,-0.074 -1.452,-0.119 -2.351,-0.119 -1.993,0 -3.609,0.22 -3.609,0.492 0,0.271 1.616,0.492 3.609,0.492 0.891,0 1.705,-0.044 2.334,-0.117 -0.079,3.353 -0.232,6.689 -0.235,8.722 -0.007,3.873 0.038,6.623 0.244,9.335 -0.329,-0.009 -0.678,-0.015 -1.041,-0.015 -1.928,0 -3.491,0.146 -3.491,0.327 0,0.179 1.563,0.325 3.491,0.325 0.381,0 0.747,-0.006 1.09,-0.016 0.224,2.636 0.608,5.315 1.254,9.029 0.057,0.327 0.107,0.667 0.153,1.017 1.762,-0.874 3.193,-1.906 3.576,-3.409 0.649,-2.546 3.389,-5.897 6.506,-9.056 0.018,0 0.034,0.001 0.052,0.001 1.659,0 3.004,-0.219 3.004,-0.488 0,-0.217 -0.882,-0.402 -2.099,-0.465 3.171,-3.104 6.547,-5.915 8.424,-7.436 2.762,-2.238 7.433,-7.207 10.185,-10.554 3.105,-3.759 5.675,-8.568 7.964,-11.795 0.472,-0.663 0.995,-1.668 1.656,-2.556 0.172,-0.991 0.333,-1.954 0.478,-2.874 0.438,0.02 0.906,0.031 1.396,0.031 2.377,0 4.304,-0.254 4.304,-0.568 0,-0.314 -1.927,-0.569 -4.304,-0.569 -0.428,0 -0.84,0.009 -1.23,0.024 0.328,-2.194 0.547,-4.064 0.588,-5.311 0.112,-3.417 0.178,-6.916 0.184,-10.432 0.502,0.08 1.141,0.127 1.838,0.127 1.615,0 2.924,-0.254 2.924,-0.568 0,-0.314 -1.309,-0.569 -2.924,-0.569 -0.696,0 -1.332,0.048 -1.834,0.126 -0.009,-5.751 -0.205,-11.52 -0.682,-17.04 0.382,0.079 0.857,0.128 1.38,0.128 1.241,0 2.248,-0.266 2.248,-0.592 0,-0.327 -1.007,-0.593 -2.248,-0.593 -0.562,0 -1.068,0.057 -1.461,0.146 -0.046,-0.492 -0.083,-0.992 -0.134,-1.479 -0.486,-4.694 -0.583,-9.315 -0.498,-13.914 0.605,0.144 1.593,0.238 2.711,0.238 1.844,0 3.34,-0.255 3.34,-0.57 0,-0.314 -1.496,-0.569 -3.34,-0.569 -1.108,0 -2.087,0.092 -2.695,0.234 0.093,-4.163 0.323,-8.309 0.549,-12.474 0.385,0.045 0.821,0.071 1.284,0.071 1.569,0 2.842,-0.291 2.842,-0.65 0,-0.358 -1.273,-0.649 -2.842,-0.649 -0.438,0 -0.852,0.022 -1.222,0.064 0.278,-5.192 0.522,-10.418 0.438,-15.752 -0.057,-3.665 -0.386,-7.331 -0.787,-10.995 0.44,0.028 0.913,0.045 1.408,0.045 2.287,0 4.142,-0.327 4.142,-0.73 0,-0.405 -1.855,-0.732 -4.142,-0.732 -0.552,0 -1.078,0.02 -1.559,0.054 -0.717,-6.289 -1.575,-12.573 -1.611,-18.838 0.656,0.163 1.65,0.268 2.764,0.268 1.973,0 3.573,-0.328 3.573,-0.732 0,-0.403 -1.6,-0.73 -3.573,-0.73 -1.116,0 -2.112,0.104 -2.767,0.268 0,-0.072 -0.002,-0.144 -0.001,-0.218 0.011,-0.927 -0.033,-1.847 -0.105,-2.763 0.339,0.071 0.737,0.114 1.167,0.114 1.211,0 2.193,-0.327 2.193,-0.73 0,-0.405 -0.982,-0.733 -2.193,-0.733 -0.477,0 -0.916,0.054 -1.276,0.14 -0.392,-3.814 -1.133,-7.558 -0.577,-11.42 0.254,-1.769 0.336,-3.721 0.297,-5.694 0.461,0.151 1.132,0.246 1.881,0.246 1.391,0 2.518,-0.328 2.518,-0.731 0,-0.404 -1.127,-0.731 -2.518,-0.731 -0.763,0 -1.446,0.099 -1.908,0.255 -0.048,-1.191 -0.143,-2.375 -0.272,-3.531 0.4,0.018 0.833,0.029 1.287,0.029 1.974,0 3.573,-0.183 3.573,-0.407 0,-0.224 -1.599,-0.407 -3.573,-0.407 -0.487,0 -0.952,0.012 -1.375,0.032 -0.076,-0.596 -0.159,-1.185 -0.253,-1.754 -0.611,-3.681 -1.345,-6.255 -1.811,-9.584 0.292,0.019 0.601,0.029 0.922,0.029 1.749,0 3.168,-0.295 3.168,-0.66 0,-0.365 -1.419,-0.66 -3.168,-0.66 -0.379,0 -0.741,0.014 -1.078,0.041 -0.042,-0.375 -0.081,-0.755 -0.115,-1.153 -0.455,-5.282 -0.182,-10.583 -0.212,-15.872 -10e-4,-0.18 -0.002,-0.348 -0.002,-0.52 0.674,0.109 1.601,0.176 2.624,0.176 2.063,0 3.736,-0.273 3.736,-0.608 0,-0.337 -1.673,-0.61 -3.736,-0.61 -1.026,0 -1.955,0.068 -2.631,0.177 -0.077,-9.551 -0.381,-8.945 -1.669,-20.681 l 12.673,0 c 0.352,1.938 0.306,3.969 0.221,5.909 -0.747,-0.038 -1.604,-0.061 -2.518,-0.061 -2.871,0 -5.198,0.218 -5.198,0.487 0,0.27 2.327,0.488 5.198,0.488 0.897,0 1.742,-0.022 2.479,-0.06 -0.045,1.004 -0.087,2.008 -0.074,3.016 0.039,3.13 -0.927,6.116 -1.389,9.253 -0.494,3.343 -0.622,6.717 -0.562,10.108 -0.17,-0.005 -0.342,-0.007 -0.519,-0.007 -1.974,0 -3.574,0.299 -3.574,0.668 0,0.371 1.6,0.671 3.574,0.671 0.189,0 0.373,-0.004 0.553,-0.008 0.147,4.632 0.602,9.294 0.943,13.943 -0.568,-0.043 -1.25,-0.068 -1.984,-0.068 -1.973,0 -3.572,0.182 -3.572,0.406 0,0.224 1.599,0.406 3.572,0.406 0.755,0 1.453,-0.027 2.03,-0.072 0.181,2.567 0.322,5.131 0.345,7.683 0.033,3.712 0.472,7.688 0.937,12.119 -0.428,-0.022 -0.895,-0.035 -1.385,-0.035 -2.057,0 -3.724,0.209 -3.724,0.467 0,0.257 1.667,0.465 3.724,0.465 0.524,0 1.021,-0.013 1.474,-0.037 0.573,5.512 1.148,11.725 1.023,19.011 -0.016,0.85 0.034,1.868 0.127,3 -0.524,-0.03 -1.101,-0.046 -1.709,-0.046 -2.377,0 -4.304,0.254 -4.304,0.567 0,0.315 1.927,0.569 4.304,0.569 0.645,0 1.254,-0.02 1.803,-0.052 0.431,4.306 1.415,10.011 2.326,15.289 -0.154,-0.009 -0.313,-0.015 -0.474,-0.015 -1.34,0 -2.427,0.349 -2.427,0.778 0,0.428 1.087,0.776 2.427,0.776 0.257,0 0.499,-0.016 0.732,-0.04 0.882,5.136 1.632,9.673 1.632,11.817 0,4.232 -2.937,15.423 -3.024,19.924 -0.384,-0.18 -1.379,-0.309 -2.551,-0.309"
         id="path3017"
         style="fill:#1a171b;fill-opacity:1;fill-rule:nonzero;stroke:none" />
    </g>
  </g>
</svg>
