<?xml version="1.0" encoding="UTF-8" standalone="no"?>
<!-- Created with Inkscape (http://www.inkscape.org/) -->

<svg
   xmlns:dc="http://purl.org/dc/elements/1.1/"
   xmlns:cc="http://creativecommons.org/ns#"
   xmlns:rdf="http://www.w3.org/1999/02/22-rdf-syntax-ns#"
   xmlns:svg="http://www.w3.org/2000/svg"
   xmlns="http://www.w3.org/2000/svg"
   xmlns:sodipodi="http://sodipodi.sourceforge.net/DTD/sodipodi-0.dtd"
   xmlns:inkscape="http://www.inkscape.org/namespaces/inkscape"
   version="1.1"
   width="648"
   height="432"
   id="svg4500"
   inkscape:version="0.48.5 r10040"
   sodipodi:docname="default-svg-648px432.svg">
  <sodipodi:namedview
     pagecolor="#ffffff"
     bordercolor="#666666"
     borderopacity="1"
     objecttolerance="10"
     gridtolerance="10"
     guidetolerance="10"
     inkscape:pageopacity="0"
     inkscape:pageshadow="2"
     inkscape:window-width="960"
     inkscape:window-height="503"
     id="namedview6040"
     showgrid="false"
     inkscape:zoom="0.44135802"
     inkscape:cx="63.440559"
     inkscape:cy="216"
     inkscape:window-x="178"
     inkscape:window-y="125"
     inkscape:window-maximized="0"
     inkscape:current-layer="svg4500" />
  <defs
     id="defs4502" />
  <metadata
     id="metadata4505">
    <rdf:RDF>
      <cc:Work
         rdf:about="">
        <dc:format>image/svg+xml</dc:format>
        <dc:type
           rdf:resource="http://purl.org/dc/dcmitype/StillImage" />
        <dc:title></dc:title>
      </cc:Work>
    </rdf:RDF>
  </metadata>
  <g
     transform="translate(0,-620.36)"
     id="layer1"
     style="display:none">
    <path
       d="M 118.8,54 A 59.400002,54 0 1 1 0,54 59.400002,54 0 1 1 118.8,54 z"
       transform="matrix(0.75768244,0,0,0.8334507,-2.9532668e-7,188.36)"
       id="path2991"
       style="fill:#393939;fill-opacity:1" />
    <path
       d="M 118.8,54 A 59.400002,54 0 1 1 0,54 59.400002,54 0 1 1 118.8,54 z"
       transform="matrix(0.75768244,0,0,0.8334507,-2.9532668e-7,386.38789)"
       id="path2993"
       style="fill:#393939;fill-opacity:1" />
    <path
       d="M 118.8,54 A 59.400002,54 0 1 1 0,54 59.400002,54 0 1 1 118.8,54 z"
       transform="matrix(0.75768244,0,0,0.8334507,-5.0632524e-7,287.37394)"
       id="path2995"
       style="fill:#393939;fill-opacity:1" />
    <path
       d="M 118.8,54 A 59.400002,54 0 1 1 0,54 59.400002,54 0 1 1 118.8,54 z"
       transform="matrix(0.75768244,0,0,0.8334507,-5.0632524e-7,485.40183)"
       id="path2997"
       style="fill:#393939;fill-opacity:1" />
    <path
       d="M 118.8,54 A 59.400002,54 0 1 1 0,54 59.400002,54 0 1 1 118.8,54 z"
       transform="matrix(0.75768244,0,0,0.8334507,-2.9532668e-7,584.41577)"
       id="path2999"
       style="fill:#393939;fill-opacity:1" />
    <path
       d="M 118.8,54 A 59.400002,54 0 1 1 0,54 59.400002,54 0 1 1 118.8,54 z"
       transform="matrix(0.75768244,0,0,0.8334507,-2.9532668e-7,683.42972)"
       id="path3001"
       style="fill:#393939;fill-opacity:1" />
    <path
       d="M 118.8,54 A 59.400002,54 0 1 1 0,54 59.400002,54 0 1 1 118.8,54 z"
       transform="matrix(0.75768244,0,0,0.8334507,270.03803,188.36)"
       id="path3003"
       style="fill:#393939;fill-opacity:1" />
    <path
       d="M 118.8,54 A 59.400002,54 0 1 1 0,54 59.400002,54 0 1 1 118.8,54 z"
       transform="matrix(0.75768244,0,0,0.8334507,270.03803,386.38789)"
       id="path3005"
       style="fill:#393939;fill-opacity:1" />
    <path
       d="M 118.8,54 A 59.400002,54 0 1 1 0,54 59.400002,54 0 1 1 118.8,54 z"
       transform="matrix(0.75768244,0,0,0.8334507,270.03803,287.37394)"
       id="path3007"
       style="fill:#393939;fill-opacity:1" />
    <path
       d="M 118.8,54 A 59.400002,54 0 1 1 0,54 59.400002,54 0 1 1 118.8,54 z"
       transform="matrix(0.75768244,0,0,0.8334507,270.03803,485.40183)"
       id="path3009"
       style="fill:#393939;fill-opacity:1" />
    <path
       d="M 118.8,54 A 59.400002,54 0 1 1 0,54 59.400002,54 0 1 1 118.8,54 z"
       transform="matrix(0.75768244,0,0,0.8334507,270.03803,584.41577)"
       id="path3011"
       style="fill:#393939;fill-opacity:1" />
    <path
       d="M 118.8,54 A 59.400002,54 0 1 1 0,54 59.400002,54 0 1 1 118.8,54 z"
       transform="matrix(0.75768244,0,0,0.8334507,270.03803,683.42972)"
       id="path3013"
       style="fill:#393939;fill-opacity:1" />
    <path
       d="M 118.8,54 A 59.400002,54 0 1 1 0,54 59.400002,54 0 1 1 118.8,54 z"
       transform="matrix(0.75768244,0,0,0.8334507,135.01901,188.36)"
       id="path3015"
       style="fill:#393939;fill-opacity:1" />
    <path
       d="M 118.8,54 A 59.400002,54 0 1 1 0,54 59.400002,54 0 1 1 118.8,54 z"
       transform="matrix(0.75768244,0,0,0.8334507,135.01901,386.38789)"
       id="path3017"
       style="fill:#393939;fill-opacity:1" />
    <path
       d="M 118.8,54 A 59.400002,54 0 1 1 0,54 59.400002,54 0 1 1 118.8,54 z"
       transform="matrix(0.75768244,0,0,0.8334507,135.01901,287.37394)"
       id="path3019"
       style="fill:#393939;fill-opacity:1" />
    <path
       d="M 118.8,54 A 59.400002,54 0 1 1 0,54 59.400002,54 0 1 1 118.8,54 z"
       transform="matrix(0.75768244,0,0,0.8334507,135.01901,485.40183)"
       id="path3021"
       style="fill:#393939;fill-opacity:1" />
    <path
       d="M 118.8,54 A 59.400002,54 0 1 1 0,54 59.400002,54 0 1 1 118.8,54 z"
       transform="matrix(0.75768244,0,0,0.8334507,135.01901,584.41577)"
       id="path3023"
       style="fill:#393939;fill-opacity:1" />
    <path
       d="M 118.8,54 A 59.400002,54 0 1 1 0,54 59.400002,54 0 1 1 118.8,54 z"
       transform="matrix(0.75768244,0,0,0.8334507,135.01901,683.42972)"
       id="path3025"
       style="fill:#393939;fill-opacity:1" />
    <path
       d="M 118.8,54 A 59.400002,54 0 1 1 0,54 59.400002,54 0 1 1 118.8,54 z"
       transform="matrix(0.75768244,0,0,0.8334507,-2.9532668e-7,782.44366)"
       id="path3001-1"
       style="fill:#393939;fill-opacity:1" />
    <path
       d="M 118.8,54 A 59.400002,54 0 1 1 0,54 59.400002,54 0 1 1 118.8,54 z"
       transform="matrix(0.75768244,0,0,0.8334507,135.01901,782.44366)"
       id="path3045"
       style="fill:#393939;fill-opacity:1" />
    <path
       d="M 118.8,54 A 59.400002,54 0 1 1 0,54 59.400002,54 0 1 1 118.8,54 z"
       transform="matrix(0.75768244,0,0,0.8334507,270.03803,782.44366)"
       id="path3047"
       style="fill:#393939;fill-opacity:1" />
    <path
       d="M 118.8,54 A 59.400002,54 0 1 1 0,54 59.400002,54 0 1 1 118.8,54 z"
       transform="matrix(0.75768244,0,0,0.8334507,405.05704,188.36)"
       id="path3049"
       style="fill:#393939;fill-opacity:1" />
    <path
       d="M 118.8,54 A 59.400002,54 0 1 1 0,54 59.400002,54 0 1 1 118.8,54 z"
       transform="matrix(0.75768244,0,0,0.8334507,405.05704,386.38789)"
       id="path3051"
       style="fill:#393939;fill-opacity:1" />
    <path
       d="M 118.8,54 A 59.400002,54 0 1 1 0,54 59.400002,54 0 1 1 118.8,54 z"
       transform="matrix(0.75768244,0,0,0.8334507,405.05704,287.37394)"
       id="path3053"
       style="fill:#393939;fill-opacity:1" />
    <path
       d="M 118.8,54 A 59.400002,54 0 1 1 0,54 59.400002,54 0 1 1 118.8,54 z"
       transform="matrix(0.75768244,0,0,0.8334507,405.05704,485.40183)"
       id="path3055"
       style="fill:#393939;fill-opacity:1" />
    <path
       d="M 118.8,54 A 59.400002,54 0 1 1 0,54 59.400002,54 0 1 1 118.8,54 z"
       transform="matrix(0.75768244,0,0,0.8334507,405.05704,584.41577)"
       id="path3057"
       style="fill:#393939;fill-opacity:1" />
    <path
       d="M 118.8,54 A 59.400002,54 0 1 1 0,54 59.400002,54 0 1 1 118.8,54 z"
       transform="matrix(0.75768244,0,0,0.8334507,405.05704,683.42972)"
       id="path3059"
       style="fill:#393939;fill-opacity:1" />
    <path
       d="M 118.8,54 A 59.400002,54 0 1 1 0,54 59.400002,54 0 1 1 118.8,54 z"
       transform="matrix(0.75768244,0,0,0.8334507,675.09507,188.36)"
       id="path3061"
       style="fill:#393939;fill-opacity:1" />
    <path
       d="M 118.8,54 A 59.400002,54 0 1 1 0,54 59.400002,54 0 1 1 118.8,54 z"
       transform="matrix(0.75768244,0,0,0.8334507,675.09507,386.38789)"
       id="path3063"
       style="fill:#393939;fill-opacity:1" />
    <path
       d="M 118.8,54 A 59.400002,54 0 1 1 0,54 59.400002,54 0 1 1 118.8,54 z"
       transform="matrix(0.75768244,0,0,0.8334507,675.09507,287.37394)"
       id="path3065"
       style="fill:#393939;fill-opacity:1" />
    <path
       d="M 118.8,54 A 59.400002,54 0 1 1 0,54 59.400002,54 0 1 1 118.8,54 z"
       transform="matrix(0.75768244,0,0,0.8334507,675.09507,485.40183)"
       id="path3067"
       style="fill:#393939;fill-opacity:1" />
    <path
       d="M 118.8,54 A 59.400002,54 0 1 1 0,54 59.400002,54 0 1 1 118.8,54 z"
       transform="matrix(0.75768244,0,0,0.8334507,675.09507,584.41577)"
       id="path3069"
       style="fill:#393939;fill-opacity:1" />
    <path
       d="M 118.8,54 A 59.400002,54 0 1 1 0,54 59.400002,54 0 1 1 118.8,54 z"
       transform="matrix(0.75768244,0,0,0.8334507,675.09507,683.42972)"
       id="path3071"
       style="fill:#393939;fill-opacity:1" />
    <path
       d="M 118.8,54 A 59.400002,54 0 1 1 0,54 59.400002,54 0 1 1 118.8,54 z"
       transform="matrix(0.75768244,0,0,0.8334507,540.07606,188.36)"
       id="path3073"
       style="fill:#393939;fill-opacity:1" />
    <path
       d="M 118.8,54 A 59.400002,54 0 1 1 0,54 59.400002,54 0 1 1 118.8,54 z"
       transform="matrix(0.75768244,0,0,0.8334507,540.07606,386.38789)"
       id="path3075"
       style="fill:#393939;fill-opacity:1" />
    <path
       d="M 118.8,54 A 59.400002,54 0 1 1 0,54 59.400002,54 0 1 1 118.8,54 z"
       transform="matrix(0.75768244,0,0,0.8334507,540.07606,287.37394)"
       id="path3077"
       style="fill:#393939;fill-opacity:1" />
    <path
       d="M 118.8,54 A 59.400002,54 0 1 1 0,54 59.400002,54 0 1 1 118.8,54 z"
       transform="matrix(0.75768244,0,0,0.8334507,540.07606,485.40183)"
       id="path3079"
       style="fill:#393939;fill-opacity:1" />
    <path
       d="M 118.8,54 A 59.400002,54 0 1 1 0,54 59.400002,54 0 1 1 118.8,54 z"
       transform="matrix(0.75768244,0,0,0.8334507,540.07606,584.41577)"
       id="path3081"
       style="fill:#393939;fill-opacity:1" />
    <path
       d="M 118.8,54 A 59.400002,54 0 1 1 0,54 59.400002,54 0 1 1 118.8,54 z"
       transform="matrix(0.75768244,0,0,0.8334507,540.07606,683.42972)"
       id="path3083"
       style="fill:#393939;fill-opacity:1" />
    <path
       d="M 118.8,54 A 59.400002,54 0 1 1 0,54 59.400002,54 0 1 1 118.8,54 z"
       transform="matrix(0.75768244,0,0,0.8334507,405.05704,782.44366)"
       id="path3085"
       style="fill:#393939;fill-opacity:1" />
    <path
       d="M 118.8,54 A 59.400002,54 0 1 1 0,54 59.400002,54 0 1 1 118.8,54 z"
       transform="matrix(0.75768244,0,0,0.8334507,540.07606,782.44366)"
       id="path3087"
       style="fill:#393939;fill-opacity:1" />
    <path
       d="M 118.8,54 A 59.400002,54 0 1 1 0,54 59.400002,54 0 1 1 118.8,54 z"
       transform="matrix(0.75768244,0,0,0.8334507,675.09507,782.44366)"
       id="path3089"
       style="fill:#393939;fill-opacity:1" />
    <path
       d="M 118.8,54 A 59.400002,54 0 1 1 0,54 59.400002,54 0 1 1 118.8,54 z"
       transform="matrix(0.75768244,0,0,0.8334507,945.1331,188.36)"
       id="path3091"
       style="fill:#393939;fill-opacity:1" />
    <path
       d="M 118.8,54 A 59.400002,54 0 1 1 0,54 59.400002,54 0 1 1 118.8,54 z"
       transform="matrix(0.75768244,0,0,0.8334507,945.1331,386.38789)"
       id="path3093"
       style="fill:#393939;fill-opacity:1" />
    <path
       d="M 118.8,54 A 59.400002,54 0 1 1 0,54 59.400002,54 0 1 1 118.8,54 z"
       transform="matrix(0.75768244,0,0,0.8334507,945.1331,287.37394)"
       id="path3095"
       style="fill:#393939;fill-opacity:1" />
    <path
       d="M 118.8,54 A 59.400002,54 0 1 1 0,54 59.400002,54 0 1 1 118.8,54 z"
       transform="matrix(0.75768244,0,0,0.8334507,945.1331,485.40183)"
       id="path3097"
       style="fill:#393939;fill-opacity:1" />
    <path
       d="M 118.8,54 A 59.400002,54 0 1 1 0,54 59.400002,54 0 1 1 118.8,54 z"
       transform="matrix(0.75768244,0,0,0.8334507,945.1331,584.41577)"
       id="path3099"
       style="fill:#393939;fill-opacity:1" />
    <path
       d="M 118.8,54 A 59.400002,54 0 1 1 0,54 59.400002,54 0 1 1 118.8,54 z"
       transform="matrix(0.75768244,0,0,0.8334507,945.1331,683.42972)"
       id="path3101"
       style="fill:#393939;fill-opacity:1" />
    <path
       d="M 118.8,54 A 59.400002,54 0 1 1 0,54 59.400002,54 0 1 1 118.8,54 z"
       transform="matrix(0.75768244,0,0,0.8334507,810.11408,188.36)"
       id="path3103"
       style="fill:#393939;fill-opacity:1" />
    <path
       d="M 118.8,54 A 59.400002,54 0 1 1 0,54 59.400002,54 0 1 1 118.8,54 z"
       transform="matrix(0.75768244,0,0,0.8334507,810.11408,386.38789)"
       id="path3105"
       style="fill:#393939;fill-opacity:1" />
    <path
       d="M 118.8,54 A 59.400002,54 0 1 1 0,54 59.400002,54 0 1 1 118.8,54 z"
       transform="matrix(0.75768244,0,0,0.8334507,810.11408,287.37394)"
       id="path3107"
       style="fill:#393939;fill-opacity:1" />
    <path
       d="M 118.8,54 A 59.400002,54 0 1 1 0,54 59.400002,54 0 1 1 118.8,54 z"
       transform="matrix(0.75768244,0,0,0.8334507,810.11408,485.40183)"
       id="path3109"
       style="fill:#393939;fill-opacity:1" />
    <path
       d="M 118.8,54 A 59.400002,54 0 1 1 0,54 59.400002,54 0 1 1 118.8,54 z"
       transform="matrix(0.75768244,0,0,0.8334507,810.11408,584.41577)"
       id="path3111"
       style="fill:#393939;fill-opacity:1" />
    <path
       d="M 118.8,54 A 59.400002,54 0 1 1 0,54 59.400002,54 0 1 1 118.8,54 z"
       transform="matrix(0.75768244,0,0,0.8334507,810.11408,683.42972)"
       id="path3113"
       style="fill:#393939;fill-opacity:1" />
    <path
       d="M 118.8,54 A 59.400002,54 0 1 1 0,54 59.400002,54 0 1 1 118.8,54 z"
       transform="matrix(0.75768244,0,0,0.8334507,810.11408,782.44366)"
       id="path3115"
       style="fill:#393939;fill-opacity:1" />
    <path
       d="M 118.8,54 A 59.400002,54 0 1 1 0,54 59.400002,54 0 1 1 118.8,54 z"
       transform="matrix(0.75768244,0,0,0.8334507,945.1331,782.44366)"
       id="path3117"
       style="fill:#393939;fill-opacity:1" />
    <path
       d="M 118.8,54 A 59.400002,54 0 1 1 0,54 59.400002,54 0 1 1 118.8,54 z"
       transform="matrix(0.75768244,0,0,0.8334507,1214.4653,188.62772)"
       id="path3091-1"
       style="fill:#393939;fill-opacity:1;display:inline" />
    <path
       d="M 118.8,54 A 59.400002,54 0 1 1 0,54 59.400002,54 0 1 1 118.8,54 z"
       transform="matrix(0.75768244,0,0,0.8334507,1214.4653,386.65561)"
       id="path3093-7"
       style="fill:#393939;fill-opacity:1;display:inline" />
    <path
       d="M 118.8,54 A 59.400002,54 0 1 1 0,54 59.400002,54 0 1 1 118.8,54 z"
       transform="matrix(0.75768244,0,0,0.8334507,1214.4653,287.64166)"
       id="path3095-4"
       style="fill:#393939;fill-opacity:1;display:inline" />
    <path
       d="M 118.8,54 A 59.400002,54 0 1 1 0,54 59.400002,54 0 1 1 118.8,54 z"
       transform="matrix(0.75768244,0,0,0.8334507,1214.4653,485.66955)"
       id="path3097-0"
       style="fill:#393939;fill-opacity:1;display:inline" />
    <path
       d="M 118.8,54 A 59.400002,54 0 1 1 0,54 59.400002,54 0 1 1 118.8,54 z"
       transform="matrix(0.75768244,0,0,0.8334507,1214.4653,584.68349)"
       id="path3099-9"
       style="fill:#393939;fill-opacity:1;display:inline" />
    <path
       d="M 118.8,54 A 59.400002,54 0 1 1 0,54 59.400002,54 0 1 1 118.8,54 z"
       transform="matrix(0.75768244,0,0,0.8334507,1214.4653,683.69744)"
       id="path3101-4"
       style="fill:#393939;fill-opacity:1;display:inline" />
    <path
       d="M 118.8,54 A 59.400002,54 0 1 1 0,54 59.400002,54 0 1 1 118.8,54 z"
       transform="matrix(0.75768244,0,0,0.8334507,1079.4463,188.62772)"
       id="path3103-8"
       style="fill:#393939;fill-opacity:1;display:inline" />
    <path
       d="M 118.8,54 A 59.400002,54 0 1 1 0,54 59.400002,54 0 1 1 118.8,54 z"
       transform="matrix(0.75768244,0,0,0.8334507,1079.4463,386.65561)"
       id="path3105-8"
       style="fill:#393939;fill-opacity:1;display:inline" />
    <path
       d="M 118.8,54 A 59.400002,54 0 1 1 0,54 59.400002,54 0 1 1 118.8,54 z"
       transform="matrix(0.75768244,0,0,0.8334507,1079.4463,287.64166)"
       id="path3107-2"
       style="fill:#393939;fill-opacity:1;display:inline" />
    <path
       d="M 118.8,54 A 59.400002,54 0 1 1 0,54 59.400002,54 0 1 1 118.8,54 z"
       transform="matrix(0.75768244,0,0,0.8334507,1079.4463,485.66955)"
       id="path3109-4"
       style="fill:#393939;fill-opacity:1;display:inline" />
    <path
       d="M 118.8,54 A 59.400002,54 0 1 1 0,54 59.400002,54 0 1 1 118.8,54 z"
       transform="matrix(0.75768244,0,0,0.8334507,1079.4463,584.68349)"
       id="path3111-5"
       style="fill:#393939;fill-opacity:1;display:inline" />
    <path
       d="M 118.8,54 A 59.400002,54 0 1 1 0,54 59.400002,54 0 1 1 118.8,54 z"
       transform="matrix(0.75768244,0,0,0.8334507,1079.4463,683.69744)"
       id="path3113-5"
       style="fill:#393939;fill-opacity:1;display:inline" />
    <path
       d="M 118.8,54 A 59.400002,54 0 1 1 0,54 59.400002,54 0 1 1 118.8,54 z"
       transform="matrix(0.75768244,0,0,0.8334507,1079.4463,782.71138)"
       id="path3115-1"
       style="fill:#393939;fill-opacity:1;display:inline" />
    <path
       d="M 118.8,54 A 59.400002,54 0 1 1 0,54 59.400002,54 0 1 1 118.8,54 z"
       transform="matrix(0.75768244,0,0,0.8334507,1214.4653,782.71138)"
       id="path3117-7"
       style="fill:#393939;fill-opacity:1;display:inline" />
    <path
       d="M 118.8,54 A 59.400002,54 0 1 1 0,54 59.400002,54 0 1 1 118.8,54 z"
       transform="matrix(0.75768244,0,0,0.8334507,-0.02433809,880.63513)"
       id="path4832"
       style="fill:#393939;fill-opacity:1" />
    <path
       d="M 118.8,54 A 59.400002,54 0 1 1 0,54 59.400002,54 0 1 1 118.8,54 z"
       transform="matrix(0.75768244,0,0,0.8334507,270.01369,880.63513)"
       id="path4834"
       style="fill:#393939;fill-opacity:1" />
    <path
       d="M 118.8,54 A 59.400002,54 0 1 1 0,54 59.400002,54 0 1 1 118.8,54 z"
       transform="matrix(0.75768244,0,0,0.8334507,134.99467,880.63513)"
       id="path4836"
       style="fill:#393939;fill-opacity:1" />
    <path
       d="M 118.8,54 A 59.400002,54 0 1 1 0,54 59.400002,54 0 1 1 118.8,54 z"
       transform="matrix(0.75768244,0,0,0.8334507,-0.02433809,979.64907)"
       id="path4838"
       style="fill:#393939;fill-opacity:1" />
    <path
       d="M 118.8,54 A 59.400002,54 0 1 1 0,54 59.400002,54 0 1 1 118.8,54 z"
       transform="matrix(0.75768244,0,0,0.8334507,134.99467,979.64907)"
       id="path4840"
       style="fill:#393939;fill-opacity:1" />
    <path
       d="M 118.8,54 A 59.400002,54 0 1 1 0,54 59.400002,54 0 1 1 118.8,54 z"
       transform="matrix(0.75768244,0,0,0.8334507,270.01369,979.64907)"
       id="path4842"
       style="fill:#393939;fill-opacity:1" />
    <path
       d="M 118.8,54 A 59.400002,54 0 1 1 0,54 59.400002,54 0 1 1 118.8,54 z"
       transform="matrix(0.75768244,0,0,0.8334507,405.0327,880.63513)"
       id="path4844"
       style="fill:#393939;fill-opacity:1" />
    <path
       d="M 118.8,54 A 59.400002,54 0 1 1 0,54 59.400002,54 0 1 1 118.8,54 z"
       transform="matrix(0.75768244,0,0,0.8334507,675.07073,880.63513)"
       id="path4846"
       style="fill:#393939;fill-opacity:1" />
    <path
       d="M 118.8,54 A 59.400002,54 0 1 1 0,54 59.400002,54 0 1 1 118.8,54 z"
       transform="matrix(0.75768244,0,0,0.8334507,540.05172,880.63513)"
       id="path4848"
       style="fill:#393939;fill-opacity:1" />
    <path
       d="M 118.8,54 A 59.400002,54 0 1 1 0,54 59.400002,54 0 1 1 118.8,54 z"
       transform="matrix(0.75768244,0,0,0.8334507,405.0327,979.64907)"
       id="path4850"
       style="fill:#393939;fill-opacity:1" />
    <path
       d="M 118.8,54 A 59.400002,54 0 1 1 0,54 59.400002,54 0 1 1 118.8,54 z"
       transform="matrix(0.75768244,0,0,0.8334507,540.05172,979.64907)"
       id="path4852"
       style="fill:#393939;fill-opacity:1" />
    <path
       d="M 118.8,54 A 59.400002,54 0 1 1 0,54 59.400002,54 0 1 1 118.8,54 z"
       transform="matrix(0.75768244,0,0,0.8334507,675.07073,979.64907)"
       id="path4854"
       style="fill:#393939;fill-opacity:1" />
    <path
       d="M 118.8,54 A 59.400002,54 0 1 1 0,54 59.400002,54 0 1 1 118.8,54 z"
       transform="matrix(0.75768244,0,0,0.8334507,945.10876,880.63513)"
       id="path4856"
       style="fill:#393939;fill-opacity:1" />
    <path
       d="M 118.8,54 A 59.400002,54 0 1 1 0,54 59.400002,54 0 1 1 118.8,54 z"
       transform="matrix(0.75768244,0,0,0.8334507,810.08974,880.63513)"
       id="path4858"
       style="fill:#393939;fill-opacity:1" />
    <path
       d="M 118.8,54 A 59.400002,54 0 1 1 0,54 59.400002,54 0 1 1 118.8,54 z"
       transform="matrix(0.75768244,0,0,0.8334507,810.08974,979.64907)"
       id="path4860"
       style="fill:#393939;fill-opacity:1" />
    <path
       d="M 118.8,54 A 59.400002,54 0 1 1 0,54 59.400002,54 0 1 1 118.8,54 z"
       transform="matrix(0.75768244,0,0,0.8334507,945.10876,979.64907)"
       id="path4862"
       style="fill:#393939;fill-opacity:1" />
    <path
       d="M 118.8,54 A 59.400002,54 0 1 1 0,54 59.400002,54 0 1 1 118.8,54 z"
       transform="matrix(0.75768244,0,0,0.8334507,1214.441,880.90285)"
       id="path4864"
       style="fill:#393939;fill-opacity:1;display:inline" />
    <path
       d="M 118.8,54 A 59.400002,54 0 1 1 0,54 59.400002,54 0 1 1 118.8,54 z"
       transform="matrix(0.75768244,0,0,0.8334507,1079.422,880.90285)"
       id="path4866"
       style="fill:#393939;fill-opacity:1;display:inline" />
    <path
       d="M 118.8,54 A 59.400002,54 0 1 1 0,54 59.400002,54 0 1 1 118.8,54 z"
       transform="matrix(0.75768244,0,0,0.8334507,1079.422,979.91679)"
       id="path4868"
       style="fill:#393939;fill-opacity:1;display:inline" />
    <path
       d="M 118.8,54 A 59.400002,54 0 1 1 0,54 59.400002,54 0 1 1 118.8,54 z"
       transform="matrix(0.75768244,0,0,0.8334507,1214.441,979.91679)"
       id="path4870"
       style="fill:#393939;fill-opacity:1;display:inline" />
  </g>
  <g
     transform="translate(0,-620.36)"
     id="g4071"
     style="opacity:0.97000002;display:none">
    <path
       d="M 118.8,54 A 59.400002,54 0 1 1 0,54 59.400002,54 0 1 1 118.8,54 z"
       transform="matrix(0.75727269,0,0,0.83299997,-7.9644093e-7,188.36)"
       id="path4075"
       style="fill:#393939;fill-opacity:1" />
    <path
       d="M 118.8,54 A 59.400002,54 0 1 1 0,54 59.400002,54 0 1 1 118.8,54 z"
       transform="matrix(0.75727269,0,0,0.83299997,-1.0073253e-6,368.288)"
       id="path4077"
       style="fill:#393939;fill-opacity:1" />
    <path
       d="M 118.8,54 A 59.400002,54 0 1 1 0,54 59.400002,54 0 1 1 118.8,54 z"
       transform="matrix(0.75727269,0,0,0.83299997,89.963996,278.324)"
       id="path4079"
       style="fill:#393939;fill-opacity:1" />
    <path
       d="M 118.8,54 A 59.400002,54 0 1 1 0,54 59.400002,54 0 1 1 118.8,54 z"
       transform="matrix(0.75727269,0,0,0.83299997,359.85598,368.288)"
       id="path4087"
       style="fill:#393939;fill-opacity:1" />
    <path
       d="M 118.8,54 A 59.400002,54 0 1 1 0,54 59.400002,54 0 1 1 118.8,54 z"
       transform="matrix(0.75727269,0,0,0.83299997,179.928,368.288)"
       id="path4089"
       style="fill:#393939;fill-opacity:1" />
    <path
       d="M 118.8,54 A 59.400002,54 0 1 1 0,54 59.400002,54 0 1 1 118.8,54 z"
       transform="matrix(0.75727269,0,0,0.83299997,539.78398,368.288)"
       id="path4091"
       style="fill:#393939;fill-opacity:1" />
    <path
       d="M 118.8,54 A 59.400002,54 0 1 1 0,54 59.400002,54 0 1 1 118.8,54 z"
       transform="matrix(0.75727269,0,0,0.83299997,179.928,188.36)"
       id="path4099"
       style="fill:#393939;fill-opacity:1" />
    <path
       d="M 118.8,54 A 59.400002,54 0 1 1 0,54 59.400002,54 0 1 1 118.8,54 z"
       transform="matrix(0.75727269,0,0,0.83299997,269.89199,278.324)"
       id="path4103"
       style="fill:#393939;fill-opacity:1" />
    <path
       d="M 118.8,54 A 59.400002,54 0 1 1 0,54 59.400002,54 0 1 1 118.8,54 z"
       transform="matrix(0.75727269,0,0,0.83299997,359.85598,188.36)"
       id="path4117"
       style="fill:#393939;fill-opacity:1" />
    <path
       d="M 118.8,54 A 59.400002,54 0 1 1 0,54 59.400002,54 0 1 1 118.8,54 z"
       transform="matrix(0.75727269,0,0,0.83299997,449.81998,278.324)"
       id="path4121"
       style="fill:#393939;fill-opacity:1" />
    <path
       d="M 118.8,54 A 59.400002,54 0 1 1 0,54 59.400002,54 0 1 1 118.8,54 z"
       transform="matrix(0.75727269,0,0,0.83299997,719.71197,188.36)"
       id="path4129"
       style="fill:#393939;fill-opacity:1" />
    <path
       d="M 118.8,54 A 59.400002,54 0 1 1 0,54 59.400002,54 0 1 1 118.8,54 z"
       transform="matrix(0.75727269,0,0,0.83299997,719.71197,368.288)"
       id="path4131"
       style="fill:#393939;fill-opacity:1" />
    <path
       d="M 118.8,54 A 59.400002,54 0 1 1 0,54 59.400002,54 0 1 1 118.8,54 z"
       transform="matrix(0.75727269,0,0,0.83299997,629.74798,278.324)"
       id="path4133"
       style="fill:#393939;fill-opacity:1" />
    <path
       d="M 118.8,54 A 59.400002,54 0 1 1 0,54 59.400002,54 0 1 1 118.8,54 z"
       transform="matrix(0.75727269,0,0,0.83299997,539.78398,188.36)"
       id="path4141"
       style="fill:#393939;fill-opacity:1" />
    <path
       d="M 118.8,54 A 59.400002,54 0 1 1 0,54 59.400002,54 0 1 1 118.8,54 z"
       transform="matrix(0.75727269,0,0,0.83299997,899.63996,368.288)"
       id="path4161"
       style="fill:#393939;fill-opacity:1" />
    <path
       d="M 118.8,54 A 59.400002,54 0 1 1 0,54 59.400002,54 0 1 1 118.8,54 z"
       transform="matrix(0.75727269,0,0,0.83299997,989.604,278.324)"
       id="path4163"
       style="fill:#393939;fill-opacity:1" />
    <path
       d="M 118.8,54 A 59.400002,54 0 1 1 0,54 59.400002,54 0 1 1 118.8,54 z"
       transform="matrix(0.75727269,0,0,0.83299997,899.63996,188.36)"
       id="path4171"
       style="fill:#393939;fill-opacity:1" />
    <path
       d="M 118.8,54 A 59.400002,54 0 1 1 0,54 59.400002,54 0 1 1 118.8,54 z"
       transform="matrix(0.75727269,0,0,0.83299997,809.67597,278.324)"
       id="path4175"
       style="fill:#393939;fill-opacity:1" />
    <path
       d="M 118.8,54 A 59.400002,54 0 1 1 0,54 59.400002,54 0 1 1 118.8,54 z"
       transform="matrix(0.75727269,0,0,0.83299997,-3.5063252e-6,549.88199)"
       id="path4269"
       style="fill:#393939;fill-opacity:1" />
    <path
       d="M 118.8,54 A 59.400002,54 0 1 1 0,54 59.400002,54 0 1 1 118.8,54 z"
       transform="matrix(0.75727269,0,0,0.83299997,89.963996,459.91799)"
       id="path4271"
       style="fill:#393939;fill-opacity:1" />
    <path
       d="M 118.8,54 A 59.400002,54 0 1 1 0,54 59.400002,54 0 1 1 118.8,54 z"
       transform="matrix(0.75727269,0,0,0.83299997,359.85598,549.88199)"
       id="path4273"
       style="fill:#393939;fill-opacity:1" />
    <path
       d="M 118.8,54 A 59.400002,54 0 1 1 0,54 59.400002,54 0 1 1 118.8,54 z"
       transform="matrix(0.75727269,0,0,0.83299997,179.928,549.88199)"
       id="path4275"
       style="fill:#393939;fill-opacity:1" />
    <path
       d="M 118.8,54 A 59.400002,54 0 1 1 0,54 59.400002,54 0 1 1 118.8,54 z"
       transform="matrix(0.75727269,0,0,0.83299997,539.78398,549.88199)"
       id="path4277"
       style="fill:#393939;fill-opacity:1" />
    <path
       d="M 118.8,54 A 59.400002,54 0 1 1 0,54 59.400002,54 0 1 1 118.8,54 z"
       transform="matrix(0.75727269,0,0,0.83299997,269.89199,459.91799)"
       id="path4279"
       style="fill:#393939;fill-opacity:1" />
    <path
       d="M 118.8,54 A 59.400002,54 0 1 1 0,54 59.400002,54 0 1 1 118.8,54 z"
       transform="matrix(0.75727269,0,0,0.83299997,449.81998,459.91799)"
       id="path4281"
       style="fill:#393939;fill-opacity:1" />
    <path
       d="M 118.8,54 A 59.400002,54 0 1 1 0,54 59.400002,54 0 1 1 118.8,54 z"
       transform="matrix(0.75727269,0,0,0.83299997,719.71197,549.88199)"
       id="path4283"
       style="fill:#393939;fill-opacity:1" />
    <path
       d="M 118.8,54 A 59.400002,54 0 1 1 0,54 59.400002,54 0 1 1 118.8,54 z"
       transform="matrix(0.75727269,0,0,0.83299997,629.74798,459.91799)"
       id="path4285"
       style="fill:#393939;fill-opacity:1" />
    <path
       d="M 118.8,54 A 59.400002,54 0 1 1 0,54 59.400002,54 0 1 1 118.8,54 z"
       transform="matrix(0.75727269,0,0,0.83299997,899.63996,549.88199)"
       id="path4287"
       style="fill:#393939;fill-opacity:1" />
    <path
       d="M 118.8,54 A 59.400002,54 0 1 1 0,54 59.400002,54 0 1 1 118.8,54 z"
       transform="matrix(0.75727269,0,0,0.83299997,989.604,459.91799)"
       id="path4289"
       style="fill:#393939;fill-opacity:1" />
    <path
       d="M 118.8,54 A 59.400002,54 0 1 1 0,54 59.400002,54 0 1 1 118.8,54 z"
       transform="matrix(0.75727269,0,0,0.83299997,809.67597,459.91799)"
       id="path4291"
       style="fill:#393939;fill-opacity:1" />
    <path
       d="M 118.8,54 A 59.400002,54 0 1 1 0,54 59.400002,54 0 1 1 118.8,54 z"
       transform="matrix(0.75727269,0,0,0.83299997,89.963996,638.17998)"
       id="path4293"
       style="fill:#393939;fill-opacity:1" />
    <path
       d="M 118.8,54 A 59.400002,54 0 1 1 0,54 59.400002,54 0 1 1 118.8,54 z"
       transform="matrix(0.75727269,0,0,0.83299997,359.85598,728.14398)"
       id="path4295"
       style="fill:#393939;fill-opacity:1" />
    <path
       d="M 118.8,54 A 59.400002,54 0 1 1 0,54 59.400002,54 0 1 1 118.8,54 z"
       transform="matrix(0.75727269,0,0,0.83299997,179.928,728.14398)"
       id="path4297"
       style="fill:#393939;fill-opacity:1" />
    <path
       d="M 118.8,54 A 59.400002,54 0 1 1 0,54 59.400002,54 0 1 1 118.8,54 z"
       transform="matrix(0.75727269,0,0,0.83299997,539.78398,728.14398)"
       id="path4299"
       style="fill:#393939;fill-opacity:1" />
    <path
       d="M 118.8,54 A 59.400002,54 0 1 1 0,54 59.400002,54 0 1 1 118.8,54 z"
       transform="matrix(0.75727269,0,0,0.83299997,269.89199,638.17998)"
       id="path4301"
       style="fill:#393939;fill-opacity:1" />
    <path
       d="M 118.8,54 A 59.400002,54 0 1 1 0,54 59.400002,54 0 1 1 118.8,54 z"
       transform="matrix(0.75727269,0,0,0.83299997,449.81998,638.17998)"
       id="path4303"
       style="fill:#393939;fill-opacity:1" />
    <path
       d="M 118.8,54 A 59.400002,54 0 1 1 0,54 59.400002,54 0 1 1 118.8,54 z"
       transform="matrix(0.75727269,0,0,0.83299997,719.71197,728.14398)"
       id="path4305"
       style="fill:#393939;fill-opacity:1" />
    <path
       d="M 118.8,54 A 59.400002,54 0 1 1 0,54 59.400002,54 0 1 1 118.8,54 z"
       transform="matrix(0.75727269,0,0,0.83299997,629.74798,638.17998)"
       id="path4307"
       style="fill:#393939;fill-opacity:1" />
    <path
       d="M 118.8,54 A 59.400002,54 0 1 1 0,54 59.400002,54 0 1 1 118.8,54 z"
       transform="matrix(0.75727269,0,0,0.83299997,899.63996,728.14398)"
       id="path4309"
       style="fill:#393939;fill-opacity:1" />
    <path
       d="M 118.8,54 A 59.400002,54 0 1 1 0,54 59.400002,54 0 1 1 118.8,54 z"
       transform="matrix(0.75727269,0,0,0.83299997,989.604,638.17998)"
       id="path4311"
       style="fill:#393939;fill-opacity:1" />
    <path
       d="M 118.8,54 A 59.400002,54 0 1 1 0,54 59.400002,54 0 1 1 118.8,54 z"
       transform="matrix(0.75727269,0,0,0.83299997,809.67597,638.17998)"
       id="path4313"
       style="fill:#393939;fill-opacity:1" />
    <path
       d="M 118.8,54 A 59.400002,54 0 1 1 0,54 59.400002,54 0 1 1 118.8,54 z"
       transform="matrix(0.75727269,0,0,0.83299997,89.963996,819.77398)"
       id="path4315"
       style="fill:#393939;fill-opacity:1" />
    <path
       d="M 118.8,54 A 59.400002,54 0 1 1 0,54 59.400002,54 0 1 1 118.8,54 z"
       transform="matrix(0.75727269,0,0,0.83299997,269.89199,819.77398)"
       id="path4317"
       style="fill:#393939;fill-opacity:1" />
    <path
       d="M 118.8,54 A 59.400002,54 0 1 1 0,54 59.400002,54 0 1 1 118.8,54 z"
       transform="matrix(0.75727269,0,0,0.83299997,449.81998,819.77398)"
       id="path4319"
       style="fill:#393939;fill-opacity:1" />
    <path
       d="M 118.8,54 A 59.400002,54 0 1 1 0,54 59.400002,54 0 1 1 118.8,54 z"
       transform="matrix(0.75727269,0,0,0.83299997,629.74798,819.77398)"
       id="path4321"
       style="fill:#393939;fill-opacity:1" />
    <path
       d="M 118.8,54 A 59.400002,54 0 1 1 0,54 59.400002,54 0 1 1 118.8,54 z"
       transform="matrix(0.75727269,0,0,0.83299997,989.604,819.77398)"
       id="path4323"
       style="fill:#393939;fill-opacity:1" />
    <path
       d="M 118.8,54 A 59.400002,54 0 1 1 0,54 59.400002,54 0 1 1 118.8,54 z"
       transform="matrix(0.75727269,0,0,0.83299997,809.67597,819.77398)"
       id="path4325"
       style="fill:#393939;fill-opacity:1" />
    <path
       d="M 118.8,54 A 59.400002,54 0 1 1 0,54 59.400002,54 0 1 1 118.8,54 z"
       transform="matrix(0.75727269,0,0,0.83299997,-7.9644088e-7,728.14398)"
       id="path4327"
       style="fill:#393939;fill-opacity:1" />
    <path
       d="M 118.8,54 A 59.400002,54 0 1 1 0,54 59.400002,54 0 1 1 118.8,54 z"
       transform="matrix(0.75727269,0,0,0.83299997,1079.568,367.63)"
       id="path4872"
       style="fill:#393939;fill-opacity:1" />
    <path
       d="M 118.8,54 A 59.400002,54 0 1 1 0,54 59.400002,54 0 1 1 118.8,54 z"
       transform="matrix(0.75727269,0,0,0.83299997,1169.532,277.666)"
       id="path4874"
       style="fill:#393939;fill-opacity:1" />
    <path
       d="M 118.8,54 A 59.400002,54 0 1 1 0,54 59.400002,54 0 1 1 118.8,54 z"
       transform="matrix(0.75727269,0,0,0.83299997,1079.568,187.702)"
       id="path4876"
       style="fill:#393939;fill-opacity:1" />
    <path
       d="M 118.8,54 A 59.400002,54 0 1 1 0,54 59.400002,54 0 1 1 118.8,54 z"
       transform="matrix(0.75727269,0,0,0.83299997,1079.568,549.22399)"
       id="path4878"
       style="fill:#393939;fill-opacity:1" />
    <path
       d="M 118.8,54 A 59.400002,54 0 1 1 0,54 59.400002,54 0 1 1 118.8,54 z"
       transform="matrix(0.75727269,0,0,0.83299997,1169.532,459.25999)"
       id="path4880"
       style="fill:#393939;fill-opacity:1" />
    <path
       d="M 118.8,54 A 59.400002,54 0 1 1 0,54 59.400002,54 0 1 1 118.8,54 z"
       transform="matrix(0.75727269,0,0,0.83299997,1079.568,727.48598)"
       id="path4882"
       style="fill:#393939;fill-opacity:1" />
    <path
       d="M 118.8,54 A 59.400002,54 0 1 1 0,54 59.400002,54 0 1 1 118.8,54 z"
       transform="matrix(0.75727269,0,0,0.83299997,1169.532,637.52198)"
       id="path4884"
       style="fill:#393939;fill-opacity:1" />
    <path
       d="M 118.8,54 A 59.400002,54 0 1 1 0,54 59.400002,54 0 1 1 118.8,54 z"
       transform="matrix(0.75727269,0,0,0.83299997,1169.532,819.11598)"
       id="path4886"
       style="fill:#393939;fill-opacity:1" />
    <path
       d="M 118.8,54 A 59.400002,54 0 1 1 0,54 59.400002,54 0 1 1 118.8,54 z"
       transform="matrix(0.75727269,0,0,0.83299997,359.85598,917.414)"
       id="path4888"
       style="fill:#393939;fill-opacity:1" />
    <path
       d="M 118.8,54 A 59.400002,54 0 1 1 0,54 59.400002,54 0 1 1 118.8,54 z"
       transform="matrix(0.75727269,0,0,0.83299997,179.928,917.414)"
       id="path4890"
       style="fill:#393939;fill-opacity:1" />
    <path
       d="M 118.8,54 A 59.400002,54 0 1 1 0,54 59.400002,54 0 1 1 118.8,54 z"
       transform="matrix(0.75727269,0,0,0.83299997,539.78398,917.414)"
       id="path4892"
       style="fill:#393939;fill-opacity:1" />
    <path
       d="M 118.8,54 A 59.400002,54 0 1 1 0,54 59.400002,54 0 1 1 118.8,54 z"
       transform="matrix(0.75727269,0,0,0.83299997,719.71197,917.414)"
       id="path4894"
       style="fill:#393939;fill-opacity:1" />
    <path
       d="M 118.8,54 A 59.400002,54 0 1 1 0,54 59.400002,54 0 1 1 118.8,54 z"
       transform="matrix(0.75727269,0,0,0.83299997,899.63996,917.414)"
       id="path4896"
       style="fill:#393939;fill-opacity:1" />
    <path
       d="M 118.8,54 A 59.400002,54 0 1 1 0,54 59.400002,54 0 1 1 118.8,54 z"
       transform="matrix(0.75727269,0,0,0.83299997,1.0584936e-6,917.414)"
       id="path4898"
       style="fill:#393939;fill-opacity:1" />
    <path
       d="M 118.8,54 A 59.400002,54 0 1 1 0,54 59.400002,54 0 1 1 118.8,54 z"
       transform="matrix(0.75727269,0,0,0.83299997,1079.568,916.756)"
       id="path4900"
       style="fill:#393939;fill-opacity:1" />
  </g>
</svg>
