<?xml version="1.0" encoding="UTF-8" standalone="no"?>
<!-- Created with Inkscape (http://www.inkscape.org/) -->

<svg
   xmlns:dc="http://purl.org/dc/elements/1.1/"
   xmlns:cc="http://creativecommons.org/ns#"
   xmlns:rdf="http://www.w3.org/1999/02/22-rdf-syntax-ns#"
   xmlns:svg="http://www.w3.org/2000/svg"
   xmlns="http://www.w3.org/2000/svg"
   xmlns:sodipodi="http://sodipodi.sourceforge.net/DTD/sodipodi-0.dtd"
   xmlns:inkscape="http://www.inkscape.org/namespaces/inkscape"
   width="12960"
   height="8640"
   id="svg2"
   version="1.1"
   inkscape:version="0.48.4 r9939"
   sodipodi:docname="dots2-ink.svg">
  <defs
     id="defs4" />
  <sodipodi:namedview
     id="base"
     pagecolor="#ffffff"
     bordercolor="#666666"
     borderopacity="1.0"
     inkscape:pageopacity="0.0"
     inkscape:pageshadow="2"
     inkscape:zoom="0.086772068"
     inkscape:cx="6778.6088"
     inkscape:cy="4217.1388"
     inkscape:document-units="in"
     inkscape:current-layer="layer3"
     showgrid="true"
     units="in"
     inkscape:window-width="1789"
     inkscape:window-height="1003"
     inkscape:window-x="85"
     inkscape:window-y="12"
     inkscape:window-maximized="0"
     gridtolerance="10">
    <inkscape:grid
       type="xygrid"
       id="grid2985"
       empspacing="12"
       visible="true"
       enabled="true"
       snapvisiblegridlinesonly="true"
       units="in"
       spacingx="1in"
       spacingy="1in"
       dotted="false" />
  </sodipodi:namedview>
  <metadata
     id="metadata7">
    <rdf:RDF>
      <cc:Work
         rdf:about="">
        <dc:format>image/svg+xml</dc:format>
        <dc:type
           rdf:resource="http://purl.org/dc/dcmitype/StillImage" />
        <dc:title></dc:title>
      </cc:Work>
    </rdf:RDF>
  </metadata>
  <g
     inkscape:label="Layer 1"
     inkscape:groupmode="layer"
     id="layer1"
     transform="translate(0,7587.6403)"
     style="display:inline">
    <path
       sodipodi:type="arc"
       style="fill:#1a1a1a;fill-opacity:1;fill-rule:nonzero;stroke:none"
       id="path4023"
       sodipodi:cx="540"
       sodipodi:cy="540"
       sodipodi:rx="540"
       sodipodi:ry="540"
       d="M 1080,540 A 540,540 0 1 1 0,540 540,540 0 1 1 1080,540 z"
       transform="translate(0,-7587.6403)" />
    <path
       sodipodi:type="arc"
       style="fill:#1a1a1a;fill-opacity:1;fill-rule:nonzero;stroke:none"
       id="path4023-1"
       sodipodi:cx="540"
       sodipodi:cy="540"
       sodipodi:rx="540"
       sodipodi:ry="540"
       d="M 1080,540 A 540,540 0 1 1 0,540 540,540 0 1 1 1080,540 z"
       transform="translate(1260,-7589.4585)" />
    <path
       transform="translate(2520,-7587.6403)"
       d="M 1080,540 A 540,540 0 1 1 0,540 540,540 0 1 1 1080,540 z"
       sodipodi:ry="540"
       sodipodi:rx="540"
       sodipodi:cy="540"
       sodipodi:cx="540"
       id="path4043"
       style="fill:#1a1a1a;fill-opacity:1;fill-rule:nonzero;stroke:none"
       sodipodi:type="arc" />
    <path
       transform="translate(3780,-7587.6403)"
       d="M 1080,540 A 540,540 0 1 1 0,540 540,540 0 1 1 1080,540 z"
       sodipodi:ry="540"
       sodipodi:rx="540"
       sodipodi:cy="540"
       sodipodi:cx="540"
       id="path4045"
       style="fill:#1a1a1a;fill-opacity:1;fill-rule:nonzero;stroke:none"
       sodipodi:type="arc" />
    <path
       transform="translate(5040,-7587.6403)"
       sodipodi:type="arc"
       style="fill:#1a1a1a;fill-opacity:1;fill-rule:nonzero;stroke:none"
       id="path4023-7"
       sodipodi:cx="540"
       sodipodi:cy="540"
       sodipodi:rx="540"
       sodipodi:ry="540"
       d="M 1080,540 A 540,540 0 1 1 0,540 540,540 0 1 1 1080,540 z" />
    <path
       sodipodi:type="arc"
       style="fill:#1a1a1a;fill-opacity:1;fill-rule:nonzero;stroke:none"
       id="path4023-1-4"
       sodipodi:cx="540"
       sodipodi:cy="540"
       sodipodi:rx="540"
       sodipodi:ry="540"
       d="M 1080,540 A 540,540 0 1 1 0,540 540,540 0 1 1 1080,540 z"
       transform="translate(6300,-7589.4585)" />
    <path
       transform="translate(7560,-7587.6403)"
       d="M 1080,540 A 540,540 0 1 1 0,540 540,540 0 1 1 1080,540 z"
       sodipodi:ry="540"
       sodipodi:rx="540"
       sodipodi:cy="540"
       sodipodi:cx="540"
       id="path4043-0"
       style="fill:#1a1a1a;fill-opacity:1;fill-rule:nonzero;stroke:none"
       sodipodi:type="arc" />
    <path
       transform="translate(8820,-7587.6403)"
       d="M 1080,540 A 540,540 0 1 1 0,540 540,540 0 1 1 1080,540 z"
       sodipodi:ry="540"
       sodipodi:rx="540"
       sodipodi:cy="540"
       sodipodi:cx="540"
       id="path4045-9"
       style="fill:#1a1a1a;fill-opacity:1;fill-rule:nonzero;stroke:none"
       sodipodi:type="arc" />
    <path
       sodipodi:type="arc"
       style="fill:#1a1a1a;fill-opacity:1;fill-rule:nonzero;stroke:none"
       id="path4074"
       sodipodi:cx="540"
       sodipodi:cy="540"
       sodipodi:rx="540"
       sodipodi:ry="540"
       d="M 1080,540 A 540,540 0 1 1 0,540 540,540 0 1 1 1080,540 z"
       transform="translate(10080,-7587.6403)" />
    <path
       sodipodi:type="arc"
       style="fill:#1a1a1a;fill-opacity:1;fill-rule:nonzero;stroke:none"
       id="path4076"
       sodipodi:cx="540"
       sodipodi:cy="540"
       sodipodi:rx="540"
       sodipodi:ry="540"
       d="M 1080,540 A 540,540 0 1 1 0,540 540,540 0 1 1 1080,540 z"
       transform="translate(11340,-7587.6403)" />
    <path
       transform="translate(-3.371596e-6,-6327.6403)"
       sodipodi:type="arc"
       style="fill:#1a1a1a;fill-opacity:1;fill-rule:nonzero;stroke:none"
       id="path4023-4"
       sodipodi:cx="540"
       sodipodi:cy="540"
       sodipodi:rx="540"
       sodipodi:ry="540"
       d="M 1080,540 A 540,540 0 1 1 0,540 540,540 0 1 1 1080,540 z" />
    <path
       sodipodi:type="arc"
       style="fill:#1a1a1a;fill-opacity:1;fill-rule:nonzero;stroke:none"
       id="path4023-1-8"
       sodipodi:cx="540"
       sodipodi:cy="540"
       sodipodi:rx="540"
       sodipodi:ry="540"
       d="M 1080,540 A 540,540 0 1 1 0,540 540,540 0 1 1 1080,540 z"
       transform="translate(1260,-6329.4585)" />
    <path
       transform="translate(2520,-6327.6403)"
       d="M 1080,540 A 540,540 0 1 1 0,540 540,540 0 1 1 1080,540 z"
       sodipodi:ry="540"
       sodipodi:rx="540"
       sodipodi:cy="540"
       sodipodi:cx="540"
       id="path4043-8"
       style="fill:#1a1a1a;fill-opacity:1;fill-rule:nonzero;stroke:none"
       sodipodi:type="arc" />
    <path
       transform="translate(3780,-6327.6403)"
       d="M 1080,540 A 540,540 0 1 1 0,540 540,540 0 1 1 1080,540 z"
       sodipodi:ry="540"
       sodipodi:rx="540"
       sodipodi:cy="540"
       sodipodi:cx="540"
       id="path4045-2"
       style="fill:#1a1a1a;fill-opacity:1;fill-rule:nonzero;stroke:none"
       sodipodi:type="arc" />
    <path
       transform="translate(5040,-6327.6403)"
       sodipodi:type="arc"
       style="fill:#1a1a1a;fill-opacity:1;fill-rule:nonzero;stroke:none"
       id="path4023-7-4"
       sodipodi:cx="540"
       sodipodi:cy="540"
       sodipodi:rx="540"
       sodipodi:ry="540"
       d="M 1080,540 A 540,540 0 1 1 0,540 540,540 0 1 1 1080,540 z" />
    <path
       sodipodi:type="arc"
       style="fill:#1a1a1a;fill-opacity:1;fill-rule:nonzero;stroke:none"
       id="path4023-1-4-5"
       sodipodi:cx="540"
       sodipodi:cy="540"
       sodipodi:rx="540"
       sodipodi:ry="540"
       d="M 1080,540 A 540,540 0 1 1 0,540 540,540 0 1 1 1080,540 z"
       transform="translate(6300,-6329.4585)" />
    <path
       transform="translate(7560,-6327.6403)"
       d="M 1080,540 A 540,540 0 1 1 0,540 540,540 0 1 1 1080,540 z"
       sodipodi:ry="540"
       sodipodi:rx="540"
       sodipodi:cy="540"
       sodipodi:cx="540"
       id="path4043-0-5"
       style="fill:#1a1a1a;fill-opacity:1;fill-rule:nonzero;stroke:none"
       sodipodi:type="arc" />
    <path
       transform="translate(8820,-6327.6403)"
       d="M 1080,540 A 540,540 0 1 1 0,540 540,540 0 1 1 1080,540 z"
       sodipodi:ry="540"
       sodipodi:rx="540"
       sodipodi:cy="540"
       sodipodi:cx="540"
       id="path4045-9-1"
       style="fill:#1a1a1a;fill-opacity:1;fill-rule:nonzero;stroke:none"
       sodipodi:type="arc" />
    <path
       sodipodi:type="arc"
       style="fill:#1a1a1a;fill-opacity:1;fill-rule:nonzero;stroke:none"
       id="path4074-7"
       sodipodi:cx="540"
       sodipodi:cy="540"
       sodipodi:rx="540"
       sodipodi:ry="540"
       d="M 1080,540 A 540,540 0 1 1 0,540 540,540 0 1 1 1080,540 z"
       transform="translate(10080,-6327.6403)" />
    <path
       sodipodi:type="arc"
       style="fill:#1a1a1a;fill-opacity:1;fill-rule:nonzero;stroke:none"
       id="path4076-1"
       sodipodi:cx="540"
       sodipodi:cy="540"
       sodipodi:rx="540"
       sodipodi:ry="540"
       d="M 1080,540 A 540,540 0 1 1 0,540 540,540 0 1 1 1080,540 z"
       transform="translate(11340,-6327.6403)" />
    <path
       transform="translate(0,-5067.6403)"
       sodipodi:type="arc"
       style="fill:#1a1a1a;fill-opacity:1;fill-rule:nonzero;stroke:none"
       id="path4023-15"
       sodipodi:cx="540"
       sodipodi:cy="540"
       sodipodi:rx="540"
       sodipodi:ry="540"
       d="M 1080,540 A 540,540 0 1 1 0,540 540,540 0 1 1 1080,540 z" />
    <path
       sodipodi:type="arc"
       style="fill:#1a1a1a;fill-opacity:1;fill-rule:nonzero;stroke:none"
       id="path4023-1-2"
       sodipodi:cx="540"
       sodipodi:cy="540"
       sodipodi:rx="540"
       sodipodi:ry="540"
       d="M 1080,540 A 540,540 0 1 1 0,540 540,540 0 1 1 1080,540 z"
       transform="translate(1260,-5069.4585)" />
    <path
       transform="translate(2520,-5067.6403)"
       d="M 1080,540 A 540,540 0 1 1 0,540 540,540 0 1 1 1080,540 z"
       sodipodi:ry="540"
       sodipodi:rx="540"
       sodipodi:cy="540"
       sodipodi:cx="540"
       id="path4043-7"
       style="fill:#1a1a1a;fill-opacity:1;fill-rule:nonzero;stroke:none"
       sodipodi:type="arc" />
    <path
       transform="translate(3780,-5067.6403)"
       d="M 1080,540 A 540,540 0 1 1 0,540 540,540 0 1 1 1080,540 z"
       sodipodi:ry="540"
       sodipodi:rx="540"
       sodipodi:cy="540"
       sodipodi:cx="540"
       id="path4045-6"
       style="fill:#1a1a1a;fill-opacity:1;fill-rule:nonzero;stroke:none"
       sodipodi:type="arc" />
    <path
       transform="translate(5040,-5067.6403)"
       sodipodi:type="arc"
       style="fill:#1a1a1a;fill-opacity:1;fill-rule:nonzero;stroke:none"
       id="path4023-7-1"
       sodipodi:cx="540"
       sodipodi:cy="540"
       sodipodi:rx="540"
       sodipodi:ry="540"
       d="M 1080,540 A 540,540 0 1 1 0,540 540,540 0 1 1 1080,540 z" />
    <path
       sodipodi:type="arc"
       style="fill:#1a1a1a;fill-opacity:1;fill-rule:nonzero;stroke:none"
       id="path4023-1-4-4"
       sodipodi:cx="540"
       sodipodi:cy="540"
       sodipodi:rx="540"
       sodipodi:ry="540"
       d="M 1080,540 A 540,540 0 1 1 0,540 540,540 0 1 1 1080,540 z"
       transform="translate(6300,-5069.4585)" />
    <path
       transform="translate(7560,-5067.6403)"
       d="M 1080,540 A 540,540 0 1 1 0,540 540,540 0 1 1 1080,540 z"
       sodipodi:ry="540"
       sodipodi:rx="540"
       sodipodi:cy="540"
       sodipodi:cx="540"
       id="path4043-0-2"
       style="fill:#1a1a1a;fill-opacity:1;fill-rule:nonzero;stroke:none"
       sodipodi:type="arc" />
    <path
       transform="translate(8820,-5067.6403)"
       d="M 1080,540 A 540,540 0 1 1 0,540 540,540 0 1 1 1080,540 z"
       sodipodi:ry="540"
       sodipodi:rx="540"
       sodipodi:cy="540"
       sodipodi:cx="540"
       id="path4045-9-3"
       style="fill:#1a1a1a;fill-opacity:1;fill-rule:nonzero;stroke:none"
       sodipodi:type="arc" />
    <path
       sodipodi:type="arc"
       style="fill:#1a1a1a;fill-opacity:1;fill-rule:nonzero;stroke:none"
       id="path4074-2"
       sodipodi:cx="540"
       sodipodi:cy="540"
       sodipodi:rx="540"
       sodipodi:ry="540"
       d="M 1080,540 A 540,540 0 1 1 0,540 540,540 0 1 1 1080,540 z"
       transform="translate(10080,-5067.6403)" />
    <path
       sodipodi:type="arc"
       style="fill:#1a1a1a;fill-opacity:1;fill-rule:nonzero;stroke:none"
       id="path4076-2"
       sodipodi:cx="540"
       sodipodi:cy="540"
       sodipodi:rx="540"
       sodipodi:ry="540"
       d="M 1080,540 A 540,540 0 1 1 0,540 540,540 0 1 1 1080,540 z"
       transform="translate(11340,-5067.6403)" />
    <path
       transform="translate(0,-3807.6403)"
       sodipodi:type="arc"
       style="fill:#1a1a1a;fill-opacity:1;fill-rule:nonzero;stroke:none"
       id="path4023-4-1"
       sodipodi:cx="540"
       sodipodi:cy="540"
       sodipodi:rx="540"
       sodipodi:ry="540"
       d="M 1080,540 A 540,540 0 1 1 0,540 540,540 0 1 1 1080,540 z" />
    <path
       sodipodi:type="arc"
       style="fill:#1a1a1a;fill-opacity:1;fill-rule:nonzero;stroke:none"
       id="path4023-1-8-6"
       sodipodi:cx="540"
       sodipodi:cy="540"
       sodipodi:rx="540"
       sodipodi:ry="540"
       d="M 1080,540 A 540,540 0 1 1 0,540 540,540 0 1 1 1080,540 z"
       transform="translate(1260,-3809.4585)" />
    <path
       transform="translate(2520,-3807.6403)"
       d="M 1080,540 A 540,540 0 1 1 0,540 540,540 0 1 1 1080,540 z"
       sodipodi:ry="540"
       sodipodi:rx="540"
       sodipodi:cy="540"
       sodipodi:cx="540"
       id="path4043-8-8"
       style="fill:#1a1a1a;fill-opacity:1;fill-rule:nonzero;stroke:none"
       sodipodi:type="arc" />
    <path
       transform="translate(3780,-3807.6403)"
       d="M 1080,540 A 540,540 0 1 1 0,540 540,540 0 1 1 1080,540 z"
       sodipodi:ry="540"
       sodipodi:rx="540"
       sodipodi:cy="540"
       sodipodi:cx="540"
       id="path4045-2-5"
       style="fill:#1a1a1a;fill-opacity:1;fill-rule:nonzero;stroke:none"
       sodipodi:type="arc" />
    <path
       transform="translate(5040,-3807.6403)"
       sodipodi:type="arc"
       style="fill:#1a1a1a;fill-opacity:1;fill-rule:nonzero;stroke:none"
       id="path4023-7-4-7"
       sodipodi:cx="540"
       sodipodi:cy="540"
       sodipodi:rx="540"
       sodipodi:ry="540"
       d="M 1080,540 A 540,540 0 1 1 0,540 540,540 0 1 1 1080,540 z" />
    <path
       sodipodi:type="arc"
       style="fill:#1a1a1a;fill-opacity:1;fill-rule:nonzero;stroke:none"
       id="path4023-1-4-5-6"
       sodipodi:cx="540"
       sodipodi:cy="540"
       sodipodi:rx="540"
       sodipodi:ry="540"
       d="M 1080,540 A 540,540 0 1 1 0,540 540,540 0 1 1 1080,540 z"
       transform="translate(6300,-3809.4585)" />
    <path
       transform="translate(7560,-3807.6403)"
       d="M 1080,540 A 540,540 0 1 1 0,540 540,540 0 1 1 1080,540 z"
       sodipodi:ry="540"
       sodipodi:rx="540"
       sodipodi:cy="540"
       sodipodi:cx="540"
       id="path4043-0-5-1"
       style="fill:#1a1a1a;fill-opacity:1;fill-rule:nonzero;stroke:none"
       sodipodi:type="arc" />
    <path
       transform="translate(8820,-3807.6403)"
       d="M 1080,540 A 540,540 0 1 1 0,540 540,540 0 1 1 1080,540 z"
       sodipodi:ry="540"
       sodipodi:rx="540"
       sodipodi:cy="540"
       sodipodi:cx="540"
       id="path4045-9-1-8"
       style="fill:#1a1a1a;fill-opacity:1;fill-rule:nonzero;stroke:none"
       sodipodi:type="arc" />
    <path
       sodipodi:type="arc"
       style="fill:#1a1a1a;fill-opacity:1;fill-rule:nonzero;stroke:none"
       id="path4074-7-9"
       sodipodi:cx="540"
       sodipodi:cy="540"
       sodipodi:rx="540"
       sodipodi:ry="540"
       d="M 1080,540 A 540,540 0 1 1 0,540 540,540 0 1 1 1080,540 z"
       transform="translate(10080,-3807.6403)" />
    <path
       sodipodi:type="arc"
       style="fill:#1a1a1a;fill-opacity:1;fill-rule:nonzero;stroke:none"
       id="path4076-1-2"
       sodipodi:cx="540"
       sodipodi:cy="540"
       sodipodi:rx="540"
       sodipodi:ry="540"
       d="M 1080,540 A 540,540 0 1 1 0,540 540,540 0 1 1 1080,540 z"
       transform="translate(11340,-3807.6403)" />
    <path
       transform="translate(11.107536,-2552.1026)"
       sodipodi:type="arc"
       style="fill:#1a1a1a;fill-opacity:1;fill-rule:nonzero;stroke:none"
       id="path4023-79"
       sodipodi:cx="540"
       sodipodi:cy="540"
       sodipodi:rx="540"
       sodipodi:ry="540"
       d="M 1080,540 A 540,540 0 1 1 0,540 540,540 0 1 1 1080,540 z" />
    <path
       sodipodi:type="arc"
       style="fill:#1a1a1a;fill-opacity:1;fill-rule:nonzero;stroke:none"
       id="path4023-1-5"
       sodipodi:cx="540"
       sodipodi:cy="540"
       sodipodi:rx="540"
       sodipodi:ry="540"
       d="M 1080,540 A 540,540 0 1 1 0,540 540,540 0 1 1 1080,540 z"
       transform="translate(1271.1075,-2553.9208)" />
    <path
       transform="translate(2531.1075,-2552.1026)"
       d="M 1080,540 A 540,540 0 1 1 0,540 540,540 0 1 1 1080,540 z"
       sodipodi:ry="540"
       sodipodi:rx="540"
       sodipodi:cy="540"
       sodipodi:cx="540"
       id="path4043-4"
       style="fill:#1a1a1a;fill-opacity:1;fill-rule:nonzero;stroke:none"
       sodipodi:type="arc" />
    <path
       transform="translate(3791.1075,-2552.1026)"
       d="M 1080,540 A 540,540 0 1 1 0,540 540,540 0 1 1 1080,540 z"
       sodipodi:ry="540"
       sodipodi:rx="540"
       sodipodi:cy="540"
       sodipodi:cx="540"
       id="path4045-3"
       style="fill:#1a1a1a;fill-opacity:1;fill-rule:nonzero;stroke:none"
       sodipodi:type="arc" />
    <path
       transform="translate(5051.1075,-2552.1026)"
       sodipodi:type="arc"
       style="fill:#1a1a1a;fill-opacity:1;fill-rule:nonzero;stroke:none"
       id="path4023-7-12"
       sodipodi:cx="540"
       sodipodi:cy="540"
       sodipodi:rx="540"
       sodipodi:ry="540"
       d="M 1080,540 A 540,540 0 1 1 0,540 540,540 0 1 1 1080,540 z" />
    <path
       sodipodi:type="arc"
       style="fill:#1a1a1a;fill-opacity:1;fill-rule:nonzero;stroke:none"
       id="path4023-1-4-3"
       sodipodi:cx="540"
       sodipodi:cy="540"
       sodipodi:rx="540"
       sodipodi:ry="540"
       d="M 1080,540 A 540,540 0 1 1 0,540 540,540 0 1 1 1080,540 z"
       transform="translate(6311.1075,-2553.9208)" />
    <path
       transform="translate(7571.1075,-2552.1026)"
       d="M 1080,540 A 540,540 0 1 1 0,540 540,540 0 1 1 1080,540 z"
       sodipodi:ry="540"
       sodipodi:rx="540"
       sodipodi:cy="540"
       sodipodi:cx="540"
       id="path4043-0-3"
       style="fill:#1a1a1a;fill-opacity:1;fill-rule:nonzero;stroke:none"
       sodipodi:type="arc" />
    <path
       transform="translate(8831.1075,-2552.1026)"
       d="M 1080,540 A 540,540 0 1 1 0,540 540,540 0 1 1 1080,540 z"
       sodipodi:ry="540"
       sodipodi:rx="540"
       sodipodi:cy="540"
       sodipodi:cx="540"
       id="path4045-9-4"
       style="fill:#1a1a1a;fill-opacity:1;fill-rule:nonzero;stroke:none"
       sodipodi:type="arc" />
    <path
       sodipodi:type="arc"
       style="fill:#1a1a1a;fill-opacity:1;fill-rule:nonzero;stroke:none"
       id="path4074-1"
       sodipodi:cx="540"
       sodipodi:cy="540"
       sodipodi:rx="540"
       sodipodi:ry="540"
       d="M 1080,540 A 540,540 0 1 1 0,540 540,540 0 1 1 1080,540 z"
       transform="translate(10091.108,-2552.1026)" />
    <path
       sodipodi:type="arc"
       style="fill:#1a1a1a;fill-opacity:1;fill-rule:nonzero;stroke:none"
       id="path4076-13"
       sodipodi:cx="540"
       sodipodi:cy="540"
       sodipodi:rx="540"
       sodipodi:ry="540"
       d="M 1080,540 A 540,540 0 1 1 0,540 540,540 0 1 1 1080,540 z"
       transform="translate(11351.108,-2552.1026)" />
    <path
       transform="translate(11.107536,-1292.1026)"
       sodipodi:type="arc"
       style="fill:#1a1a1a;fill-opacity:1;fill-rule:nonzero;stroke:none"
       id="path4023-4-8"
       sodipodi:cx="540"
       sodipodi:cy="540"
       sodipodi:rx="540"
       sodipodi:ry="540"
       d="M 1080,540 A 540,540 0 1 1 0,540 540,540 0 1 1 1080,540 z" />
    <path
       sodipodi:type="arc"
       style="fill:#1a1a1a;fill-opacity:1;fill-rule:nonzero;stroke:none"
       id="path4023-1-8-7"
       sodipodi:cx="540"
       sodipodi:cy="540"
       sodipodi:rx="540"
       sodipodi:ry="540"
       d="M 1080,540 A 540,540 0 1 1 0,540 540,540 0 1 1 1080,540 z"
       transform="translate(1271.1075,-1293.9208)" />
    <path
       transform="translate(2531.1075,-1292.1026)"
       d="M 1080,540 A 540,540 0 1 1 0,540 540,540 0 1 1 1080,540 z"
       sodipodi:ry="540"
       sodipodi:rx="540"
       sodipodi:cy="540"
       sodipodi:cx="540"
       id="path4043-8-4"
       style="fill:#1a1a1a;fill-opacity:1;fill-rule:nonzero;stroke:none"
       sodipodi:type="arc" />
    <path
       transform="translate(3791.1075,-1292.1026)"
       d="M 1080,540 A 540,540 0 1 1 0,540 540,540 0 1 1 1080,540 z"
       sodipodi:ry="540"
       sodipodi:rx="540"
       sodipodi:cy="540"
       sodipodi:cx="540"
       id="path4045-2-2"
       style="fill:#1a1a1a;fill-opacity:1;fill-rule:nonzero;stroke:none"
       sodipodi:type="arc" />
    <path
       transform="translate(5051.1075,-1292.1026)"
       sodipodi:type="arc"
       style="fill:#1a1a1a;fill-opacity:1;fill-rule:nonzero;stroke:none"
       id="path4023-7-4-77"
       sodipodi:cx="540"
       sodipodi:cy="540"
       sodipodi:rx="540"
       sodipodi:ry="540"
       d="M 1080,540 A 540,540 0 1 1 0,540 540,540 0 1 1 1080,540 z" />
    <path
       sodipodi:type="arc"
       style="fill:#1a1a1a;fill-opacity:1;fill-rule:nonzero;stroke:none"
       id="path4023-1-4-5-9"
       sodipodi:cx="540"
       sodipodi:cy="540"
       sodipodi:rx="540"
       sodipodi:ry="540"
       d="M 1080,540 A 540,540 0 1 1 0,540 540,540 0 1 1 1080,540 z"
       transform="translate(6311.1075,-1293.9208)" />
    <path
       transform="translate(7571.1075,-1292.1026)"
       d="M 1080,540 A 540,540 0 1 1 0,540 540,540 0 1 1 1080,540 z"
       sodipodi:ry="540"
       sodipodi:rx="540"
       sodipodi:cy="540"
       sodipodi:cx="540"
       id="path4043-0-5-3"
       style="fill:#1a1a1a;fill-opacity:1;fill-rule:nonzero;stroke:none"
       sodipodi:type="arc" />
    <path
       transform="translate(8831.1075,-1292.1026)"
       d="M 1080,540 A 540,540 0 1 1 0,540 540,540 0 1 1 1080,540 z"
       sodipodi:ry="540"
       sodipodi:rx="540"
       sodipodi:cy="540"
       sodipodi:cx="540"
       id="path4045-9-1-1"
       style="fill:#1a1a1a;fill-opacity:1;fill-rule:nonzero;stroke:none"
       sodipodi:type="arc" />
    <path
       sodipodi:type="arc"
       style="fill:#1a1a1a;fill-opacity:1;fill-rule:nonzero;stroke:none"
       id="path4074-7-98"
       sodipodi:cx="540"
       sodipodi:cy="540"
       sodipodi:rx="540"
       sodipodi:ry="540"
       d="M 1080,540 A 540,540 0 1 1 0,540 540,540 0 1 1 1080,540 z"
       transform="translate(10091.108,-1292.1026)" />
    <path
       sodipodi:type="arc"
       style="fill:#1a1a1a;fill-opacity:1;fill-rule:nonzero;stroke:none"
       id="path4076-1-6"
       sodipodi:cx="540"
       sodipodi:cy="540"
       sodipodi:rx="540"
       sodipodi:ry="540"
       d="M 1080,540 A 540,540 0 1 1 0,540 540,540 0 1 1 1080,540 z"
       transform="translate(11351.108,-1292.1026)" />
    <path
       transform="translate(11.107536,-32.102622)"
       sodipodi:type="arc"
       style="fill:#1a1a1a;fill-opacity:1;fill-rule:nonzero;stroke:none"
       id="path4023-15-5"
       sodipodi:cx="540"
       sodipodi:cy="540"
       sodipodi:rx="540"
       sodipodi:ry="540"
       d="M 1080,540 A 540,540 0 1 1 0,540 540,540 0 1 1 1080,540 z" />
    <path
       sodipodi:type="arc"
       style="fill:#1a1a1a;fill-opacity:1;fill-rule:nonzero;stroke:none"
       id="path4023-1-2-0"
       sodipodi:cx="540"
       sodipodi:cy="540"
       sodipodi:rx="540"
       sodipodi:ry="540"
       d="M 1080,540 A 540,540 0 1 1 0,540 540,540 0 1 1 1080,540 z"
       transform="translate(1271.1075,-33.920822)" />
    <path
       transform="translate(2531.1075,-32.102622)"
       d="M 1080,540 A 540,540 0 1 1 0,540 540,540 0 1 1 1080,540 z"
       sodipodi:ry="540"
       sodipodi:rx="540"
       sodipodi:cy="540"
       sodipodi:cx="540"
       id="path4043-7-2"
       style="fill:#1a1a1a;fill-opacity:1;fill-rule:nonzero;stroke:none"
       sodipodi:type="arc" />
    <path
       transform="translate(3791.1075,-32.102622)"
       d="M 1080,540 A 540,540 0 1 1 0,540 540,540 0 1 1 1080,540 z"
       sodipodi:ry="540"
       sodipodi:rx="540"
       sodipodi:cy="540"
       sodipodi:cx="540"
       id="path4045-6-8"
       style="fill:#1a1a1a;fill-opacity:1;fill-rule:nonzero;stroke:none"
       sodipodi:type="arc" />
    <path
       transform="translate(5051.1075,-32.102622)"
       sodipodi:type="arc"
       style="fill:#1a1a1a;fill-opacity:1;fill-rule:nonzero;stroke:none"
       id="path4023-7-1-6"
       sodipodi:cx="540"
       sodipodi:cy="540"
       sodipodi:rx="540"
       sodipodi:ry="540"
       d="M 1080,540 A 540,540 0 1 1 0,540 540,540 0 1 1 1080,540 z" />
    <path
       sodipodi:type="arc"
       style="fill:#1a1a1a;fill-opacity:1;fill-rule:nonzero;stroke:none"
       id="path4023-1-4-4-0"
       sodipodi:cx="540"
       sodipodi:cy="540"
       sodipodi:rx="540"
       sodipodi:ry="540"
       d="M 1080,540 A 540,540 0 1 1 0,540 540,540 0 1 1 1080,540 z"
       transform="translate(6311.1075,-33.920822)" />
    <path
       transform="translate(7571.1075,-32.102622)"
       d="M 1080,540 A 540,540 0 1 1 0,540 540,540 0 1 1 1080,540 z"
       sodipodi:ry="540"
       sodipodi:rx="540"
       sodipodi:cy="540"
       sodipodi:cx="540"
       id="path4043-0-2-2"
       style="fill:#1a1a1a;fill-opacity:1;fill-rule:nonzero;stroke:none"
       sodipodi:type="arc" />
    <path
       transform="translate(8831.1075,-32.102622)"
       d="M 1080,540 A 540,540 0 1 1 0,540 540,540 0 1 1 1080,540 z"
       sodipodi:ry="540"
       sodipodi:rx="540"
       sodipodi:cy="540"
       sodipodi:cx="540"
       id="path4045-9-3-4"
       style="fill:#1a1a1a;fill-opacity:1;fill-rule:nonzero;stroke:none"
       sodipodi:type="arc" />
    <path
       sodipodi:type="arc"
       style="fill:#1a1a1a;fill-opacity:1;fill-rule:nonzero;stroke:none"
       id="path4074-2-8"
       sodipodi:cx="540"
       sodipodi:cy="540"
       sodipodi:rx="540"
       sodipodi:ry="540"
       d="M 1080,540 A 540,540 0 1 1 0,540 540,540 0 1 1 1080,540 z"
       transform="translate(10091.108,-32.102622)" />
    <path
       sodipodi:type="arc"
       style="fill:#1a1a1a;fill-opacity:1;fill-rule:nonzero;stroke:none"
       id="path4076-2-6"
       sodipodi:cx="540"
       sodipodi:cy="540"
       sodipodi:rx="540"
       sodipodi:ry="540"
       d="M 1080,540 A 540,540 0 1 1 0,540 540,540 0 1 1 1080,540 z"
       transform="translate(11351.108,-32.102622)" />
  </g>
  <g
     inkscape:groupmode="layer"
     id="layer3"
     inkscape:label="diag"
     style="display:none">
    <path
       transform="translate(0,7560)"
       sodipodi:type="arc"
       style="fill:#1a1a1a;fill-opacity:1;fill-rule:nonzero;stroke:none;display:inline"
       id="path4023-9"
       sodipodi:cx="540"
       sodipodi:cy="540"
       sodipodi:rx="540"
       sodipodi:ry="540"
       d="M 1080,540 A 540,540 0 1 1 0,540 540,540 0 1 1 1080,540 z" />
    <path
       sodipodi:type="arc"
       style="fill:#1a1a1a;fill-opacity:1;fill-rule:nonzero;stroke:none;display:inline"
       id="path4023-1-0"
       sodipodi:cx="540"
       sodipodi:cy="540"
       sodipodi:rx="540"
       sodipodi:ry="540"
       d="M 1080,540 A 540,540 0 1 1 0,540 540,540 0 1 1 1080,540 z"
       transform="translate(1080,6480)" />
    <path
       transform="translate(3240,6480)"
       d="M 1080,540 A 540,540 0 1 1 0,540 540,540 0 1 1 1080,540 z"
       sodipodi:ry="540"
       sodipodi:rx="540"
       sodipodi:cy="540"
       sodipodi:cx="540"
       id="path4043-06"
       style="fill:#1a1a1a;fill-opacity:1;fill-rule:nonzero;stroke:none;display:inline"
       sodipodi:type="arc" />
    <path
       transform="translate(2160,7560)"
       d="M 1080,540 A 540,540 0 1 1 0,540 540,540 0 1 1 1080,540 z"
       sodipodi:ry="540"
       sodipodi:rx="540"
       sodipodi:cy="540"
       sodipodi:cx="540"
       id="path4045-1"
       style="fill:#1a1a1a;fill-opacity:1;fill-rule:nonzero;stroke:none;display:inline"
       sodipodi:type="arc" />
    <path
       transform="translate(4320,7560)"
       sodipodi:type="arc"
       style="fill:#1a1a1a;fill-opacity:1;fill-rule:nonzero;stroke:none;display:inline"
       id="path4023-7-3"
       sodipodi:cx="540"
       sodipodi:cy="540"
       sodipodi:rx="540"
       sodipodi:ry="540"
       d="M 1080,540 A 540,540 0 1 1 0,540 540,540 0 1 1 1080,540 z" />
    <path
       sodipodi:type="arc"
       style="fill:#1a1a1a;fill-opacity:1;fill-rule:nonzero;stroke:none;display:inline"
       id="path4023-1-4-8"
       sodipodi:cx="540"
       sodipodi:cy="540"
       sodipodi:rx="540"
       sodipodi:ry="540"
       d="M 1080,540 A 540,540 0 1 1 0,540 540,540 0 1 1 1080,540 z"
       transform="translate(5400,6480)" />
    <path
       d="M 1080,540 A 540,540 0 1 1 0,540 540,540 0 1 1 1080,540 z"
       sodipodi:ry="540"
       sodipodi:rx="540"
       sodipodi:cy="540"
       sodipodi:cx="540"
       id="path4560"
       style="fill:#1a1a1a;fill-opacity:1;fill-rule:nonzero;stroke:none;display:inline"
       sodipodi:type="arc"
       transform="translate(6480,7560)" />
    <path
       transform="translate(7560,6480)"
       d="M 1080,540 A 540,540 0 1 1 0,540 540,540 0 1 1 1080,540 z"
       sodipodi:ry="540"
       sodipodi:rx="540"
       sodipodi:cy="540"
       sodipodi:cx="540"
       id="path4562"
       style="fill:#1a1a1a;fill-opacity:1;fill-rule:nonzero;stroke:none;display:inline"
       sodipodi:type="arc" />
    <path
       sodipodi:type="arc"
       style="fill:#1a1a1a;fill-opacity:1;fill-rule:nonzero;stroke:none;display:inline"
       id="path4564"
       sodipodi:cx="540"
       sodipodi:cy="540"
       sodipodi:rx="540"
       sodipodi:ry="540"
       d="M 1080,540 A 540,540 0 1 1 0,540 540,540 0 1 1 1080,540 z"
       transform="translate(9720,6488.2265)" />
    <path
       sodipodi:type="arc"
       style="fill:#1a1a1a;fill-opacity:1;fill-rule:nonzero;stroke:none;display:inline"
       id="path4566"
       sodipodi:cx="540"
       sodipodi:cy="540"
       sodipodi:rx="540"
       sodipodi:ry="540"
       d="M 1080,540 A 540,540 0 1 1 0,540 540,540 0 1 1 1080,540 z"
       transform="translate(8640,7560)" />
    <path
       d="M 1080,540 A 540,540 0 1 1 0,540 540,540 0 1 1 1080,540 z"
       sodipodi:ry="540"
       sodipodi:rx="540"
       sodipodi:cy="540"
       sodipodi:cx="540"
       id="path4568"
       style="fill:#1a1a1a;fill-opacity:1;fill-rule:nonzero;stroke:none;display:inline"
       sodipodi:type="arc"
       transform="translate(10800,7560)" />
    <path
       transform="translate(11880,6480)"
       d="M 1080,540 A 540,540 0 1 1 0,540 540,540 0 1 1 1080,540 z"
       sodipodi:ry="540"
       sodipodi:rx="540"
       sodipodi:cy="540"
       sodipodi:cx="540"
       id="path4570"
       style="fill:#1a1a1a;fill-opacity:1;fill-rule:nonzero;stroke:none;display:inline"
       sodipodi:type="arc" />
    <path
       d="M 1080,540 A 540,540 0 1 1 0,540 540,540 0 1 1 1080,540 z"
       sodipodi:ry="540"
       sodipodi:rx="540"
       sodipodi:cy="540"
       sodipodi:cx="540"
       id="path4572"
       style="fill:#1a1a1a;fill-opacity:1;fill-rule:nonzero;stroke:none;display:inline"
       sodipodi:type="arc"
       transform="translate(0,5400)" />
    <path
       transform="translate(1080,4320)"
       d="M 1080,540 A 540,540 0 1 1 0,540 540,540 0 1 1 1080,540 z"
       sodipodi:ry="540"
       sodipodi:rx="540"
       sodipodi:cy="540"
       sodipodi:cx="540"
       id="path4574"
       style="fill:#1a1a1a;fill-opacity:1;fill-rule:nonzero;stroke:none;display:inline"
       sodipodi:type="arc" />
    <path
       sodipodi:type="arc"
       style="fill:#1a1a1a;fill-opacity:1;fill-rule:nonzero;stroke:none;display:inline"
       id="path4576"
       sodipodi:cx="540"
       sodipodi:cy="540"
       sodipodi:rx="540"
       sodipodi:ry="540"
       d="M 1080,540 A 540,540 0 1 1 0,540 540,540 0 1 1 1080,540 z"
       transform="translate(3240,4320)" />
    <path
       sodipodi:type="arc"
       style="fill:#1a1a1a;fill-opacity:1;fill-rule:nonzero;stroke:none;display:inline"
       id="path4578"
       sodipodi:cx="540"
       sodipodi:cy="540"
       sodipodi:rx="540"
       sodipodi:ry="540"
       d="M 1080,540 A 540,540 0 1 1 0,540 540,540 0 1 1 1080,540 z"
       transform="translate(2160,5400)" />
    <path
       d="M 1080,540 A 540,540 0 1 1 0,540 540,540 0 1 1 1080,540 z"
       sodipodi:ry="540"
       sodipodi:rx="540"
       sodipodi:cy="540"
       sodipodi:cx="540"
       id="path4580"
       style="fill:#1a1a1a;fill-opacity:1;fill-rule:nonzero;stroke:none;display:inline"
       sodipodi:type="arc"
       transform="translate(4320,5400)" />
    <path
       transform="translate(5400,4320)"
       d="M 1080,540 A 540,540 0 1 1 0,540 540,540 0 1 1 1080,540 z"
       sodipodi:ry="540"
       sodipodi:rx="540"
       sodipodi:cy="540"
       sodipodi:cx="540"
       id="path4582"
       style="fill:#1a1a1a;fill-opacity:1;fill-rule:nonzero;stroke:none;display:inline"
       sodipodi:type="arc" />
    <path
       transform="translate(6480,5400)"
       sodipodi:type="arc"
       style="fill:#1a1a1a;fill-opacity:1;fill-rule:nonzero;stroke:none;display:inline"
       id="path4584"
       sodipodi:cx="540"
       sodipodi:cy="540"
       sodipodi:rx="540"
       sodipodi:ry="540"
       d="M 1080,540 A 540,540 0 1 1 0,540 540,540 0 1 1 1080,540 z" />
    <path
       sodipodi:type="arc"
       style="fill:#1a1a1a;fill-opacity:1;fill-rule:nonzero;stroke:none;display:inline"
       id="path4586"
       sodipodi:cx="540"
       sodipodi:cy="540"
       sodipodi:rx="540"
       sodipodi:ry="540"
       d="M 1080,540 A 540,540 0 1 1 0,540 540,540 0 1 1 1080,540 z"
       transform="translate(7560,4320)" />
    <path
       transform="translate(9720,4328.2265)"
       d="M 1080,540 A 540,540 0 1 1 0,540 540,540 0 1 1 1080,540 z"
       sodipodi:ry="540"
       sodipodi:rx="540"
       sodipodi:cy="540"
       sodipodi:cx="540"
       id="path4588"
       style="fill:#1a1a1a;fill-opacity:1;fill-rule:nonzero;stroke:none;display:inline"
       sodipodi:type="arc" />
    <path
       transform="translate(8640,5400)"
       d="M 1080,540 A 540,540 0 1 1 0,540 540,540 0 1 1 1080,540 z"
       sodipodi:ry="540"
       sodipodi:rx="540"
       sodipodi:cy="540"
       sodipodi:cx="540"
       id="path4590"
       style="fill:#1a1a1a;fill-opacity:1;fill-rule:nonzero;stroke:none;display:inline"
       sodipodi:type="arc" />
    <path
       transform="translate(10800,5400)"
       sodipodi:type="arc"
       style="fill:#1a1a1a;fill-opacity:1;fill-rule:nonzero;stroke:none;display:inline"
       id="path4592"
       sodipodi:cx="540"
       sodipodi:cy="540"
       sodipodi:rx="540"
       sodipodi:ry="540"
       d="M 1080,540 A 540,540 0 1 1 0,540 540,540 0 1 1 1080,540 z" />
    <path
       sodipodi:type="arc"
       style="fill:#1a1a1a;fill-opacity:1;fill-rule:nonzero;stroke:none;display:inline"
       id="path4594"
       sodipodi:cx="540"
       sodipodi:cy="540"
       sodipodi:rx="540"
       sodipodi:ry="540"
       d="M 1080,540 A 540,540 0 1 1 0,540 540,540 0 1 1 1080,540 z"
       transform="translate(11880,4320)" />
    <path
       transform="translate(0,3240)"
       sodipodi:type="arc"
       style="fill:#1a1a1a;fill-opacity:1;fill-rule:nonzero;stroke:none;display:inline"
       id="path4023-9-0"
       sodipodi:cx="540"
       sodipodi:cy="540"
       sodipodi:rx="540"
       sodipodi:ry="540"
       d="M 1080,540 A 540,540 0 1 1 0,540 540,540 0 1 1 1080,540 z" />
    <path
       sodipodi:type="arc"
       style="fill:#1a1a1a;fill-opacity:1;fill-rule:nonzero;stroke:none;display:inline"
       id="path4023-1-0-6"
       sodipodi:cx="540"
       sodipodi:cy="540"
       sodipodi:rx="540"
       sodipodi:ry="540"
       d="M 1080,540 A 540,540 0 1 1 0,540 540,540 0 1 1 1080,540 z"
       transform="translate(1080,2160)" />
    <path
       transform="translate(3240.0001,2160)"
       d="M 1080,540 A 540,540 0 1 1 0,540 540,540 0 1 1 1080,540 z"
       sodipodi:ry="540"
       sodipodi:rx="540"
       sodipodi:cy="540"
       sodipodi:cx="540"
       id="path4043-06-6"
       style="fill:#1a1a1a;fill-opacity:1;fill-rule:nonzero;stroke:none;display:inline"
       sodipodi:type="arc" />
    <path
       transform="translate(2160,3240)"
       d="M 1080,540 A 540,540 0 1 1 0,540 540,540 0 1 1 1080,540 z"
       sodipodi:ry="540"
       sodipodi:rx="540"
       sodipodi:cy="540"
       sodipodi:cx="540"
       id="path4045-1-1"
       style="fill:#1a1a1a;fill-opacity:1;fill-rule:nonzero;stroke:none;display:inline"
       sodipodi:type="arc" />
    <path
       transform="translate(4320.0001,3240)"
       sodipodi:type="arc"
       style="fill:#1a1a1a;fill-opacity:1;fill-rule:nonzero;stroke:none;display:inline"
       id="path4023-7-3-8"
       sodipodi:cx="540"
       sodipodi:cy="540"
       sodipodi:rx="540"
       sodipodi:ry="540"
       d="M 1080,540 A 540,540 0 1 1 0,540 540,540 0 1 1 1080,540 z" />
    <path
       sodipodi:type="arc"
       style="fill:#1a1a1a;fill-opacity:1;fill-rule:nonzero;stroke:none;display:inline"
       id="path4023-1-4-8-4"
       sodipodi:cx="540"
       sodipodi:cy="540"
       sodipodi:rx="540"
       sodipodi:ry="540"
       d="M 1080,540 A 540,540 0 1 1 0,540 540,540 0 1 1 1080,540 z"
       transform="translate(5400,2160)" />
    <path
       d="M 1080,540 A 540,540 0 1 1 0,540 540,540 0 1 1 1080,540 z"
       sodipodi:ry="540"
       sodipodi:rx="540"
       sodipodi:cy="540"
       sodipodi:cx="540"
       id="path4560-9"
       style="fill:#1a1a1a;fill-opacity:1;fill-rule:nonzero;stroke:none;display:inline"
       sodipodi:type="arc"
       transform="translate(6480,3240)" />
    <path
       transform="translate(7560,2160)"
       d="M 1080,540 A 540,540 0 1 1 0,540 540,540 0 1 1 1080,540 z"
       sodipodi:ry="540"
       sodipodi:rx="540"
       sodipodi:cy="540"
       sodipodi:cx="540"
       id="path4562-6"
       style="fill:#1a1a1a;fill-opacity:1;fill-rule:nonzero;stroke:none;display:inline"
       sodipodi:type="arc" />
    <path
       sodipodi:type="arc"
       style="fill:#1a1a1a;fill-opacity:1;fill-rule:nonzero;stroke:none;display:inline"
       id="path4564-3"
       sodipodi:cx="540"
       sodipodi:cy="540"
       sodipodi:rx="540"
       sodipodi:ry="540"
       d="M 1080,540 A 540,540 0 1 1 0,540 540,540 0 1 1 1080,540 z"
       transform="translate(9720,2168.2265)" />
    <path
       sodipodi:type="arc"
       style="fill:#1a1a1a;fill-opacity:1;fill-rule:nonzero;stroke:none;display:inline"
       id="path4566-7"
       sodipodi:cx="540"
       sodipodi:cy="540"
       sodipodi:rx="540"
       sodipodi:ry="540"
       d="M 1080,540 A 540,540 0 1 1 0,540 540,540 0 1 1 1080,540 z"
       transform="translate(8640,3240)" />
    <path
       d="M 1080,540 A 540,540 0 1 1 0,540 540,540 0 1 1 1080,540 z"
       sodipodi:ry="540"
       sodipodi:rx="540"
       sodipodi:cy="540"
       sodipodi:cx="540"
       id="path4568-8"
       style="fill:#1a1a1a;fill-opacity:1;fill-rule:nonzero;stroke:none;display:inline"
       sodipodi:type="arc"
       transform="translate(10800,3240)" />
    <path
       transform="translate(11880,2160)"
       d="M 1080,540 A 540,540 0 1 1 0,540 540,540 0 1 1 1080,540 z"
       sodipodi:ry="540"
       sodipodi:rx="540"
       sodipodi:cy="540"
       sodipodi:cx="540"
       id="path4570-8"
       style="fill:#1a1a1a;fill-opacity:1;fill-rule:nonzero;stroke:none;display:inline"
       sodipodi:type="arc" />
    <path
       d="M 1080,540 A 540,540 0 1 1 0,540 540,540 0 1 1 1080,540 z"
       sodipodi:ry="540"
       sodipodi:rx="540"
       sodipodi:cy="540"
       sodipodi:cx="540"
       id="path4572-2"
       style="fill:#1a1a1a;fill-opacity:1;fill-rule:nonzero;stroke:none;display:inline"
       sodipodi:type="arc"
       transform="translate(0,1080)" />
    <path
       transform="translate(1080,9.9999999e-5)"
       d="M 1080,540 A 540,540 0 1 1 0,540 540,540 0 1 1 1080,540 z"
       sodipodi:ry="540"
       sodipodi:rx="540"
       sodipodi:cy="540"
       sodipodi:cx="540"
       id="path4574-9"
       style="fill:#1a1a1a;fill-opacity:1;fill-rule:nonzero;stroke:none;display:inline"
       sodipodi:type="arc" />
    <path
       sodipodi:type="arc"
       style="fill:#1a1a1a;fill-opacity:1;fill-rule:nonzero;stroke:none;display:inline"
       id="path4576-1"
       sodipodi:cx="540"
       sodipodi:cy="540"
       sodipodi:rx="540"
       sodipodi:ry="540"
       d="M 1080,540 A 540,540 0 1 1 0,540 540,540 0 1 1 1080,540 z"
       transform="translate(3240.0001,9.9999999e-5)" />
    <path
       sodipodi:type="arc"
       style="fill:#1a1a1a;fill-opacity:1;fill-rule:nonzero;stroke:none;display:inline"
       id="path4578-3"
       sodipodi:cx="540"
       sodipodi:cy="540"
       sodipodi:rx="540"
       sodipodi:ry="540"
       d="M 1080,540 A 540,540 0 1 1 0,540 540,540 0 1 1 1080,540 z"
       transform="translate(2160,1080)" />
    <path
       d="M 1080,540 A 540,540 0 1 1 0,540 540,540 0 1 1 1080,540 z"
       sodipodi:ry="540"
       sodipodi:rx="540"
       sodipodi:cy="540"
       sodipodi:cx="540"
       id="path4580-5"
       style="fill:#1a1a1a;fill-opacity:1;fill-rule:nonzero;stroke:none;display:inline"
       sodipodi:type="arc"
       transform="translate(4320.0001,1080)" />
    <path
       transform="translate(5400,9.9999999e-5)"
       d="M 1080,540 A 540,540 0 1 1 0,540 540,540 0 1 1 1080,540 z"
       sodipodi:ry="540"
       sodipodi:rx="540"
       sodipodi:cy="540"
       sodipodi:cx="540"
       id="path4582-9"
       style="fill:#1a1a1a;fill-opacity:1;fill-rule:nonzero;stroke:none;display:inline"
       sodipodi:type="arc" />
    <path
       transform="translate(6480,1080)"
       sodipodi:type="arc"
       style="fill:#1a1a1a;fill-opacity:1;fill-rule:nonzero;stroke:none;display:inline"
       id="path4584-8"
       sodipodi:cx="540"
       sodipodi:cy="540"
       sodipodi:rx="540"
       sodipodi:ry="540"
       d="M 1080,540 A 540,540 0 1 1 0,540 540,540 0 1 1 1080,540 z" />
    <path
       sodipodi:type="arc"
       style="fill:#1a1a1a;fill-opacity:1;fill-rule:nonzero;stroke:none;display:inline"
       id="path4586-4"
       sodipodi:cx="540"
       sodipodi:cy="540"
       sodipodi:rx="540"
       sodipodi:ry="540"
       d="M 1080,540 A 540,540 0 1 1 0,540 540,540 0 1 1 1080,540 z"
       transform="translate(7560,9.9999999e-5)" />
    <path
       transform="translate(9720,8.2266)"
       d="M 1080,540 A 540,540 0 1 1 0,540 540,540 0 1 1 1080,540 z"
       sodipodi:ry="540"
       sodipodi:rx="540"
       sodipodi:cy="540"
       sodipodi:cx="540"
       id="path4588-0"
       style="fill:#1a1a1a;fill-opacity:1;fill-rule:nonzero;stroke:none;display:inline"
       sodipodi:type="arc" />
    <path
       transform="translate(8640,1080)"
       d="M 1080,540 A 540,540 0 1 1 0,540 540,540 0 1 1 1080,540 z"
       sodipodi:ry="540"
       sodipodi:rx="540"
       sodipodi:cy="540"
       sodipodi:cx="540"
       id="path4590-7"
       style="fill:#1a1a1a;fill-opacity:1;fill-rule:nonzero;stroke:none;display:inline"
       sodipodi:type="arc" />
    <path
       transform="translate(10800,1080)"
       sodipodi:type="arc"
       style="fill:#1a1a1a;fill-opacity:1;fill-rule:nonzero;stroke:none;display:inline"
       id="path4592-6"
       sodipodi:cx="540"
       sodipodi:cy="540"
       sodipodi:rx="540"
       sodipodi:ry="540"
       d="M 1080,540 A 540,540 0 1 1 0,540 540,540 0 1 1 1080,540 z" />
    <path
       sodipodi:type="arc"
       style="fill:#1a1a1a;fill-opacity:1;fill-rule:nonzero;stroke:none;display:inline"
       id="path4594-3"
       sodipodi:cx="540"
       sodipodi:cy="540"
       sodipodi:rx="540"
       sodipodi:ry="540"
       d="M 1080,540 A 540,540 0 1 1 0,540 540,540 0 1 1 1080,540 z"
       transform="translate(11880,9.9999999e-5)" />
  </g>
</svg>
